<?xml version="1.0" encoding="UTF-8" standalone="no"?>
<!-- Created with Inkscape (http://www.inkscape.org/) -->

<svg
   xmlns:dc="http://purl.org/dc/elements/1.1/"
   xmlns:cc="http://creativecommons.org/ns#"
   xmlns:rdf="http://www.w3.org/1999/02/22-rdf-syntax-ns#"
   xmlns:svg="http://www.w3.org/2000/svg"
   xmlns="http://www.w3.org/2000/svg"
   xmlns:sodipodi="http://sodipodi.sourceforge.net/DTD/sodipodi-0.dtd"
   xmlns:inkscape="http://www.inkscape.org/namespaces/inkscape"
   width="35.452404mm"
   height="35.398781mm"
   viewBox="0 0 125.61875 125.42875"
   id="svg4335"
   version="1.1"
   inkscape:version="0.91 r13725"
   sodipodi:docname="0+.svg">
  <defs
     id="defs4337" />
  <sodipodi:namedview
     id="base"
     pagecolor="#ffffff"
     bordercolor="#666666"
     borderopacity="1.0"
     inkscape:pageopacity="0.0"
     inkscape:pageshadow="2"
     inkscape:zoom="0.35"
     inkscape:cx="-1024.6037"
     inkscape:cy="43.996985"
     inkscape:document-units="px"
     inkscape:current-layer="svg4335"
     showgrid="false"
     inkscape:window-width="1920"
     inkscape:window-height="1017"
     inkscape:window-x="1912"
     inkscape:window-y="-8"
     inkscape:window-maximized="1"
     fit-margin-top="0"
     fit-margin-left="0"
     fit-margin-right="0"
     fit-margin-bottom="0" />
  <metadata
     id="metadata4340">
    <rdf:RDF>
      <cc:Work
         rdf:about="">
        <dc:format>image/svg+xml</dc:format>
        <dc:type
           rdf:resource="http://purl.org/dc/dcmitype/StillImage" />
        <dc:title></dc:title>
      </cc:Work>
    </rdf:RDF>
  </metadata>
  <path
     id="path326"
     style="fill:#231f20;fill-opacity:1;fill-rule:nonzero;stroke:none"
     d="m 117.3525,55.6875 c 0,1.425 -0.66625,2.1875 -1.99625,2.1875 l -6.36625,0 0,-4.475 c 0,-3.325 -0.475,-5.0375 -3.325,-5.0375 l -2.85,0 c -2.85126,0 -3.32626,1.7125 -3.32626,5.0375 l 0,4.475 -4.46625,0 c -3.32625,0 -5.03625,0.475 -5.03625,3.325 l 0,3.0375 c 0,2.85 1.71,3.325 5.03625,3.325 l 4.46625,0 0,4.4625 c 0,3.325 0.475,5.0375 3.32626,5.0375 l 2.85,0 c 2.85,0 3.325,-1.7125 3.325,-5.0375 l 0,-4.4625 6.36625,0 c 1.23625,0 1.90125,0.6625 1.99625,1.9 l 0,14.45 c 0,3.5125 -1.04625,6.175 -3.51625,8.55 L 92.64624,113.65 c -2.47,2.4625 -5.22625,3.6125 -8.64625,3.6125 l -42.38,0 c -3.42125,0 -6.17625,-1.15 -8.6475,-3.6125 L 11.7825,92.4625 c -2.46875,-2.475 -3.61,-5.0375 -3.515,-8.55 L 8.2675,42 c 0,-3.5125 1.14,-6.55 3.705,-9.125 l 21.57124,-21.85 c 2.185,-2.1875 4.94,-2.85 8.07625,-2.85 l 42.38,0 c 3.135,0 5.89125,0.6625 8.07625,2.85 l 21.56876,21.85 c 2.4725,2.575 3.7075,5.6125 3.7075,9.125 l 0,13.6875 z M 97.87249,5.5125 C 94.16624,1.9 89.51124,0 83.90499,0 l -42.19,0 C 36.10874,0 31.35749,1.9 27.74749,5.5125 L 5.41625,27.75 C 1.90125,31.2625 0,35.925 0,41.05 L 0,83.9125 C 0,89.8 1.99625,94.3625 5.98625,98.25 l 21.19125,21.2 c 4.17999,4.175 8.83624,6.075 14.82249,5.975 l 41.62,0 c 5.795,0 10.54625,-1.7 14.8225,-5.975 l 21.19001,-21.2 c 3.89625,-3.8875 5.98625,-8.55 5.98625,-14.3375 l 0,-42.8625 c 0,-5.125 -1.9,-9.7875 -5.41625,-13.3 L 97.87249,5.5125 m -26.82375,64.05 c 0,9.7875 -0.38,13.875 -9.1225,13.875 -8.7425,0 -9.1225,-4 -9.1225,-13.6875 l 0,-13.1125 c 0,-9.7875 0.38,-13.875 9.1225,-13.875 8.7425,0 9.1225,3.9875 9.1225,13.6875 l 0,13.1125 z m -9.1225,-36.775 c -18.52875,0 -19.1,8.925 -19.1,33.1625 0,18.9125 2.09125,27.4625 19.1,27.4625 17.86375,0 19.1,-9.5 19.1,-30.6 0,-21 -1.23625,-30.025 -19.1,-30.025"
     inkscape:connector-curvature="0" />
</svg>
