<?xml version="1.0" encoding="UTF-8" standalone="no"?>
<!-- Created with Inkscape (http://www.inkscape.org/) -->

<svg
   xmlns:dc="http://purl.org/dc/elements/1.1/"
   xmlns:cc="http://creativecommons.org/ns#"
   xmlns:rdf="http://www.w3.org/1999/02/22-rdf-syntax-ns#"
   xmlns:svg="http://www.w3.org/2000/svg"
   xmlns="http://www.w3.org/2000/svg"
   xmlns:sodipodi="http://sodipodi.sourceforge.net/DTD/sodipodi-0.dtd"
   xmlns:inkscape="http://www.inkscape.org/namespaces/inkscape"
   width="35.452755mm"
   height="35.402065mm"
   viewBox="0 0 125.62 125.44039"
   id="svg4356"
   version="1.1"
   inkscape:version="0.91 r13725"
   sodipodi:docname="12+.svg">
  <defs
     id="defs4358" />
  <sodipodi:namedview
     id="base"
     pagecolor="#ffffff"
     bordercolor="#666666"
     borderopacity="1.0"
     inkscape:pageopacity="0.0"
     inkscape:pageshadow="2"
     inkscape:zoom="0.49497475"
     inkscape:cx="-147.72101"
     inkscape:cy="189.96881"
     inkscape:document-units="px"
     inkscape:current-layer="svg4356"
     showgrid="false"
     inkscape:window-width="1920"
     inkscape:window-height="1017"
     inkscape:window-x="1912"
     inkscape:window-y="-8"
     inkscape:window-maximized="1"
     fit-margin-top="0"
     fit-margin-left="0"
     fit-margin-right="0"
     fit-margin-bottom="0" />
  <metadata
     id="metadata4361">
    <rdf:RDF>
      <cc:Work
         rdf:about="">
        <dc:format>image/svg+xml</dc:format>
        <dc:type
           rdf:resource="http://purl.org/dc/dcmitype/StillImage" />
        <dc:title></dc:title>
      </cc:Work>
    </rdf:RDF>
  </metadata>
  <path
     id="path32"
     style="fill:#231f20;fill-opacity:1;fill-rule:nonzero;stroke:none"
     d="m 85.705,51.875 c 0,-13.0125 -1.235,-19.1875 -17.19875,-19.1875 -11.1175,0 -15.9625,2.5625 -15.9625,14.0625 0,2.5625 1.045,3.225 3.705,3.225 l 2.28125,0 c 2.185,0 3.515,-0.375 3.515,-2.275 0,-4.75 1.805,-5.225 6.46125,-5.225 4.8475,0 7.22125,0.475 7.22125,7.225 0,10.35 -7.60125,10.6375 -14.6325,13.5875 -8.07625,3.4125 -9.3125,9.5875 -9.3125,18.525 l 0,5.7 c 0,4.175 1.80625,4.85 5.32125,4.85 l 23.09125,0 c 3.515,0 5.32125,-0.575 5.32125,-3.7125 l 0,-2.85 c 0,-2.9375 -1.80625,-3.5125 -5.32125,-3.5125 l -16.81875,0 c -1.33125,0 -1.7125,-0.6625 -1.7125,-2.1875 l 0,-3.1375 c 0,-10.1625 24.04125,-3.8 24.04125,-25.0875 m 31.64625,3.8125 c 0,1.425 -0.665,2.1875 -1.995,2.1875 l -6.36625,0 0,-4.475 c 0,-3.325 -0.47625,-5.0375 -3.32625,-5.0375 l -2.85125,0 c -2.85,0 -3.32625,1.7125 -3.32625,5.0375 l 0,4.475 -4.465,0 c -3.325,0 -5.03625,0.475 -5.03625,3.325 l 0,3.0375 c 0,2.85 1.71125,3.325 5.03625,3.325 l 4.465,0 0,4.4625 c 0,3.325 0.47625,5.0375 3.32625,5.0375 l 2.85125,0 c 2.85,0 3.32625,-1.7125 3.32625,-5.0375 l 0,-4.4625 6.36625,0 c 1.235,0 1.9,0.6625 1.995,1.9 l 0,14.4375 c 0,3.525 -1.04625,6.1875 -3.51625,8.5625 L 92.64625,113.65 C 90.175,116.1125 87.41875,117.2625 84,117.2625 l -42.38125,0 c -3.42,0 -6.17625,-1.15 -8.64625,-3.6125 L 11.7825,92.4625 C 9.3125,89.9875 8.17125,87.425 8.26625,83.9 l 0,-41.9 c 0,-3.5125 1.14125,-6.55 3.70625,-9.125 l 21.57,-21.85 c 2.185,-2.1875 4.94125,-2.85 8.07625,-2.85 L 84,8.175 c 3.135,0 5.89,0.6625 8.07625,2.85 l 21.56875,21.85 c 2.47,2.575 3.70625,5.6125 3.70625,9.125 l 0,13.6875 z M 97.87,5.5125 C 94.16625,1.9 89.51125,0 83.9025,0 L 41.71375,0 C 36.1075,0 31.35625,1.9 27.74625,5.5125 L 5.415,27.75 C 1.9,31.2625 0,35.925 0,41.05 L 0,83.9 c 0,5.9 1.99625,10.4625 5.985,14.35 l 21.19125,21.2 c 4.18,4.175 8.83625,6.075 14.82375,5.9875 l 41.62,0 c 5.79625,0 10.54625,-1.7125 14.82125,-5.9875 l 21.19125,-21.2 c 3.895,-3.8875 5.9875,-8.55 5.9875,-14.35 l 0,-42.85 c 0,-5.125 -1.9025,-9.7875 -5.4175,-13.3 L 97.87,5.5125 m -57.93,28.5125 -8.6475,0 c -3.325,0 -5.03625,0.5625 -5.03625,3.325 l 0,3.1375 c 0,2.75 1.71125,3.325 5.03625,3.325 l 1.99625,0 c 1.235,0 1.805,0.6625 1.805,2.5625 l 0,41.05 c 0,3.325 0.57,5.0375 3.32625,5.0375 l 3.23,0 c 2.75625,0 3.32625,-1.7125 3.32625,-5.0375 l 0,-50.075 c 0,-2.7625 -1.71125,-3.325 -5.03625,-3.325"
     inkscape:connector-curvature="0" />
</svg>
