<?xml version="1.0" encoding="UTF-8" standalone="no"?>
<!-- Created with Inkscape (http://www.inkscape.org/) -->

<svg
   xmlns:dc="http://purl.org/dc/elements/1.1/"
   xmlns:cc="http://creativecommons.org/ns#"
   xmlns:rdf="http://www.w3.org/1999/02/22-rdf-syntax-ns#"
   xmlns:svg="http://www.w3.org/2000/svg"
   xmlns="http://www.w3.org/2000/svg"
   xmlns:sodipodi="http://sodipodi.sourceforge.net/DTD/sodipodi-0.dtd"
   xmlns:inkscape="http://www.inkscape.org/namespaces/inkscape"
   width="35.452755mm"
   height="35.398777mm"
   viewBox="0 0 125.62 125.42874"
   id="svg5492"
   version="1.1"
   inkscape:version="0.91 r13725"
   sodipodi:docname="16+.svg">
  <defs
     id="defs5494" />
  <sodipodi:namedview
     id="base"
     pagecolor="#ffffff"
     bordercolor="#666666"
     borderopacity="1.0"
     inkscape:pageopacity="0.0"
     inkscape:pageshadow="2"
     inkscape:zoom="0.35"
     inkscape:cx="-790.80854"
     inkscape:cy="729.50501"
     inkscape:document-units="px"
     inkscape:current-layer="svg5492"
     showgrid="false"
     fit-margin-top="0"
     fit-margin-left="0"
     fit-margin-right="0"
     fit-margin-bottom="0"
     inkscape:window-width="1920"
     inkscape:window-height="1017"
     inkscape:window-x="1912"
     inkscape:window-y="-8"
     inkscape:window-maximized="1" />
  <metadata
     id="metadata5497">
    <rdf:RDF>
      <cc:Work
         rdf:about="">
        <dc:format>image/svg+xml</dc:format>
        <dc:type
           rdf:resource="http://purl.org/dc/dcmitype/StillImage" />
        <dc:title></dc:title>
      </cc:Work>
    </rdf:RDF>
  </metadata>
  <path
     id="path332"
     style="fill:#231f20;fill-opacity:1;fill-rule:nonzero;stroke:none"
     d="m 117.3525,55.687496 c 0,1.4125 -0.66625,2.175 -1.99625,2.175 l -6.36625,0 0,-4.4625 c 0,-3.325 -0.47625,-5.0375 -3.32625,-5.0375 l -2.85,0 c -2.85125,0 -3.32625,1.7125 -3.32625,5.0375 l 0,4.4625 -4.46625,0 c -3.325,0 -5.03625,0.475 -5.03625,3.325 l 0,3.05 c 0,2.85 1.71125,3.325 5.03625,3.325 l 4.46625,0 0,4.4625 c 0,3.325 0.475,5.0375 3.32625,5.0375 l 2.85,0 c 2.85,0 3.32625,-1.7125 3.32625,-5.0375 l 0,-4.4625 6.36625,0 c 1.235,0 1.9,0.6625 1.99625,1.9 l 0,14.4375 c 0,3.5125 -1.04625,6.175 -3.5175,8.55 L 92.64625,113.65 c -2.47125,2.4625 -5.2275,3.6 -8.64625,3.6 l -42.38125,0 c -3.42125,0 -6.17625,-1.1375 -8.645,-3.6 L 11.7825,92.449996 c -2.47,-2.4625 -3.61125,-5.0375 -3.51625,-8.55 l 0,-41.9 c 0,-3.5125 1.14125,-6.5625 3.70625,-9.125 l 21.57,-21.85 c 2.18625,-2.1874998 4.94125,-2.8499998 8.07625,-2.8499998 l 42.38125,0 c 3.13625,0 5.89,0.6625 8.07625,2.8499998 l 21.57,21.85 c 2.46875,2.5625 3.70625,5.6125 3.70625,9.125 l 0,13.6875 z M 97.87125,5.5124962 C 94.1675,1.8999962 89.51125,-3.8146975e-6 83.90375,-3.8146975e-6 l -42.19,0 C 36.1075,-3.8146975e-6 31.3575,1.8999962 27.74625,5.5124962 L 5.415,27.749996 c -3.51375,3.5125 -5.415,8.1625 -5.415,13.3 l 0,42.85 c 0,5.8875 1.99625,10.45 5.98625,14.35 L 27.1775,119.4375 c 4.18,4.1875 8.835,6.0875 14.82125,5.9875 l 41.62125,0 c 5.79625,0 10.5475,-1.7125 14.8225,-5.9875 l 21.19125,-21.187504 c 3.89375,-3.9 5.98625,-8.55 5.98625,-14.35 l 0,-42.85 c 0,-5.1375 -1.9025,-9.7875 -5.4175,-13.3 L 97.87125,5.5124962 m -59.7275,28.4999998 -8.6475,0 c -3.325,0 -5.03625,0.575 -5.03625,3.325 l 0,3.1375 c 0,2.7625 1.71125,3.325 5.03625,3.325 l 1.995,0 c 1.235,0 1.805,0.6625 1.805,2.575 l 0,41.0375 c 0,3.3375 0.57,5.0375 3.3275,5.0375 l 3.23,0 c 2.75625,0 3.3275,-1.7 3.3275,-5.0375 l 0,-50.075 c 0,-2.75 -1.71125,-3.325 -5.0375,-3.325 m 30.48,49.7 c -6.74625,0 -8.74125,-1.9 -8.74125,-7.5 l 0,-9.0375 c 2.375,-0.5625 4.94125,-1.1375 7.69625,-1.1375 7.3175,0 8.9325,1.9 8.9325,8.55 0,6.0875 -0.855,9.125 -7.8875,9.125 z m 0.19,-26.225 c -2.375,0 -4.75,0.1875 -7.22125,0.6625 -0.95125,0.1875 -1.71,-0.1875 -1.71,-1.325 l 0,-1.9 c 0,-8.9375 0.66375,-12.1625 8.17125,-12.1625 6.46125,0 7.8875,0.375 7.8875,5.0375 0,1.9 1.33,2.4625 3.51625,2.4625 l 2.27875,0 c 2.66125,0 3.70625,-0.6625 3.70625,-3.225 0,-11.2125 -4.845,-14.0625 -15.9625,-14.0625 -17.38875,0 -19.385,7.025 -19.385,29.2625 0.095,21.475 -1.14,30.975 18.34,30.975 12.35375,0 17.86375,-4.0875 17.86375,-19.7625 0,-12.925 -5.98625,-15.9625 -17.485,-15.9625"
     inkscape:connector-curvature="0" />
</svg>
