<?xml version="1.0" encoding="UTF-8" standalone="no"?>
<!-- Created with Inkscape (http://www.inkscape.org/) -->

<svg
   xmlns:dc="http://purl.org/dc/elements/1.1/"
   xmlns:cc="http://creativecommons.org/ns#"
   xmlns:rdf="http://www.w3.org/1999/02/22-rdf-syntax-ns#"
   xmlns:svg="http://www.w3.org/2000/svg"
   xmlns="http://www.w3.org/2000/svg"
   xmlns:sodipodi="http://sodipodi.sourceforge.net/DTD/sodipodi-0.dtd"
   xmlns:inkscape="http://www.inkscape.org/namespaces/inkscape"
   width="35.452404mm"
   height="35.402065mm"
   viewBox="0 0 125.61875 125.44039"
   id="svg6062"
   version="1.1"
   inkscape:version="0.91 r13725"
   sodipodi:docname="18+.svg">
  <defs
     id="defs6064" />
  <sodipodi:namedview
     id="base"
     pagecolor="#ffffff"
     bordercolor="#666666"
     borderopacity="1.0"
     inkscape:pageopacity="0.0"
     inkscape:pageshadow="2"
     inkscape:zoom="0.35"
     inkscape:cx="-13.167986"
     inkscape:cy="858.07649"
     inkscape:document-units="px"
     inkscape:current-layer="svg6062"
     showgrid="false"
     fit-margin-top="0"
     fit-margin-left="0"
     fit-margin-right="0"
     fit-margin-bottom="0"
     inkscape:window-width="1920"
     inkscape:window-height="1017"
     inkscape:window-x="1912"
     inkscape:window-y="-8"
     inkscape:window-maximized="1" />
  <metadata
     id="metadata6067">
    <rdf:RDF>
      <cc:Work
         rdf:about="">
        <dc:format>image/svg+xml</dc:format>
        <dc:type
           rdf:resource="http://purl.org/dc/dcmitype/StillImage" />
        <dc:title></dc:title>
      </cc:Work>
    </rdf:RDF>
  </metadata>
  <path
     id="path26"
     style="fill:#231f20;fill-opacity:1;fill-rule:nonzero;stroke:none"
     d="m 68.7,84.1875 c -6.08,0 -8.26625,-2.375 -8.26625,-8.3625 0,-5.9875 2.18625,-8.7375 8.26625,-8.7375 6.0825,0 8.26875,2.75 8.26875,8.7375 0,5.9875 -2.18625,8.3625 -8.26875,8.3625 z m 0,-42.475 c 5.2275,0 7.31875,1.9 7.31875,8.275 0,6.175 -2.09125,8.2625 -7.31875,8.2625 -5.22375,0 -7.315,-2.0875 -7.315,-8.2625 0,-6.375 2.09125,-8.275 7.315,-8.275 z M 79.9125,62.15 c 5.32125,-3.9 5.41625,-7.8875 5.41625,-11.125 l 0,-3.225 C 84.75875,37.0625 81.14875,32.975 68.7,32.975 56.25375,32.975 52.64375,37.0625 52.0725,47.8 l 0,3.225 c 0,3.2375 0.095,7.225 5.41625,11.125 -6.36625,2.4625 -6.84125,7.8875 -6.84125,15.0125 0,10.55 3.705,15.775 18.0525,16.05 14.34875,-0.275 18.05625,-5.5 18.05625,-16.05 0,-7.125 -0.475,-12.55 -6.84375,-15.0125 m 37.44,-6.4625 c 0,1.425 -0.66625,2.1875 -1.99625,2.1875 l -6.365,0 0,-4.475 c 0,-3.325 -0.47625,-5.0375 -3.32625,-5.0375 l -2.8525,0 c -2.84875,0 -3.325,1.7125 -3.325,5.0375 l 0,4.475 -4.465,0 c -3.325,0 -5.03625,0.475 -5.03625,3.325 l 0,3.0375 c 0,2.85 1.71125,3.325 5.03625,3.325 l 4.465,0 0,4.4625 c 0,3.325 0.47625,5.0375 3.325,5.0375 l 2.8525,0 c 2.85,0 3.32625,-1.7125 3.32625,-5.0375 l 0,-4.4625 6.365,0 c 1.23625,0 1.90125,0.6625 1.99625,1.9 l 0,14.4375 c 0,3.525 -1.04625,6.1875 -3.51625,8.5625 l -21.19,21.1875 c -2.47125,2.4625 -5.22625,3.6125 -8.645,3.6125 l -42.3825,0 c -3.42,0 -6.175,-1.15 -8.64625,-3.6125 L 11.78375,92.4625 C 9.31375,89.9875 8.17,87.425 8.2675,83.9 l 0,-41.9 c 0,-3.5125 1.14125,-6.55 3.70625,-9.125 L 33.5425,11.025 c 2.18625,-2.1875 4.94125,-2.85 8.07625,-2.85 l 42.3825,0 c 3.13375,0 5.88875,0.6625 8.075,2.85 l 21.57,21.85 c 2.47,2.575 3.70625,5.6125 3.70625,9.125 l 0,13.6875 z M 97.87125,5.5125 C 94.16625,1.9 89.51125,0 83.90375,0 l -42.19,0 C 36.1075,0 31.35625,1.9 27.7475,5.5125 L 5.415,27.75 C 1.90125,31.2625 0,35.925 0,41.05 L 0,83.9 c 0,5.9 1.99625,10.4625 5.98625,14.35 l 21.19125,21.2 c 4.17875,4.175 8.835,6.075 14.8225,5.9875 l 41.62,0 c 5.79625,0 10.54625,-1.7125 14.8225,-5.9875 l 21.19,-21.2 c 3.89625,-3.8875 5.98625,-8.55 5.98625,-14.35 l 0,-42.85 c 0,-5.125 -1.9,-9.7875 -5.41625,-13.3 L 97.87125,5.5125 m -59.2775,28.5125 -8.6475,0 c -3.32375,0 -5.035,0.5625 -5.035,3.325 l 0,3.1375 c 0,2.75 1.71125,3.325 5.035,3.325 l 1.99625,0 c 1.235,0 1.80375,0.6625 1.80375,2.5625 l 0,41.05 c 0,3.325 0.57125,5.0375 3.3275,5.0375 l 3.22875,0 c 2.7575,0 3.32875,-1.7125 3.32875,-5.0375 l 0,-50.075 c 0,-2.7625 -1.7125,-3.325 -5.0375,-3.325"
     inkscape:connector-curvature="0" />
</svg>
