<?xml version="1.0" encoding="UTF-8" standalone="no"?>
<!-- Created with Inkscape (http://www.inkscape.org/) -->

<svg
   xmlns:dc="http://purl.org/dc/elements/1.1/"
   xmlns:cc="http://creativecommons.org/ns#"
   xmlns:rdf="http://www.w3.org/1999/02/22-rdf-syntax-ns#"
   xmlns:svg="http://www.w3.org/2000/svg"
   xmlns="http://www.w3.org/2000/svg"
   xmlns:sodipodi="http://sodipodi.sourceforge.net/DTD/sodipodi-0.dtd"
   xmlns:inkscape="http://www.inkscape.org/namespaces/inkscape"
   width="35.452755mm"
   height="35.402065mm"
   viewBox="0 0 125.62 125.44039"
   id="svg4925"
   version="1.1"
   inkscape:version="0.91 r13725"
   sodipodi:docname="6+.svg">
  <defs
     id="defs4927" />
  <sodipodi:namedview
     id="base"
     pagecolor="#ffffff"
     bordercolor="#666666"
     borderopacity="1.0"
     inkscape:pageopacity="0.0"
     inkscape:pageshadow="2"
     inkscape:zoom="0.35"
     inkscape:cx="-119.19791"
     inkscape:cy="-45.851239"
     inkscape:document-units="px"
     inkscape:current-layer="svg4925"
     showgrid="false"
     inkscape:window-width="1247"
     inkscape:window-height="969"
     inkscape:window-x="660"
     inkscape:window-y="12"
     inkscape:window-maximized="0"
     fit-margin-top="0"
     fit-margin-left="0"
     fit-margin-right="0"
     fit-margin-bottom="0" />
  <metadata
     id="metadata4930">
    <rdf:RDF>
      <cc:Work
         rdf:about="">
        <dc:format>image/svg+xml</dc:format>
        <dc:type
           rdf:resource="http://purl.org/dc/dcmitype/StillImage" />
        <dc:title></dc:title>
      </cc:Work>
    </rdf:RDF>
  </metadata>
  <path
     id="path20"
     style="fill:#231f20;fill-opacity:1;fill-rule:nonzero;stroke:none"
     d="m 62.71125,83.7125 c -6.74625,0 -8.74125,-1.9 -8.74125,-7.5 l 0,-9.025 c 2.37625,-0.575 4.94125,-1.15 7.69625,-1.15 7.3175,0 8.9325,1.9 8.9325,8.55 0,6.0875 -0.855,9.125 -7.8875,9.125 z m 0.19125,-26.225 c -2.37625,0 -4.75125,0.1875 -7.2225,0.6625 -0.95,0.2 -1.71,-0.1875 -1.71,-1.325 l 0,-1.9 c 0,-8.9375 0.665,-12.1625 8.17125,-12.1625 6.46125,0 7.8875,0.375 7.8875,5.0375 0,1.9 1.33,2.475 3.51625,2.475 l 2.28,0 c 2.66125,0 3.70625,-0.675 3.70625,-3.2375 0,-11.2125 -4.845,-14.0625 -15.96375,-14.0625 -17.38875,0 -19.385,7.0375 -19.385,29.2625 0.095,21.475 -1.14,30.975 18.34,30.975 12.35375,0 17.86375,-4.075 17.86375,-19.7625 0,-12.925 -5.98625,-15.9625 -17.48375,-15.9625 m 54.45,-1.8 c 0,1.425 -0.665,2.1875 -1.995,2.1875 l -6.36625,0 0,-4.475 c 0,-3.325 -0.47625,-5.0375 -3.32625,-5.0375 l -2.85125,0 c -2.85,0 -3.325,1.7125 -3.325,5.0375 l 0,4.475 -4.46625,0 c -3.32625,0 -5.03625,0.475 -5.03625,3.325 l 0,3.0375 c 0,2.85 1.71,3.325 5.03625,3.325 l 4.46625,0 0,4.4625 c 0,3.325 0.475,5.0375 3.325,5.0375 l 2.85125,0 c 2.85,0 3.32625,-1.7125 3.32625,-5.0375 l 0,-4.4625 6.36625,0 c 1.235,0 1.9,0.6625 1.995,1.9 l 0,14.4375 c 0,3.525 -1.045,6.1875 -3.515,8.5625 l -21.19,21.1875 c -2.47125,2.4625 -5.22625,3.6125 -8.6475,3.6125 l -42.38,0 c -3.42,0 -6.175,-1.15 -8.64625,-3.6125 l -21.19,-21.1875 C 9.3125,89.9875 8.17375,87.425 8.2675,83.9 l 0,-41.9 c 0,-3.5125 1.14125,-6.55 3.70625,-9.125 L 33.5425,11.025 C 35.72875,8.8375 38.485,8.175 41.62,8.175 l 42.38,0 c 3.13625,0 5.8925,0.6625 8.0775,2.85 l 21.56875,21.85 c 2.47125,2.575 3.70625,5.6125 3.70625,9.125 l 0,13.6875 z M 97.8725,5.5125 C 94.16625,1.9 89.51125,0 83.905,0 L 41.71625,0 C 36.10875,0 31.3575,1.9 27.7475,5.5125 L 5.41625,27.75 C 1.90125,31.2625 0,35.925 0,41.05 L 0,83.9 c 0,5.9 1.99625,10.4625 5.98875,14.35 l 21.18875,21.2 c 4.18,4.175 8.83625,6.075 14.8225,5.9875 l 41.62,0 c 5.79625,0 10.54625,-1.7125 14.8225,-5.9875 l 21.19125,-21.2 C 123.53,94.3625 125.62,89.7 125.62,83.9 l 0,-42.85 c 0,-5.125 -1.90125,-9.7875 -5.41625,-13.3 L 97.8725,5.5125"
     inkscape:connector-curvature="0" />
</svg>
