<?xml version="1.0" encoding="UTF-8" standalone="no"?>
<!-- Created with Inkscape (http://www.inkscape.org/) -->

<svg
   xmlns:dc="http://purl.org/dc/elements/1.1/"
   xmlns:cc="http://creativecommons.org/ns#"
   xmlns:rdf="http://www.w3.org/1999/02/22-rdf-syntax-ns#"
   xmlns:svg="http://www.w3.org/2000/svg"
   xmlns="http://www.w3.org/2000/svg"
   xmlns:sodipodi="http://sodipodi.sourceforge.net/DTD/sodipodi-0.dtd"
   xmlns:inkscape="http://www.inkscape.org/namespaces/inkscape"
   id="svg2"
   version="1.1"
   inkscape:version="0.91 r13725"
   xml:space="preserve"
   width="53.314251"
   height="62.608002"
   viewBox="0 0 53.314251 62.608002"
   sodipodi:docname="android.svg"><metadata
     id="metadata8"><rdf:RDF><cc:Work
         rdf:about=""><dc:format>image/svg+xml</dc:format><dc:type
           rdf:resource="http://purl.org/dc/dcmitype/StillImage" /><dc:title></dc:title></cc:Work></rdf:RDF></metadata><defs
     id="defs6"><clipPath
       clipPathUnits="userSpaceOnUse"
       id="clipPath16"><path
         d="m 0,50.086 42.651,0 L 42.651,0 0,0 0,50.086 Z"
         id="path18"
         inkscape:connector-curvature="0" /></clipPath></defs><sodipodi:namedview
     pagecolor="#ffffff"
     bordercolor="#666666"
     borderopacity="1"
     objecttolerance="10"
     gridtolerance="10"
     guidetolerance="10"
     inkscape:pageopacity="0"
     inkscape:pageshadow="2"
     inkscape:window-width="1008"
     inkscape:window-height="679"
     id="namedview4"
     showgrid="false"
     inkscape:zoom="3.7694862"
     inkscape:cx="26.657125"
     inkscape:cy="31.304001"
     inkscape:window-x="0"
     inkscape:window-y="0"
     inkscape:window-maximized="0"
     inkscape:current-layer="g10" /><g
     id="g10"
     inkscape:groupmode="layer"
     inkscape:label="Vector Smart Object1"
     transform="matrix(1.25,0,0,-1.25,0,62.608)"><g
       id="g12"><g
         id="g14"
         clip-path="url(#clipPath16)"><g
           id="g20"
           transform="translate(27.1416,40.0693)" /><g
           id="g24"
           transform="translate(7.9648,34.2529)" /><g
           id="g28"
           transform="translate(2.9082,34.2529)" /><g
           id="g32"
           transform="translate(39.7461,34.2529)"><path
             id="path34"
             style="fill:#000000;fill-opacity:1;fill-rule:nonzero;stroke:none"
             d="m 0,0 c -1.607,0 -2.908,-1.301 -2.908,-2.909 l 0,-12.44 c 0,-1.604 1.301,-2.907 2.908,-2.907 1.604,0 2.905,1.303 2.905,2.907 l 0,12.441 C 2.905,-1.301 1.604,0 0,0 m -36.8379,0 c -1.606,0 -2.908,-1.301 -2.908,-2.909 l 0,-12.44 c 0,-1.604 1.302,-2.907 2.908,-2.907 1.604,0 2.907,1.303 2.907,2.907 l 0,12.441 c 0,1.607 -1.302,2.908 -2.907,2.908 m 5.0566,0 -0.209,0 0,-2.418 0,-1.974 0,-16.935 c 0,-1.694 1.376,-3.07 3.069,-3.07 l 2.216,0 c -0.074,-0.256 -0.116,-0.527 -0.116,-0.807 l 0,-0.162 0,-0.969 0,-5.011 c 0,-1.604 1.303,-2.907 2.909,-2.907 1.606,0 2.908,1.303 2.908,2.907 l 0,5.011 0,0.969 0,0.162 c 0,0.279 -0.043,0.551 -0.115,0.807 l 5.4,0 c -0.074,-0.256 -0.115,-0.527 -0.115,-0.807 l 0,-0.162 0,-0.969 0,-5.011 c 0,-1.604 1.303,-2.907 2.907,-2.907 1.606,0 2.909,1.303 2.909,2.907 l 0,5.011 0,0.969 0,0.162 c 0,0.279 -0.041,0.551 -0.116,0.807 l 2.216,0 c 1.693,0 3.07,1.376 3.07,3.07 l 0,16.935 0,1.974 0,2.418 -0.209,0 -26.724,0 z m 19.1768,5.8164 c -0.803,0 -1.453,0.651 -1.453,1.454 0,0.804 0.65,1.453 1.453,1.453 0.805,0 1.455,-0.649 1.455,-1.453 0,-0.803 -0.65,-1.454 -1.455,-1.454 m -11.631,0 c -0.805,0 -1.455,0.651 -1.455,1.454 0,0.804 0.65,1.453 1.455,1.453 0.803,0 1.453,-0.649 1.453,-1.453 0,-0.803 -0.65,-1.454 -1.453,-1.454 m 12.489,5.823 0.547,0.82 0.537,0.807 1.209,1.814 c 0.148,0.222 0.088,0.522 -0.132,0.672 -0.226,0.148 -0.526,0.088 -0.675,-0.135 l -1.295,-1.945 -0.545,-0.817 -0.553,-0.828 c -1.752,0.68 -3.705,1.06 -5.767,1.06 -2.062,0 -4.015,-0.38 -5.767,-1.06 l -0.55,0.828 -0.545,0.817 -1.297,1.946 c -0.148,0.222 -0.449,0.282 -0.672,0.135 -0.223,-0.149 -0.283,-0.45 -0.135,-0.672 l 1.208,-1.814 0.539,-0.807 0.547,-0.82 c -4.115,-1.916 -6.898,-5.546 -6.898,-9.701 l 27.142,0 c 0,4.154 -2.782,7.784 -6.898,9.7" /></g></g></g></g></svg>