<?xml version="1.0" encoding="UTF-8" standalone="no"?>
<!-- Created with Inkscape (http://www.inkscape.org/) -->

<svg
   xmlns:dc="http://purl.org/dc/elements/1.1/"
   xmlns:cc="http://creativecommons.org/ns#"
   xmlns:rdf="http://www.w3.org/1999/02/22-rdf-syntax-ns#"
   xmlns:svg="http://www.w3.org/2000/svg"
   xmlns="http://www.w3.org/2000/svg"
   xmlns:sodipodi="http://sodipodi.sourceforge.net/DTD/sodipodi-0.dtd"
   xmlns:inkscape="http://www.inkscape.org/namespaces/inkscape"
   id="svg2"
   version="1.1"
   inkscape:version="0.91 r13725"
   xml:space="preserve"
   width="50.078125"
   height="61.497749"
   viewBox="0 0 50.078125 61.497749"
   sodipodi:docname="apple.svg"><metadata
     id="metadata8"><rdf:RDF><cc:Work
         rdf:about=""><dc:format>image/svg+xml</dc:format><dc:type
           rdf:resource="http://purl.org/dc/dcmitype/StillImage" /><dc:title></dc:title></cc:Work></rdf:RDF></metadata><defs
     id="defs6"><clipPath
       clipPathUnits="userSpaceOnUse"
       id="clipPath16"><path
         d="m 0,49.198 40.063,0 L 40.063,0 0,0 0,49.198 Z"
         id="path18"
         inkscape:connector-curvature="0" /></clipPath></defs><sodipodi:namedview
     pagecolor="#ffffff"
     bordercolor="#666666"
     borderopacity="1"
     objecttolerance="10"
     gridtolerance="10"
     guidetolerance="10"
     inkscape:pageopacity="0"
     inkscape:pageshadow="2"
     inkscape:window-width="1920"
     inkscape:window-height="1017"
     id="namedview4"
     showgrid="false"
     inkscape:zoom="3.8375388"
     inkscape:cx="-48.445536"
     inkscape:cy="30.748875"
     inkscape:window-x="-8"
     inkscape:window-y="-8"
     inkscape:window-maximized="1"
     inkscape:current-layer="g10" /><g
     id="g10"
     inkscape:groupmode="layer"
     inkscape:label="Vector Smart Object"
     transform="matrix(1.25,0,0,-1.25,0,61.49775)"><g
       id="g12"
       style="fill:#ff0000"><g
         id="g14"
         clip-path="url(#clipPath16)"
         style="fill:#ff0000"><g
           id="g20"
           transform="translate(33.4619,23.0547)"
           style="fill:#ff0000" /><g
           id="g24"
           transform="translate(27.2666,41.3428)"
           style="fill:#ff0000"><path
             id="path26"
             style="fill:#ff0000;fill-opacity:1;fill-rule:nonzero;stroke:none"
             d="M 0,0 C 1.715,2.082 2.877,4.976 2.562,7.855 0.086,7.755 -2.91,6.21 -4.687,4.13 -6.278,2.284 -7.671,-0.654 -7.298,-3.482 -4.537,-3.696 -1.721,-2.078 0,0 m 6.1953,-18.2881 c -0.062,6.232 5.082,9.222 5.312,9.372 -2.891,4.228 -7.395,4.808 -8.999,4.873 -3.829,0.39 -7.476,-2.256 -9.419,-2.256 -1.939,0 -4.941,2.199 -8.117,2.144 -4.178,-0.063 -8.029,-2.431 -10.179,-6.171 -4.339,-7.526 -1.11,-18.682 3.118,-24.791 2.067,-2.985 4.532,-6.346 7.765,-6.223 3.118,0.123 4.294,2.016 8.062,2.016 3.768,0 4.826,-2.016 8.123,-1.952 3.352,0.06 5.477,3.043 7.527,6.041 2.372,3.468 3.35,6.827 3.408,6.998 -0.073,0.033 -6.534,2.509 -6.601,9.949" /></g></g></g></g></svg>