<?xml version="1.0" encoding="UTF-8" standalone="no"?>
<!-- Created with Inkscape (http://www.inkscape.org/) -->

<svg
   xmlns:dc="http://purl.org/dc/elements/1.1/"
   xmlns:cc="http://creativecommons.org/ns#"
   xmlns:rdf="http://www.w3.org/1999/02/22-rdf-syntax-ns#"
   xmlns:svg="http://www.w3.org/2000/svg"
   xmlns="http://www.w3.org/2000/svg"
   xmlns:sodipodi="http://sodipodi.sourceforge.net/DTD/sodipodi-0.dtd"
   xmlns:inkscape="http://www.inkscape.org/namespaces/inkscape"
   id="svg2"
   version="1.1"
   inkscape:version="0.91 r13725"
   xml:space="preserve"
   width="565.65002"
   height="593.34003"
   viewBox="0 0 565.65002 593.34003"
   sodipodi:docname="avatar.svg"><metadata
     id="metadata8"><rdf:RDF><cc:Work
         rdf:about=""><dc:format>image/svg+xml</dc:format><dc:type
           rdf:resource="http://purl.org/dc/dcmitype/StillImage" /><dc:title></dc:title></cc:Work></rdf:RDF></metadata><defs
     id="defs6"><clipPath
       clipPathUnits="userSpaceOnUse"
       id="clipPath16"><path
         d="m 0,474.672 452.52,0 L 452.52,0 0,0 0,474.672 Z"
         id="path18"
         inkscape:connector-curvature="0" /></clipPath></defs><sodipodi:namedview
     pagecolor="#ffffff"
     bordercolor="#666666"
     borderopacity="1"
     objecttolerance="10"
     gridtolerance="10"
     guidetolerance="10"
     inkscape:pageopacity="0"
     inkscape:pageshadow="2"
     inkscape:window-width="1170"
     inkscape:window-height="769"
     id="namedview4"
     showgrid="false"
     inkscape:zoom="0.39774832"
     inkscape:cx="109.90949"
     inkscape:cy="296.67001"
     inkscape:window-x="552"
     inkscape:window-y="84"
     inkscape:window-maximized="0"
     inkscape:current-layer="g10" /><g
     id="g10"
     inkscape:groupmode="layer"
     inkscape:label="Vector Smart Object3"
     transform="matrix(1.25,0,0,-1.25,0,593.34)"><g
       id="g12"
       style="fill:none;fill-opacity:1;stroke:#000000;stroke-opacity:1"><g
         id="g14"
         clip-path="url(#clipPath16)"
         style="fill:none;fill-opacity:1;stroke:#000000;stroke-opacity:1"><g
           id="g20"
           transform="translate(293.7407,162.915)"
           style="fill:none;fill-opacity:1;stroke:#000000;stroke-opacity:1"><path
             id="path22"
             style="fill:none;stroke:#000000;stroke-width:20;stroke-linecap:butt;stroke-linejoin:miter;stroke-miterlimit:4;stroke-dasharray:none;stroke-opacity:1;fill-opacity:1"
             d="m 0,0 89.652,-48.884 c 26.128,-10.456 59.127,-35.373 59.127,-66.817 l 0,-10.143 0,-8.149 c 0,-10.316 -8.446,-18.922 -18.76,-18.922 l -395,0 c -10.314,0 -18.76,8.274 -18.76,18.592 l 0,8.154 0,10.137 c 0,31.447 32.999,56.36 59.127,66.818 l 88.652,46.882 m -48.811,153.37 c -2.067,50.233 13.736,120.791 65.582,135.809 70.636,42.427 168.269,-8.998 168.03,-112.313 0.163,-1.578 0.263,-15.422 0.377,-22.772 10.005,-17.629 10.493,-42.468 5.188,-62.55 C 50.18,73.195 41.252,57.269 27.825,49.575 0.488,-51.417 -135.922,-49.984 -162.912,49.563 c -2.913,1.656 -5.608,3.768 -8.097,6.156 -14.112,13.51 -21.004,35.043 -21.652,55.676 -0.414,13.106 1.564,28.192 7.888,39.643 z" /></g></g></g></g></svg>