<?xml version="1.0" encoding="UTF-8" standalone="no"?>
<svg
   xmlns:dc="http://purl.org/dc/elements/1.1/"
   xmlns:cc="http://creativecommons.org/ns#"
   xmlns:rdf="http://www.w3.org/1999/02/22-rdf-syntax-ns#"
   xmlns:svg="http://www.w3.org/2000/svg"
   xmlns="http://www.w3.org/2000/svg"
   xmlns:sodipodi="http://sodipodi.sourceforge.net/DTD/sodipodi-0.dtd"
   xmlns:inkscape="http://www.inkscape.org/namespaces/inkscape"
   height="15"
   id="Layer_1"
   version="1.1"
   viewBox="0 0 19.5 15"
   width="19.5"
   xml:space="preserve"
   inkscape:version="0.91 r13725"
   sodipodi:docname="camera.svg"><metadata
     id="metadata13"><rdf:RDF><cc:Work
         rdf:about=""><dc:format>image/svg+xml</dc:format><dc:type
           rdf:resource="http://purl.org/dc/dcmitype/StillImage" /><dc:title></dc:title></cc:Work></rdf:RDF></metadata><defs
     id="defs11" /><sodipodi:namedview
     pagecolor="#ffffff"
     bordercolor="#666666"
     borderopacity="1"
     objecttolerance="10"
     gridtolerance="10"
     guidetolerance="10"
     inkscape:pageopacity="0"
     inkscape:pageshadow="2"
     inkscape:window-width="1864"
     inkscape:window-height="902"
     id="namedview9"
     showgrid="false"
     fit-margin-top="0"
     fit-margin-left="0"
     fit-margin-right="0"
     fit-margin-bottom="0"
     inkscape:zoom="5.2149125"
     inkscape:cx="-62.101695"
     inkscape:cy="-1.076528"
     inkscape:window-x="0"
     inkscape:window-y="0"
     inkscape:window-maximized="0"
     inkscape:current-layer="Layer_1" /><g
     id="g3"
     transform="matrix(0.046875,0,0,0.046875,-2.25,-4.5)"
     style="fill:#000000"><path
       id="path7"
       d="m 256,202.9 c -38.6,0 -69.8,31.3 -69.8,70 0,38.6 31.2,70 69.8,70 38.5,0 69.8,-31.3 69.8,-70 0,-38.7 -31.3,-70 -69.8,-70 z m 174.4,-55.9 -67.5,0 -40.4,-40.8 c 0,0 -0.2,-0.2 -0.3,-0.2 l -0.2,-0.2 0,0 C 316,99.8 307.9,96 298.7,96 l -84,0 c -9.8,0 -18.5,4.2 -24.6,10.9 l 0,0.1 -39.5,40 -69,0 C 63,147 48,161.6 48,180.2 l 0,202.1 c 0,18.6 15,33.7 33.6,33.7 l 348.8,0 c 18.5,0 33.6,-15.1 33.6,-33.7 l 0,-202.1 C 464,161.6 448.9,147 430.4,147 Z M 256,365.5 c -50.9,0 -92.4,-41.6 -92.4,-92.6 0,-51.1 41.5,-92.6 92.4,-92.6 51,0 92.4,41.5 92.4,92.6 0,51 -41.4,92.6 -92.4,92.6 z m 168.1,-165 c -7.7,0 -14,-6.3 -14,-14.1 0,-7.8 6.3,-14.1 14,-14.1 7.7,0 14,6.3 14,14.1 0,7.8 -6.3,14.1 -14,14.1 z"
       style="fill:#000000"
       inkscape:connector-curvature="0" /></g></svg>