<?xml version="1.0" encoding="UTF-8" standalone="no"?>
<svg
   xmlns:dc="http://purl.org/dc/elements/1.1/"
   xmlns:cc="http://creativecommons.org/ns#"
   xmlns:rdf="http://www.w3.org/1999/02/22-rdf-syntax-ns#"
   xmlns:svg="http://www.w3.org/2000/svg"
   xmlns="http://www.w3.org/2000/svg"
   xmlns:sodipodi="http://sodipodi.sourceforge.net/DTD/sodipodi-0.dtd"
   xmlns:inkscape="http://www.inkscape.org/namespaces/inkscape"
   width="15px"
   height="12px"
   viewBox="0 0 15 12"
   id="svg2"
   version="1.1"
   inkscape:version="0.91 r13725"
   sodipodi:docname="envelope.svg">
  <metadata
     id="metadata14">
    <rdf:RDF>
      <cc:Work
         rdf:about="">
        <dc:format>image/svg+xml</dc:format>
        <dc:type
           rdf:resource="http://purl.org/dc/dcmitype/StillImage" />
        <dc:title></dc:title>
      </cc:Work>
    </rdf:RDF>
  </metadata>
  <defs
     id="defs12" />
  <sodipodi:namedview
     pagecolor="#ffffff"
     bordercolor="#666666"
     borderopacity="1"
     objecttolerance="10"
     gridtolerance="10"
     guidetolerance="10"
     inkscape:pageopacity="0"
     inkscape:pageshadow="2"
     inkscape:window-width="1493"
     inkscape:window-height="870"
     id="namedview10"
     showgrid="false"
     inkscape:zoom="19.666667"
     inkscape:cx="-0.71186441"
     inkscape:cy="6"
     inkscape:window-x="0"
     inkscape:window-y="0"
     inkscape:window-maximized="0"
     inkscape:current-layer="svg2" />
  <path
     id="path8"
     d="M 7.6,8 C 7.6,8 6.2,6.28 6.2,6.28 6.2,6.28 14.6,1 14.6,1 c 0,0 0.4,2 0.4,2 0,0 -7.4,5 -7.4,5 0,0 0,0 0,0 z M 7.2,7.95 C 7.2,7.95 0,2.67 0,2.67 c 0,0 1.54,-1.62 1.54,-1.62 0,0 7.2,5.28 7.2,5.28 0,0 -1.54,1.62 -1.54,1.62 0,0 0,0 0,0 z M 13,10 c 0,0 0,-8 0,-8 0,0 -11,0 -11,0 0,0 0,8 0,8 0,0 11,0 11,0 m 2,2 C 15,12 0,12 0,12 0,12 0,0 0,0 c 0,0 15,0 15,0 0,0 0,12 0,12 0,0 0,0 0,0 z" />
</svg>
