<?xml version="1.0" encoding="UTF-8" standalone="no"?>
<!-- Created with Inkscape (http://www.inkscape.org/) -->

<svg
   xmlns:dc="http://purl.org/dc/elements/1.1/"
   xmlns:cc="http://creativecommons.org/ns#"
   xmlns:rdf="http://www.w3.org/1999/02/22-rdf-syntax-ns#"
   xmlns:svg="http://www.w3.org/2000/svg"
   xmlns="http://www.w3.org/2000/svg"
   xmlns:sodipodi="http://sodipodi.sourceforge.net/DTD/sodipodi-0.dtd"
   xmlns:inkscape="http://www.inkscape.org/namespaces/inkscape"
   id="svg2"
   version="1.1"
   inkscape:version="0.91 r13725"
   xml:space="preserve"
   width="40"
   height="40"
   viewBox="0 0 40 40"
   sodipodi:docname="g+.svg"><metadata
     id="metadata8"><rdf:RDF><cc:Work
         rdf:about=""><dc:format>image/svg+xml</dc:format><dc:type
           rdf:resource="http://purl.org/dc/dcmitype/StillImage" /><dc:title></dc:title></cc:Work></rdf:RDF></metadata><defs
     id="defs6"><clipPath
       clipPathUnits="userSpaceOnUse"
       id="clipPath16"><path
         d="M 0,32 32,32 32,0 0,0 0,32 Z"
         id="path18"
         inkscape:connector-curvature="0" /></clipPath></defs><sodipodi:namedview
     pagecolor="#ffffff"
     bordercolor="#666666"
     borderopacity="1"
     objecttolerance="10"
     gridtolerance="10"
     guidetolerance="10"
     inkscape:pageopacity="0"
     inkscape:pageshadow="2"
     inkscape:window-width="1464"
     inkscape:window-height="605"
     id="namedview4"
     showgrid="false"
     inkscape:zoom="5.9"
     inkscape:cx="44.982593"
     inkscape:cy="20"
     inkscape:window-x="0"
     inkscape:window-y="0"
     inkscape:window-maximized="0"
     inkscape:current-layer="g10" /><g
     id="g10"
     inkscape:groupmode="layer"
     inkscape:label="Vector Smart Object4"
     transform="matrix(1.25,0,0,-1.25,0,40)"><g
       id="g12"><g
         id="g14"
         clip-path="url(#clipPath16)"><g
           id="g20"
           transform="translate(14.5166,13.252)" /><g
           id="g24"
           transform="translate(16.0449,20.7114)" /><g
           id="g28"
           transform="translate(27.1113,16.4741)"><path
             style="fill:#373536;fill-opacity:1;fill-rule:nonzero;stroke:none"
             d="M 0 0 L 0 40 L 40 40 L 40 0 L 0 0 z M 18.183594 6.25 L 25.150391 6.25 L 22.849609 7.6953125 L 20.658203 7.6953125 C 21.469453 8.3678125 23.167969 9.7854688 23.167969 12.480469 C 23.167969 15.102969 21.684219 16.346875 20.199219 17.515625 C 19.739219 17.975625 19.207031 18.470703 19.207031 19.251953 C 19.207031 20.029453 19.738203 20.454844 20.126953 20.777344 L 21.402344 21.765625 C 22.959844 23.076875 24.375 24.282969 24.375 26.730469 C 24.375 30.062969 21.153359 33.427734 15.068359 33.427734 C 9.9396094 33.427734 7.4648438 30.983125 7.4648438 28.359375 C 7.4648438 27.084375 8.1 25.279063 10.1875 24.039062 C 12.37875 22.690313 15.352813 22.514297 16.945312 22.404297 C 16.447813 21.766797 15.884766 21.092891 15.884766 19.994141 C 15.884766 19.392891 16.061328 19.040781 16.236328 18.613281 C 15.847578 18.650781 15.458516 18.683594 15.103516 18.683594 C 11.356016 18.683594 9.234375 15.882187 9.234375 13.117188 C 9.234375 11.488437 9.9748438 9.6796875 11.496094 8.3671875 C 13.513594 6.7021875 16.271094 6.25 18.183594 6.25 z M 15.601562 7.5878906 C 14.679063 7.5878906 13.690547 8.0497656 13.123047 8.7597656 C 12.520547 9.5047656 12.347656 10.459063 12.347656 11.382812 C 12.347656 13.756563 13.727031 17.691406 16.769531 17.691406 C 17.653281 17.691406 18.603125 17.267422 19.171875 16.701172 C 19.986875 15.882422 20.056641 14.750078 20.056641 14.111328 C 20.056641 11.558828 18.535313 7.5878906 15.601562 7.5878906 z M 28.582031 14.091797 L 30.333984 14.091797 L 30.333984 17.636719 L 33.888672 17.636719 L 33.888672 19.408203 L 30.333984 19.408203 L 30.333984 22.970703 L 28.582031 22.970703 L 28.582031 19.408203 L 25.044922 19.408203 L 25.044922 17.636719 L 28.582031 17.636719 L 28.582031 14.091797 z M 17.333984 23.398438 C 17.015234 23.398438 15.104141 23.466797 13.619141 23.966797 C 12.841641 24.249297 10.578125 25.099688 10.578125 27.617188 C 10.578125 30.133437 13.018984 31.945312 16.802734 31.945312 C 20.198984 31.945312 22.003906 30.309531 22.003906 28.113281 C 22.003906 26.302031 20.837734 25.348047 18.146484 23.435547 C 17.865234 23.399297 17.687734 23.398438 17.333984 23.398438 z "
             transform="matrix(0.8,0,0,-0.8,-27.1113,15.5259)"
             id="path30" /></g></g></g></g></svg>