<?xml version="1.0" encoding="UTF-8" standalone="no"?>
<!-- Generator: Adobe Illustrator 16.0.4, SVG Export Plug-In . SVG Version: 6.00 Build 0)  -->

<svg
   xmlns:dc="http://purl.org/dc/elements/1.1/"
   xmlns:cc="http://creativecommons.org/ns#"
   xmlns:rdf="http://www.w3.org/1999/02/22-rdf-syntax-ns#"
   xmlns:svg="http://www.w3.org/2000/svg"
   xmlns="http://www.w3.org/2000/svg"
   xmlns:sodipodi="http://sodipodi.sourceforge.net/DTD/sodipodi-0.dtd"
   xmlns:inkscape="http://www.inkscape.org/namespaces/inkscape"
   version="1.1"
   id="artwork"
   x="0px"
   y="0px"
   width="13.46524"
   height="15"
   viewBox="0 0 13.46524 15"
   enable-background="new 0 0 155 60"
   xml:space="preserve"
   inkscape:version="0.91 r13725"
   sodipodi:docname="g-play.svg"><metadata
     id="metadata67"><rdf:RDF><cc:Work
         rdf:about=""><dc:format>image/svg+xml</dc:format><dc:type
           rdf:resource="http://purl.org/dc/dcmitype/StillImage" /><dc:title></dc:title></cc:Work></rdf:RDF></metadata><defs
     id="defs65" /><sodipodi:namedview
     pagecolor="#ffffff"
     bordercolor="#666666"
     borderopacity="1"
     objecttolerance="10"
     gridtolerance="10"
     guidetolerance="10"
     inkscape:pageopacity="0"
     inkscape:pageshadow="2"
     inkscape:window-width="1467"
     inkscape:window-height="616"
     id="namedview63"
     showgrid="false"
     fit-margin-top="0"
     fit-margin-left="0"
     fit-margin-right="0"
     fit-margin-bottom="0"
     inkscape:zoom="2.4516129"
     inkscape:cx="6.7441052"
     inkscape:cy="12.862293"
     inkscape:window-x="210"
     inkscape:window-y="23"
     inkscape:window-maximized="0"
     inkscape:current-layer="artwork" /><g
     id="g3"
     transform="matrix(0.58316325,0,0,0.58316325,-11.64752,-9.9957137)"><g
       id="g5"><linearGradient
         id="SVGID_1_"
         gradientUnits="userSpaceOnUse"
         x1="31.8008"
         y1="183.291"
         x2="15.0188"
         y2="166.509"
         gradientTransform="matrix(1,0,0,-1,0,202)"><stop
           offset="0"
           style="stop-color:#00A0FF"
           id="stop8" /><stop
           offset="0.0066"
           style="stop-color:#00A1FF"
           id="stop10" /><stop
           offset="0.2601"
           style="stop-color:#00BEFF"
           id="stop12" /><stop
           offset="0.5122"
           style="stop-color:#00D2FF"
           id="stop14" /><stop
           offset="0.7604"
           style="stop-color:#00DFFF"
           id="stop16" /><stop
           offset="1"
           style="stop-color:#00E3FF"
           id="stop18" /></linearGradient><path
         d="m 20.436,17.538 c -0.291,0.308 -0.463,0.786 -0.463,1.405 l 0,22.116 c 0,0.62 0.172,1.097 0.463,1.405 l 0.074,0.072 12.389,-12.389 0,-0.146 0,-0.146 -12.389,-12.39 -0.074,0.073 z"
         id="path20"
         style="fill:url(#SVGID_1_)"
         inkscape:connector-curvature="0" /><linearGradient
         id="SVGID_2_"
         gradientUnits="userSpaceOnUse"
         x1="43.8335"
         y1="171.99899"
         x2="19.6376"
         y2="171.99899"
         gradientTransform="matrix(1,0,0,-1,0,202)"><stop
           offset="0"
           style="stop-color:#FFE000"
           id="stop23" /><stop
           offset="0.4087"
           style="stop-color:#FFBD00"
           id="stop25" /><stop
           offset="0.7754"
           style="stop-color:#FFA500"
           id="stop27" /><stop
           offset="1"
           style="stop-color:#FF9C00"
           id="stop29" /></linearGradient><path
         d="m 37.028,34.278 -4.129,-4.131 0,-0.146 0,-0.146 4.13,-4.13 0.093,0.053 4.893,2.78 c 1.397,0.794 1.397,2.093 0,2.888 l -4.893,2.78 -0.094,0.052 z"
         id="path31"
         style="fill:url(#SVGID_2_)"
         inkscape:connector-curvature="0" /><linearGradient
         id="SVGID_3_"
         gradientUnits="userSpaceOnUse"
         x1="34.828098"
         y1="169.70509"
         x2="12.0696"
         y2="146.94659"
         gradientTransform="matrix(1,0,0,-1,0,202)"><stop
           offset="0"
           style="stop-color:#FF3A44"
           id="stop34" /><stop
           offset="1"
           style="stop-color:#C31162"
           id="stop36" /></linearGradient><path
         d="M 37.122,34.225 32.898,30.001 20.436,42.464 c 0.46,0.488 1.221,0.548 2.078,0.062 l 14.608,-8.301"
         id="path38"
         style="fill:url(#SVGID_3_)"
         inkscape:connector-curvature="0" /><linearGradient
         id="SVGID_4_"
         gradientUnits="userSpaceOnUse"
         x1="17.2974"
         y1="191.8232"
         x2="27.4597"
         y2="181.6609"
         gradientTransform="matrix(1,0,0,-1,0,202)"><stop
           offset="0"
           style="stop-color:#32A071"
           id="stop41" /><stop
           offset="0.0685"
           style="stop-color:#2DA771"
           id="stop43" /><stop
           offset="0.4762"
           style="stop-color:#15CF74"
           id="stop45" /><stop
           offset="0.8009"
           style="stop-color:#06E775"
           id="stop47" /><stop
           offset="1"
           style="stop-color:#00F076"
           id="stop49" /></linearGradient><path
         d="m 37.122,25.777 -14.608,-8.3 c -0.857,-0.487 -1.618,-0.426 -2.078,0.062 l 12.463,12.463 4.223,-4.225 z"
         id="path51"
         style="fill:url(#SVGID_4_)"
         inkscape:connector-curvature="0" /><g
         id="g53"><path
           enable-background="new    "
           d="M 37.029,34.132 22.514,42.38 c -0.812,0.461 -1.538,0.43 -2.004,0.011 l 0,0 -0.074,0.074 0,0 0.074,0.072 0,0 c 0.466,0.42 1.192,0.451 2.004,-0.011 l 14.608,-8.3 -0.093,-0.094 z"
           id="path55"
           inkscape:connector-curvature="0"
           style="opacity:0.2" /><path
           enable-background="new    "
           d="M 20.436,42.318 C 20.145,42.01 19.973,41.532 19.973,40.913 l 0,0.146 c 0,0.619 0.172,1.097 0.463,1.405 L 20.51,42.39 20.436,42.318 Z"
           id="path57"
           inkscape:connector-curvature="0"
           style="opacity:0.12000002" /></g><path
         enable-background="new    "
         d="m 42.015,31.299 -4.986,2.833 0.093,0.093 4.893,-2.78 c 0.699,-0.397 1.048,-0.92 1.048,-1.443 l 0,0 c -0.059,0.473 -0.415,0.936 -1.048,1.297 z"
         id="path59"
         inkscape:connector-curvature="0"
         style="opacity:0.12000002" /><path
         enable-background="new    "
         d="m 22.514,17.623 19.501,11.08 c 0.634,0.36 0.989,0.824 1.048,1.298 l 0,0 c 0,-0.523 -0.349,-1.047 -1.048,-1.444 L 22.514,17.477 c -1.398,-0.794 -2.541,-0.134 -2.541,1.466 l 0,0.146 c 0,-1.6 1.143,-2.26 2.541,-1.466 z"
         id="path61"
         inkscape:connector-curvature="0"
         style="opacity:0.25;fill:#ffffff" /></g></g></svg>