<?xml version="1.0" encoding="UTF-8" standalone="no"?>
<!-- Created with Inkscape (http://www.inkscape.org/) -->

<svg
   xmlns:dc="http://purl.org/dc/elements/1.1/"
   xmlns:cc="http://creativecommons.org/ns#"
   xmlns:rdf="http://www.w3.org/1999/02/22-rdf-syntax-ns#"
   xmlns:svg="http://www.w3.org/2000/svg"
   xmlns="http://www.w3.org/2000/svg"
   xmlns:sodipodi="http://sodipodi.sourceforge.net/DTD/sodipodi-0.dtd"
   xmlns:inkscape="http://www.inkscape.org/namespaces/inkscape"
   id="svg2"
   version="1.1"
   inkscape:version="0.91 r13725"
   xml:space="preserve"
   width="26.424"
   height="27.179001"
   viewBox="0 0 26.424 27.179001"
   sodipodi:docname="g-simple.svg"><metadata
     id="metadata8"><rdf:RDF><cc:Work
         rdf:about=""><dc:format>image/svg+xml</dc:format><dc:type
           rdf:resource="http://purl.org/dc/dcmitype/StillImage" /><dc:title></dc:title></cc:Work></rdf:RDF></metadata><defs
     id="defs6"><clipPath
       clipPathUnits="userSpaceOnUse"
       id="clipPath16"><path
         d="m 0,21.743 21.139,0 L 21.139,0 0,0 0,21.743 Z"
         id="path18"
         inkscape:connector-curvature="0" /></clipPath></defs><sodipodi:namedview
     pagecolor="#ffffff"
     bordercolor="#666666"
     borderopacity="1"
     objecttolerance="10"
     gridtolerance="10"
     guidetolerance="10"
     inkscape:pageopacity="0"
     inkscape:pageshadow="2"
     inkscape:window-width="1294"
     inkscape:window-height="576"
     id="namedview4"
     showgrid="false"
     inkscape:zoom="8.6831742"
     inkscape:cx="-1.1260747"
     inkscape:cy="13.5895"
     inkscape:window-x="0"
     inkscape:window-y="0"
     inkscape:window-maximized="0"
     inkscape:current-layer="g10" /><g
     id="g10"
     inkscape:groupmode="layer"
     inkscape:label="Vector Smart Object7"
     transform="matrix(1.25,0,0,-1.25,0,27.179)"><g
       id="g12"><g
         id="g14"
         clip-path="url(#clipPath16)"><g
           id="g20"
           transform="translate(7.4702,1.1875)" /><g
           id="g24"
           transform="translate(18.2954,8.3662)"><path
             id="path26"
             style="fill:#373536;fill-opacity:1;fill-rule:nonzero;stroke:none"
             d="m 0,0 0,2.851 2.844,0 0,1.417 -2.844,0 0,2.835 -1.401,0 0,-2.835 -2.83,0 0,-1.417 2.83,0 L -1.401,0 0,0 Z m -10.8252,-7.1787 c -3.027,0 -4.979,1.448 -4.979,3.462 0,2.014 1.81,2.693 2.433,2.92 1.187,0.399 2.716,0.455 2.971,0.455 0.283,0 0.424,0 0.649,-0.029 2.153,-1.531 3.087,-2.294 3.087,-3.744 0,-1.756 -1.444,-3.064 -4.161,-3.064 m -0.027,11.403 c -2.435,0 -3.538,3.148 -3.538,5.047 0,0.739 0.14,1.502 0.622,2.098 0.453,0.568 1.244,0.937 1.982,0.937 2.347,0 3.564,-3.176 3.564,-5.218 0,-0.511 -0.056,-1.417 -0.707,-2.072 -0.455,-0.453 -1.217,-0.792 -1.923,-0.792 m 3.706,-3.26 -1.019,0.791 c -0.311,0.257 -0.736,0.598 -0.736,1.22 0,0.624 0.425,1.022 0.793,1.389 1.188,0.936 2.375,1.93 2.375,4.028 0,2.156 -1.358,3.29 -2.007,3.829 l 1.753,0 1.84,1.156 -5.574,0 c -1.53,0 -3.735,-0.362 -5.349,-1.695 -1.217,-1.049 -1.81,-2.496 -1.81,-3.799 0,-2.212 1.698,-4.454 4.696,-4.454 0.284,0 0.594,0.028 0.905,0.058 -0.14,-0.342 -0.281,-0.625 -0.281,-1.106 0,-0.879 0.451,-1.417 0.849,-1.927 -1.274,-0.088 -3.653,-0.23 -5.406,-1.308 -1.67,-0.992 -2.178,-2.437 -2.178,-3.457 0,-2.099 1.979,-4.055 6.082,-4.055 4.868,0 7.445,2.692 7.445,5.358 0,1.958 -1.132,2.923 -2.378,3.972" /></g></g></g></g></svg>