<?xml version="1.0" encoding="UTF-8" standalone="no"?>
<!-- Created with Inkscape (http://www.inkscape.org/) -->

<svg
   xmlns:dc="http://purl.org/dc/elements/1.1/"
   xmlns:cc="http://creativecommons.org/ns#"
   xmlns:rdf="http://www.w3.org/1999/02/22-rdf-syntax-ns#"
   xmlns:svg="http://www.w3.org/2000/svg"
   xmlns="http://www.w3.org/2000/svg"
   xmlns:sodipodi="http://sodipodi.sourceforge.net/DTD/sodipodi-0.dtd"
   xmlns:inkscape="http://www.inkscape.org/namespaces/inkscape"
   id="svg2"
   version="1.1"
   inkscape:version="0.91 r13725"
   xml:space="preserve"
   width="52.818626"
   height="52.237499"
   viewBox="0 0 52.818626 52.237499"
   sodipodi:docname="hand-bottom.svg"><metadata
     id="metadata8"><rdf:RDF><cc:Work
         rdf:about=""><dc:format>image/svg+xml</dc:format><dc:type
           rdf:resource="http://purl.org/dc/dcmitype/StillImage" /><dc:title /></cc:Work></rdf:RDF></metadata><defs
     id="defs6"><clipPath
       clipPathUnits="userSpaceOnUse"
       id="clipPath16"><path
         d="m 0,41.79 42.255,0 L 42.255,0 0,0 0,41.79 Z"
         id="path18"
         inkscape:connector-curvature="0" /></clipPath></defs><sodipodi:namedview
     pagecolor="#ffffff"
     bordercolor="#666666"
     borderopacity="1"
     objecttolerance="10"
     gridtolerance="10"
     guidetolerance="10"
     inkscape:pageopacity="0"
     inkscape:pageshadow="2"
     inkscape:window-width="1043"
     inkscape:window-height="627"
     id="namedview4"
     showgrid="false"
     inkscape:zoom="4.5178273"
     inkscape:cx="-7.2015732"
     inkscape:cy="26.11875"
     inkscape:window-x="704"
     inkscape:window-y="118"
     inkscape:window-maximized="0"
     inkscape:current-layer="g10" /><g
     id="g10"
     inkscape:groupmode="layer"
     inkscape:label="Vector Smart Object2"
     transform="matrix(1.25,0,0,-1.25,0,52.2375)"><g
       id="g12"
       style="fill:#000000;fill-opacity:1;stroke:none"><g
         id="g14"
         clip-path="url(#clipPath16)"
         style="fill:#000000;fill-opacity:1;stroke:none"><g
           id="g20"
           transform="translate(2.2402,39.0146)"
           style="fill:#000000;fill-opacity:1;stroke:none"><path
             id="path22"
             style="fill:#000000;fill-opacity:1;fill-rule:nonzero;stroke:none"
             d="M 0,0 C 1.037,1.377 4.625,0.001 13.625,0.5 17.994,0.742 22.874,3.042 27.812,2.75 39.438,2.063 40.625,-9.625 39.813,-22.187 39.675,-24.316 32.938,-21.75 27.312,-23.812 24.615,-24.802 35.276,-35.399 24.875,-39 23.25,-39.563 21.25,-23.375 11.563,-19.937 9,-14.688 8.375,-10.375 7.625,-6.75 5.312,-11.25 9.313,-21.687 8.25,-21.937 6.711,-22.3 1.907,-23.126 1.125,-22.25 -2.563,-18.119 -3.625,-4.812 0,0" /></g></g></g></g></svg>