<?xml version="1.0" encoding="UTF-8" standalone="no"?>
<!-- Created with Inkscape (http://www.inkscape.org/) -->

<svg
   xmlns:dc="http://purl.org/dc/elements/1.1/"
   xmlns:cc="http://creativecommons.org/ns#"
   xmlns:rdf="http://www.w3.org/1999/02/22-rdf-syntax-ns#"
   xmlns:svg="http://www.w3.org/2000/svg"
   xmlns="http://www.w3.org/2000/svg"
   xmlns:sodipodi="http://sodipodi.sourceforge.net/DTD/sodipodi-0.dtd"
   xmlns:inkscape="http://www.inkscape.org/namespaces/inkscape"
   id="svg2"
   version="1.1"
   inkscape:version="0.91 r13725"
   xml:space="preserve"
   width="49.881626"
   height="51.564377"
   viewBox="0 0 49.881626 51.564377"
   sodipodi:docname="hand-up.svg"><metadata
     id="metadata8"><rdf:RDF><cc:Work
         rdf:about=""><dc:format>image/svg+xml</dc:format><dc:type
           rdf:resource="http://purl.org/dc/dcmitype/StillImage" /><dc:title /></cc:Work></rdf:RDF></metadata><defs
     id="defs6"><clipPath
       clipPathUnits="userSpaceOnUse"
       id="clipPath16"><path
         d="m 0,41.251 39.905,0 L 39.905,0 0,0 0,41.251 Z"
         id="path18"
         inkscape:connector-curvature="0" /></clipPath></defs><sodipodi:namedview
     pagecolor="#ffffff"
     bordercolor="#666666"
     borderopacity="1"
     objecttolerance="10"
     gridtolerance="10"
     guidetolerance="10"
     inkscape:pageopacity="0"
     inkscape:pageshadow="2"
     inkscape:window-width="1305"
     inkscape:window-height="758"
     id="namedview4"
     showgrid="false"
     inkscape:zoom="4.5768031"
     inkscape:cx="-14.387949"
     inkscape:cy="25.782188"
     inkscape:window-x="463"
     inkscape:window-y="141"
     inkscape:window-maximized="0"
     inkscape:current-layer="g10" /><g
     id="g10"
     inkscape:groupmode="layer"
     inkscape:label="Vector Smart Object2"
     transform="matrix(1.25,0,0,-1.25,0,51.564375)"><g
       id="g12"
       style="fill:#000000;fill-opacity:1;stroke:none"><g
         id="g14"
         clip-path="url(#clipPath16)"
         style="fill:#000000;fill-opacity:1;stroke:none"><g
           id="g20"
           transform="translate(11.252,22.1748)"
           style="fill:#000000;fill-opacity:1;stroke:none"><path
             id="path22"
             style="fill:#000000;fill-opacity:1;fill-rule:nonzero;stroke:none"
             d="M 0,0 C 9.688,3.438 11.688,19.625 13.313,19.062 23.714,15.462 12.898,4.223 15.75,3.875 21.504,3.172 28.314,5.001 28.452,2.872 29.265,-9.69 28.062,-20.753 16.437,-21.44 11.499,-21.732 2.646,-19.088 1.5,-18.503 c -3.187,1.625 -3.875,9.063 -5.125,12.625 -1.562,-9.812 2.919,-16.267 2.188,-16.25 -1.337,0.03 -6.475,-0.259 -6.938,0.313 -3.405,4.207 -4.125,18.312 -0.313,22 C -7.671,1.168 -2.688,-0.06 0,0" /></g></g></g></g></svg>