<?xml version="1.0" encoding="UTF-8" standalone="no"?>
<svg
   xmlns:dc="http://purl.org/dc/elements/1.1/"
   xmlns:cc="http://creativecommons.org/ns#"
   xmlns:rdf="http://www.w3.org/1999/02/22-rdf-syntax-ns#"
   xmlns:svg="http://www.w3.org/2000/svg"
   xmlns="http://www.w3.org/2000/svg"
   xmlns:sodipodi="http://sodipodi.sourceforge.net/DTD/sodipodi-0.dtd"
   xmlns:inkscape="http://www.inkscape.org/namespaces/inkscape"
   enable-background="new 0 0 139 139"
   height="17.962423"
   id="Phone"
   version="1.1"
   viewBox="0 0 18 17.962424"
   width="18"
   xml:space="preserve"
   inkscape:version="0.91 r13725"
   sodipodi:docname="handset.svg"><metadata
     id="metadata9"><rdf:RDF><cc:Work
         rdf:about=""><dc:format>image/svg+xml</dc:format><dc:type
           rdf:resource="http://purl.org/dc/dcmitype/StillImage" /><dc:title></dc:title></cc:Work></rdf:RDF></metadata><defs
     id="defs7" /><sodipodi:namedview
     pagecolor="#ffffff"
     bordercolor="#666666"
     borderopacity="1"
     objecttolerance="10"
     gridtolerance="10"
     guidetolerance="10"
     inkscape:pageopacity="0"
     inkscape:pageshadow="2"
     inkscape:window-width="1920"
     inkscape:window-height="1017"
     id="namedview5"
     showgrid="false"
     fit-margin-top="0"
     fit-margin-left="0"
     fit-margin-right="0"
     fit-margin-bottom="0"
     inkscape:zoom="1.6978417"
     inkscape:cx="-19.191363"
     inkscape:cy="54.021017"
     inkscape:window-x="-8"
     inkscape:window-y="-8"
     inkscape:window-maximized="1"
     inkscape:current-layer="Phone" /><path
     id="path3"
     d="M 13.443359,0 C 10.542613,-0.0027 7.550583,2.1988661 5.234375,4.5800781 2.6185829,6.9651141 -0.00299252,10.24033 0,13.40625 c 0.07065664,3.09792 1.2594512,3.741442 2.40625,4.482422 0,0 0.6276938,0.264202 1.1738281,-0.210938 0.5459681,-0.47548 2.9414063,-2.86914 2.9414063,-2.86914 0,0 0.8510363,-0.709724 0.2636718,-1.496094 -0.4380711,-0.58603 -1.414148,-1.639038 -1.6503906,-1.892578 -8.313e-4,5e-4 0.938397,-1.7592194 1.7949219,-2.8007814 C 8.1988471,7.0756676 9.7651452,6.0437651 10.65625,5.5019531 l 0.761719,-0.4042969 c 0.151621,0.1413141 1.305539,1.2205011 1.93164,1.6875 0.786201,0.586866 1.496094,-0.2636718 1.496094,-0.2636718 0,0 2.394162,-2.3957703 2.869141,-2.9414063 C 18.190488,3.0344431 17.927734,2.40625 17.927734,2.40625 17.186754,1.259451 16.541612,0.071321 13.443359,0 Z"
     style="fill:#1a1a1a" /></svg>