<?xml version="1.0" encoding="UTF-8" standalone="no"?>
<!-- Created with Inkscape (http://www.inkscape.org/) -->

<svg
   xmlns:dc="http://purl.org/dc/elements/1.1/"
   xmlns:cc="http://creativecommons.org/ns#"
   xmlns:rdf="http://www.w3.org/1999/02/22-rdf-syntax-ns#"
   xmlns:svg="http://www.w3.org/2000/svg"
   xmlns="http://www.w3.org/2000/svg"
   xmlns:sodipodi="http://sodipodi.sourceforge.net/DTD/sodipodi-0.dtd"
   xmlns:inkscape="http://www.inkscape.org/namespaces/inkscape"
   id="svg2"
   version="1.1"
   inkscape:version="0.91 r13725"
   xml:space="preserve"
   width="40"
   height="40"
   viewBox="0 0 40 40"
   sodipodi:docname="inst.svg"><metadata
     id="metadata8"><rdf:RDF><cc:Work
         rdf:about=""><dc:format>image/svg+xml</dc:format><dc:type
           rdf:resource="http://purl.org/dc/dcmitype/StillImage" /><dc:title></dc:title></cc:Work></rdf:RDF></metadata><defs
     id="defs6"><clipPath
       clipPathUnits="userSpaceOnUse"
       id="clipPath20"><path
         d="M 0,32 32,32 32,0 0,0 0,32 Z"
         id="path22"
         inkscape:connector-curvature="0" /></clipPath></defs><sodipodi:namedview
     pagecolor="#ffffff"
     bordercolor="#666666"
     borderopacity="1"
     objecttolerance="10"
     gridtolerance="10"
     guidetolerance="10"
     inkscape:pageopacity="0"
     inkscape:pageshadow="2"
     inkscape:window-width="1424"
     inkscape:window-height="715"
     id="namedview4"
     showgrid="false"
     inkscape:zoom="5.9"
     inkscape:cx="-1.1016949"
     inkscape:cy="20"
     inkscape:window-x="0"
     inkscape:window-y="0"
     inkscape:window-maximized="0"
     inkscape:current-layer="g10" /><g
     id="g10"
     inkscape:groupmode="layer"
     inkscape:label="Vector Smart Object5"
     transform="matrix(1.25,0,0,-1.25,0,40)"><g
       id="g12"
       transform="translate(25.1777,21.1826)" /><g
       id="g16"><g
         id="g18"
         clip-path="url(#clipPath20)"><g
           id="g24"
           transform="translate(15.9736,11.8115)" /><g
           id="g28"
           transform="translate(22.5234,16.0264)" /><g
           id="g32"
           transform="translate(27.9502,18.4839)"><path
             id="path34"
             style="fill:#373536;fill-opacity:1;fill-rule:nonzero;stroke:none"
             d="m 0,0 0,-9.805 c 0,-2.552 -2.077,-4.628 -4.628,-4.628 l -14.694,0 c -2.552,0 -4.628,2.076 -4.628,4.628 l 0,9.805 0,4.888 c 0,2.552 2.076,4.628 4.628,4.628 l 14.693,0 C -2.077,9.516 -0.001,7.441 0,4.888 L 0,0 Z m -27.95,-18.484 32,0 0,32 -32,0 0,-32 z m 22.5232,16.0265 c 0,-3.61 -2.938,-6.55 -6.548,-6.55 -3.612,0 -6.549,2.94 -6.549,6.55 0,0.868 0.173,1.698 0.482,2.458 l -3.575,0 0,-9.806 c 0,-1.265 1.03,-2.294 2.295,-2.294 l 14.693,0 c 1.265,0 2.295,1.029 2.295,2.294 l 0,9.806 -3.576,0 c 0.309,-0.76 0.483,-1.59 0.483,-2.458 m -6.5498,-4.2149 c 2.322,0 4.217,1.89 4.217,4.215 0,0.918 -0.301,1.764 -0.798,2.457 -0.767,1.061 -2.012,1.757 -3.418,1.757 -1.406,0 -2.651,-0.696 -3.418,-1.757 -0.499,-0.693 -0.797,-1.539 -0.797,-2.457 0,-2.325 1.89,-4.215 4.214,-4.215 m 9.2041,9.3711 0,3.533 0,0.527 -0.529,-0.002 -3.531,-0.012 0.014,-4.059 4.046,0.013 z" /></g></g></g></g></svg>