<?xml version="1.0" encoding="UTF-8" standalone="no"?>
<!-- Created with Inkscape (http://www.inkscape.org/) -->

<svg
   xmlns:dc="http://purl.org/dc/elements/1.1/"
   xmlns:cc="http://creativecommons.org/ns#"
   xmlns:rdf="http://www.w3.org/1999/02/22-rdf-syntax-ns#"
   xmlns:svg="http://www.w3.org/2000/svg"
   xmlns="http://www.w3.org/2000/svg"
   xmlns:sodipodi="http://sodipodi.sourceforge.net/DTD/sodipodi-0.dtd"
   xmlns:inkscape="http://www.inkscape.org/namespaces/inkscape"
   id="svg2"
   version="1.1"
   inkscape:version="0.91 r13725"
   xml:space="preserve"
   width="29.93775"
   height="29.936501"
   viewBox="0 0 29.93775 29.936501"
   sodipodi:docname="inst-simple.svg"><metadata
     id="metadata8"><rdf:RDF><cc:Work
         rdf:about=""><dc:format>image/svg+xml</dc:format><dc:type
           rdf:resource="http://purl.org/dc/dcmitype/StillImage" /><dc:title></dc:title></cc:Work></rdf:RDF></metadata><defs
     id="defs6"><clipPath
       clipPathUnits="userSpaceOnUse"
       id="clipPath16"><path
         d="m 0,23.949 23.95,0 L 23.95,0 0,0 0,23.949 Z"
         id="path18"
         inkscape:connector-curvature="0" /></clipPath></defs><sodipodi:namedview
     pagecolor="#ffffff"
     bordercolor="#666666"
     borderopacity="1"
     objecttolerance="10"
     gridtolerance="10"
     guidetolerance="10"
     inkscape:pageopacity="0"
     inkscape:pageshadow="2"
     inkscape:window-width="1167"
     inkscape:window-height="594"
     id="namedview4"
     showgrid="false"
     inkscape:zoom="7.883353"
     inkscape:cx="14.256844"
     inkscape:cy="14.96825"
     inkscape:window-x="0"
     inkscape:window-y="0"
     inkscape:window-maximized="0"
     inkscape:current-layer="g10" /><g
     id="g10"
     inkscape:groupmode="layer"
     inkscape:label="Vector Smart Object6"
     transform="matrix(1.25,0,0,-1.25,0,29.9365)"><g
       id="g12"><g
         id="g14"
         clip-path="url(#clipPath16)"><g
           id="g20"
           transform="translate(21.6162,4.6279)"><path
             id="path22"
             transform="matrix(0.8,0,0,-0.8,-21.6162,19.3213)"
             style="fill:#292929;fill-opacity:1;fill-rule:nonzero;stroke:none"
             d="M 5.7851562,0 C 2.5951563,0 0,2.5951562 0,5.7851562 l 0,6.1093748 0,12.257813 c 0,3.19 2.5951563,5.785156 5.7851562,5.785156 l 18.3671878,0 c 3.18875,0 5.785156,-2.595156 5.785156,-5.785156 l 0,-12.257813 0,-6.1093748 C 29.93625,2.5939062 27.342344,0 24.152344,0 L 5.7851562,0 Z m 20.6874998,3.4472656 0,0.6582032 0,4.4160156 -5.05664,0.015625 -0.01758,-5.0722656 4.412109,-0.015625 0.662109,-0.00195 z M 14.96875,9.6992188 c 1.7575,0 3.313984,0.8690622 4.271484,2.1953122 0.62125,0.86625 0.998047,1.924766 0.998047,3.072266 0,2.9075 -2.367734,5.269531 -5.271484,5.269531 -2.90375,0 -5.2656251,-2.362031 -5.2656251,-5.269531 0,-1.1475 0.3703911,-2.206016 0.9941401,-3.072266 0.95875,-1.32625 2.514688,-2.1953122 4.273438,-2.1953122 z m -12.0527344,2.1953122 4.46875,0 c -0.38625,0.95 -0.6015625,1.987266 -0.6015625,3.072266 0,4.51375 3.6705469,8.1875 8.1855469,8.1875 4.5125,0 8.185547,-3.67375 8.185547,-8.1875 0,-1.085 -0.217266,-2.122266 -0.603516,-3.072266 l 4.46875,0 0,12.257813 c 0,1.5825 -1.285937,2.867187 -2.867187,2.867187 l -18.3671878,0 c -1.58125,0 -2.8691406,-1.284687 -2.8691406,-2.867187 l 0,-12.257813 z" /></g></g></g></g></svg>