<?xml version="1.0" encoding="UTF-8" standalone="no"?>
<!-- Created with Inkscape (http://www.inkscape.org/) -->

<svg
   xmlns:dc="http://purl.org/dc/elements/1.1/"
   xmlns:cc="http://creativecommons.org/ns#"
   xmlns:rdf="http://www.w3.org/1999/02/22-rdf-syntax-ns#"
   xmlns:svg="http://www.w3.org/2000/svg"
   xmlns="http://www.w3.org/2000/svg"
   xmlns:sodipodi="http://sodipodi.sourceforge.net/DTD/sodipodi-0.dtd"
   xmlns:inkscape="http://www.inkscape.org/namespaces/inkscape"
   id="svg2"
   version="1.1"
   inkscape:version="0.91 r13725"
   xml:space="preserve"
   width="22.499374"
   height="28.608376"
   viewBox="0 0 22.499374 28.608376"
   sodipodi:docname="jj-simple.svg"><metadata
     id="metadata8"><rdf:RDF><cc:Work
         rdf:about=""><dc:format>image/svg+xml</dc:format><dc:type
           rdf:resource="http://purl.org/dc/dcmitype/StillImage" /><dc:title></dc:title></cc:Work></rdf:RDF></metadata><defs
     id="defs6"><clipPath
       clipPathUnits="userSpaceOnUse"
       id="clipPath16"><path
         d="m 0,22.887 18,0 L 18,0 0,0 0,22.887 Z"
         id="path18"
         inkscape:connector-curvature="0" /></clipPath></defs><sodipodi:namedview
     pagecolor="#ffffff"
     bordercolor="#666666"
     borderopacity="1"
     objecttolerance="10"
     gridtolerance="10"
     guidetolerance="10"
     inkscape:pageopacity="0"
     inkscape:pageshadow="2"
     inkscape:window-width="1334"
     inkscape:window-height="723"
     id="namedview4"
     showgrid="false"
     inkscape:zoom="8.2493324"
     inkscape:cx="2.9510143"
     inkscape:cy="14.304188"
     inkscape:window-x="0"
     inkscape:window-y="0"
     inkscape:window-maximized="0"
     inkscape:current-layer="g10" /><g
     id="g10"
     inkscape:groupmode="layer"
     inkscape:label="Vector Smart Object11"
     transform="matrix(1.25,0,0,-1.25,0,28.608375)"><g
       id="g4150"><g
         id="g12"><g
           clip-path="url(#clipPath16)"
           id="g14"><g
             transform="translate(7.2793,21.2432)"
             id="g20"><path
               id="path22"
               transform="matrix(0.8,0,0,-0.8,-7.2793,1.6435)"
               style="fill:#292929;fill-opacity:1;fill-rule:nonzero;stroke:none"
               d="M 7.1953125,0.00390625 C 3.2164548,-0.1582486 -1.4439844,4.1205469 0.42578125,8.5273438 L 0.45507812,8.5996094 11.976562,23.875 22.5,28.607422 21.111328,16.101562 9.8242188,0.93359375 9.7519531,0.87890625 C 8.9949219,0.31546875 8.1135104,0.0413266 7.1953125,0.00390625 Z m 0.015625,1.24999995 c 0.4151025,0.025234 0.8157813,0.115 1.1875,0.2773438 l 0.5488281,0.3164062 0.1523438,0.2070313 c -3.37625,0.63625 -6.0639063,2.6275781 -7.5039063,5.9863281 L 1.5605469,7.9902344 1.3320312,7.2539062 c -0.6398437,-3.2035937 2.9731885,-6.1766406 5.8789063,-6 z M 9.9394531,3.1855469 11.455078,5.2207031 C 7.9400781,5.7569531 5.1185156,7.5921094 3.6660156,10.787109 L 2.4804688,9.2148438 C 3.7404687,5.6310938 6.4294531,3.6480469 9.9394531,3.1855469 Z M 12.3125,6.3710938 19.685547,16.285156 c -1.1125,0.855 -2.059219,1.234531 -2.917969,1.238282 C 15.845078,17.525937 14.960625,17.09 14.015625,16.1875 12.801875,13.965 10.396016,11.418438 7.7910156,7.8359375 9.0560156,7.0321875 10.585,6.5435937 12.3125,6.3710938 Z M 7.2773438,8.1914062 c 2.63875,3.6337498 4.9598432,6.0861718 6.1523442,8.2324218 l -0.03516,0.0332 c 0.0325,0.03625 0.07047,0.06875 0.105469,0.09375 0,0.005 0.0053,0.0092 0.0078,0.01172 1.09625,2.05375 1.088672,3.768281 -0.986328,5.957031 l -8.1230465,-10.761719 0.1875,0.06836 c 0.5825,-1.53 1.5014063,-2.7410157 2.6914063,-3.6347658 z M 19.9375,16.876953 l 0.736328,6.628906 -2.296875,1.876953 -5.404297,-2.429687 c 1.8625,-1.96875 2.229766,-3.675313 1.603516,-5.507813 0.7,0.45875 1.422656,0.705626 2.191406,0.703126 1.01,-0.0025 2.044922,-0.433985 3.169922,-1.271485 z" /></g></g></g></g></g></svg>