<?xml version="1.0" encoding="UTF-8" standalone="no"?>
<!-- Created with Inkscape (http://www.inkscape.org/) -->

<svg
   xmlns:dc="http://purl.org/dc/elements/1.1/"
   xmlns:cc="http://creativecommons.org/ns#"
   xmlns:rdf="http://www.w3.org/1999/02/22-rdf-syntax-ns#"
   xmlns:svg="http://www.w3.org/2000/svg"
   xmlns="http://www.w3.org/2000/svg"
   xmlns:sodipodi="http://sodipodi.sourceforge.net/DTD/sodipodi-0.dtd"
   xmlns:inkscape="http://www.inkscape.org/namespaces/inkscape"
   id="svg2"
   version="1.1"
   inkscape:version="0.91 r13725"
   xml:space="preserve"
   width="40"
   height="40"
   viewBox="0 0 40 40"
   sodipodi:docname="jj.svg"><metadata
     id="metadata8"><rdf:RDF><cc:Work
         rdf:about=""><dc:format>image/svg+xml</dc:format><dc:type
           rdf:resource="http://purl.org/dc/dcmitype/StillImage" /><dc:title></dc:title></cc:Work></rdf:RDF></metadata><defs
     id="defs6"><clipPath
       clipPathUnits="userSpaceOnUse"
       id="clipPath16"><path
         d="M 0,32 32,32 32,0 0,0 0,32 Z"
         id="path18"
         inkscape:connector-curvature="0" /></clipPath></defs><sodipodi:namedview
     pagecolor="#ffffff"
     bordercolor="#666666"
     borderopacity="1"
     objecttolerance="10"
     gridtolerance="10"
     guidetolerance="10"
     inkscape:pageopacity="0"
     inkscape:pageshadow="2"
     inkscape:window-width="1275"
     inkscape:window-height="710"
     id="namedview4"
     showgrid="false"
     inkscape:zoom="5.9"
     inkscape:cx="-1.1016949"
     inkscape:cy="20"
     inkscape:window-x="0"
     inkscape:window-y="0"
     inkscape:window-maximized="0"
     inkscape:current-layer="g10" /><g
     id="g10"
     inkscape:groupmode="layer"
     inkscape:label="Vector Smart Object10"
     transform="matrix(1.25,0,0,-1.25,0,40)"><g
       id="g12"><g
         id="g14"
         clip-path="url(#clipPath16)"><g
           id="g20"
           transform="translate(17.8066,13.749)" /><g
           id="g24"
           transform="translate(14.2798,25.3564)" /><g
           id="g28"
           transform="translate(18.2129,14.0498)" /><g
           id="g32"
           transform="translate(16.1641,22.8232)" /><g
           id="g36"
           transform="translate(16.5815,7.8994)" /><g
           id="g40"
           transform="translate(20.4141,12.4814)"><path
             id="path42"
             style="fill:#373536;fill-opacity:1;fill-rule:nonzero;stroke:none"
             d="m 0,0 c -0.615,-0.002 -1.193,0.195 -1.753,0.562 0.501,-1.466 0.208,-2.831 -1.282,-4.406 L 1.289,-5.788 3.125,-4.286 2.536,1.017 C 1.636,0.347 0.808,0.002 0,0 m -3.8326,-4.582 -9.217,12.221 -0.024,0.057 c -1.841,4.339 4.232,8.523 7.461,6.119 l 0.058,-0.043 9.029,-12.134 1.111,-10.006 -8.418,3.786 z m -16.582,-7.899 32,0 0,32 -32,0 0,-32 z m 16.1646,22.8228 -1.211,1.628 c -2.809,-0.37 -4.96,-1.957 -5.968,-4.823 l 0.948,-1.258 c 1.162,2.556 3.419,4.024 6.231,4.453 m 2.0488,-8.7734 c 0.756,-0.723 1.463,-1.07 2.201,-1.068 0.687,0.003 1.445,0.306 2.335,0.991 l -5.899,7.93 c -1.382,-0.139 -2.604,-0.528 -3.616,-1.171 2.083,-2.866 4.008,-4.905 4.979,-6.682 m -3.9331,11.3066 -0.122,0.166 -0.438,0.253 c -2.379,1.039 -6.239,-1.65 -5.654,-4.579 l 0.183,-0.589 0.028,-0.04 c 1.152,2.687 3.302,4.28 6.003,4.789 M -2.6075,1.2676 c -0.002,0.002 -0.007,0.007 -0.007,0.011 -0.028,0.019 -0.056,0.046 -0.083,0.074 l 0.028,0.027 c -0.954,1.718 -2.811,3.679 -4.921,6.585 -0.953,-0.715 -1.687,-1.683 -2.154,-2.908 l -0.151,0.056 6.499,-8.61 c 1.66,1.751 1.666,3.122 0.789,4.765" /></g></g></g></g></svg>