<?xml version="1.0" encoding="utf-8"?>
<svg xmlns="http://www.w3.org/2000/svg"
	xmlns:xlink="http://www.w3.org/1999/xlink"
	width="13px" height="13px" viewBox="0 0 13 13">
<filter filterUnits="objectBoundingBox" x="0.00" y="0.00" width="100.00" height="100.00" id="filter0">
<feFlood flood-color="rgb(205,37,13)" result="coFloodOut1"/>
<feComposite in="coFloodOut1" in2="SourceAlpha" operator="in" result="coOverlay1"/>
<feBlend in="coOverlay1" in2="SourceGraphic" mode="normal" result="colorOverlay1"/>
</filter>
<path fillRule="evenodd" d="M 12.99 12.26C 12.99 12.26 12.25 13 12.25 13 12.25 13 8.56 9.34 8.56 9.34 7.66 10.06 6.53 10.51 5.28 10.51 2.36 10.51 0 8.15 0 5.25 0 2.35 2.36-0 5.28-0 8.19-0 10.56 2.35 10.56 5.25 10.56 6.53 10.08 7.69 9.32 8.6 9.32 8.6 12.99 12.26 12.99 12.26ZM 5.28 0.98C 2.91 0.98 0.99 2.89 0.99 5.25 0.99 7.61 2.91 9.52 5.28 9.52 7.65 9.52 9.57 7.61 9.57 5.25 9.57 2.89 7.65 0.98 5.28 0.98Z" fill="rgb(179,179,179)" filter="url(#filter0)"/></svg>