<?xml version="1.0" encoding="UTF-8" standalone="no"?>
<!-- Created with Inkscape (http://www.inkscape.org/) -->

<svg
   xmlns:dc="http://purl.org/dc/elements/1.1/"
   xmlns:cc="http://creativecommons.org/ns#"
   xmlns:rdf="http://www.w3.org/1999/02/22-rdf-syntax-ns#"
   xmlns:svg="http://www.w3.org/2000/svg"
   xmlns="http://www.w3.org/2000/svg"
   xmlns:sodipodi="http://sodipodi.sourceforge.net/DTD/sodipodi-0.dtd"
   xmlns:inkscape="http://www.inkscape.org/namespaces/inkscape"
   id="svg2"
   version="1.1"
   inkscape:version="0.91 r13725"
   xml:space="preserve"
   width="25.01825"
   height="24.00325"
   viewBox="0 0 25.01825 24.00325"
   sodipodi:docname="mail-simple.svg"><metadata
     id="metadata8"><rdf:RDF><cc:Work
         rdf:about=""><dc:format>image/svg+xml</dc:format><dc:type
           rdf:resource="http://purl.org/dc/dcmitype/StillImage" /><dc:title></dc:title></cc:Work></rdf:RDF></metadata><defs
     id="defs6"><clipPath
       clipPathUnits="userSpaceOnUse"
       id="clipPath16"><path
         d="m 0,19.203 20.015,0 L 20.015,0 0,0 0,19.203 Z"
         id="path18"
         inkscape:connector-curvature="0" /></clipPath></defs><sodipodi:namedview
     pagecolor="#ffffff"
     bordercolor="#666666"
     borderopacity="1"
     objecttolerance="10"
     gridtolerance="10"
     guidetolerance="10"
     inkscape:pageopacity="0"
     inkscape:pageshadow="2"
     inkscape:window-width="1487"
     inkscape:window-height="682"
     id="namedview4"
     showgrid="false"
     inkscape:zoom="9.8320019"
     inkscape:cx="-0.15360677"
     inkscape:cy="12.001625"
     inkscape:window-x="0"
     inkscape:window-y="0"
     inkscape:window-maximized="0"
     inkscape:current-layer="g10" /><g
     id="g10"
     inkscape:groupmode="layer"
     inkscape:label="Vector Smart Object16"
     transform="matrix(1.25,0,0,-1.25,0,24.00325)"><g
       id="g12"><g
         id="g14"
         clip-path="url(#clipPath16)"><g
           id="g20"
           transform="translate(9.6602,15.2158)"><path
             id="path22"
             style="fill:#373536;fill-opacity:1;fill-rule:nonzero;stroke:none"
             d="m 0,0 c 1.529,0 2.968,-0.675 4.024,-1.734 l 0,-0.004 c 0,0.509 0.341,0.891 0.817,0.891 l 0.119,0 c 0.743,0 0.895,-0.702 0.895,-0.924 l 0.004,-7.903 c -0.052,-0.516 0.535,-0.784 0.86,-0.451 1.268,1.304 2.786,6.703 -0.789,9.831 C 2.598,2.622 -1.874,2.142 -4.251,0.502 -6.78,-1.241 -8.397,-5.1 -6.826,-8.724 c 1.713,-3.953 6.614,-5.13 9.527,-3.956 1.476,0.596 2.155,-1.398 0.625,-2.049 -2.315,-0.987 -8.758,-0.887 -11.767,4.327 -2.034,3.52 -1.926,9.713 3.467,12.922 C -0.848,4.976 4.592,4.296 7.871,0.87 11.299,-2.71 11.1,-9.416 7.755,-12.023 6.24,-13.207 3.989,-12.056 4.003,-10.33 L 3.988,-9.765 C 2.933,-10.812 1.529,-11.423 0,-11.423 c -3.022,0 -5.681,2.658 -5.681,5.681 C -5.681,-2.691 -3.022,0 0,0 M 3.805,-5.522 C 3.689,-3.311 2.047,-1.98 0.063,-1.98 l -0.074,0 c -2.289,0 -3.559,-1.8 -3.559,-3.845 0,-2.29 1.536,-3.735 3.55,-3.735 2.245,0 3.722,1.644 3.829,3.59 l -0.004,0.448 z" /></g></g></g></g></svg>