<?xml version="1.0" encoding="UTF-8" standalone="no"?>
<!-- Created with Inkscape (http://www.inkscape.org/) -->

<svg
   xmlns:dc="http://purl.org/dc/elements/1.1/"
   xmlns:cc="http://creativecommons.org/ns#"
   xmlns:rdf="http://www.w3.org/1999/02/22-rdf-syntax-ns#"
   xmlns:svg="http://www.w3.org/2000/svg"
   xmlns="http://www.w3.org/2000/svg"
   xmlns:sodipodi="http://sodipodi.sourceforge.net/DTD/sodipodi-0.dtd"
   xmlns:inkscape="http://www.inkscape.org/namespaces/inkscape"
   id="svg2"
   version="1.1"
   inkscape:version="0.91 r13725"
   xml:space="preserve"
   width="40"
   height="40"
   viewBox="0 0 40 40"
   sodipodi:docname="mail.svg"><metadata
     id="metadata8"><rdf:RDF><cc:Work
         rdf:about=""><dc:format>image/svg+xml</dc:format><dc:type
           rdf:resource="http://purl.org/dc/dcmitype/StillImage" /><dc:title></dc:title></cc:Work></rdf:RDF></metadata><defs
     id="defs6"><clipPath
       clipPathUnits="userSpaceOnUse"
       id="clipPath16"><path
         d="M 0,32 32,32 32,0 0,0 0,32 Z"
         id="path18"
         inkscape:connector-curvature="0" /></clipPath></defs><sodipodi:namedview
     pagecolor="#ffffff"
     bordercolor="#666666"
     borderopacity="1"
     objecttolerance="10"
     gridtolerance="10"
     guidetolerance="10"
     inkscape:pageopacity="0"
     inkscape:pageshadow="2"
     inkscape:window-width="1391"
     inkscape:window-height="707"
     id="namedview4"
     showgrid="false"
     inkscape:zoom="5.9"
     inkscape:cx="-1.1016949"
     inkscape:cy="20"
     inkscape:window-x="0"
     inkscape:window-y="0"
     inkscape:window-maximized="0"
     inkscape:current-layer="g10" /><g
     id="g10"
     inkscape:groupmode="layer"
     inkscape:label="Vector Smart Object12"
     transform="matrix(1.25,0,0,-1.25,0,40)"><g
       id="g12"><g
         id="g14"
         clip-path="url(#clipPath16)"><g
           id="g20"
           transform="translate(23.415,9.9902)" /><g
           id="g24"
           transform="translate(15.7236,20.0337)"><path
             id="path26"
             style="fill:#373536;fill-opacity:1;fill-rule:nonzero;stroke:none"
             d="m 0,0 -0.074,0 c -2.289,0 -3.559,-1.8 -3.559,-3.845 0,-2.29 1.535,-3.735 3.55,-3.735 2.244,0 3.722,1.644 3.828,3.59 L 3.741,-3.542 C 3.626,-1.331 1.983,0 0,0 m 7.6914,-10.0435 c -1.515,-1.184 -3.766,-0.032 -3.752,1.693 l -0.015,0.566 c -1.055,-1.047 -2.459,-1.658 -3.988,-1.658 -3.022,0 -5.681,2.658 -5.681,5.681 0,3.051 2.659,5.741 5.681,5.741 1.529,0 2.968,-0.675 4.025,-1.734 l 0,-0.004 c 0,0.509 0.34,0.892 0.816,0.892 l 0.119,0 c 0.743,0 0.896,-0.702 0.896,-0.924 l 0.003,-7.903 c -0.052,-0.517 0.535,-0.785 0.86,-0.452 1.268,1.304 2.786,6.704 -0.789,9.831 -3.332,2.917 -7.803,2.437 -10.181,0.797 -2.529,-1.743 -4.146,-5.602 -2.575,-9.226 1.713,-3.953 6.614,-5.131 9.527,-3.956 1.476,0.595 2.156,-1.399 0.625,-2.05 -2.315,-0.986 -8.758,-0.887 -11.767,4.327 -2.034,3.521 -1.926,9.713 3.467,12.922 4.126,2.456 9.566,1.776 12.845,-1.65 3.428,-3.58 3.229,-10.286 -0.116,-12.893 m -23.415,-9.99 32,0 0,32 -32,0 0,-32 z" />
             </g></g></g></g></svg>