<?xml version="1.0" encoding="UTF-8" standalone="no"?>
<!-- Created with Inkscape (http://www.inkscape.org/) -->

<svg
   xmlns:dc="http://purl.org/dc/elements/1.1/"
   xmlns:cc="http://creativecommons.org/ns#"
   xmlns:rdf="http://www.w3.org/1999/02/22-rdf-syntax-ns#"
   xmlns:svg="http://www.w3.org/2000/svg"
   xmlns="http://www.w3.org/2000/svg"
   xmlns:sodipodi="http://sodipodi.sourceforge.net/DTD/sodipodi-0.dtd"
   xmlns:inkscape="http://www.inkscape.org/namespaces/inkscape"
   id="svg2"
   version="1.1"
   inkscape:version="0.91 r13725"
   xml:space="preserve"
   width="230.3125"
   height="223.43726"
   viewBox="0 0 230.3125 223.43726"
   sodipodi:docname="nautilus.svg"><metadata
     id="metadata8"><rdf:RDF><cc:Work
         rdf:about=""><dc:format>image/svg+xml</dc:format><dc:type
           rdf:resource="http://purl.org/dc/dcmitype/StillImage" /><dc:title></dc:title></cc:Work></rdf:RDF></metadata><defs
     id="defs6"><clipPath
       clipPathUnits="userSpaceOnUse"
       id="clipPath20"><path
         d="m 0,178.75 184.25,0 L 184.25,0 0,0 0,178.75 Z"
         id="path22"
         inkscape:connector-curvature="0" /></clipPath></defs><sodipodi:namedview
     pagecolor="#ffffff"
     bordercolor="#666666"
     borderopacity="1"
     objecttolerance="10"
     gridtolerance="10"
     guidetolerance="10"
     inkscape:pageopacity="0"
     inkscape:pageshadow="2"
     inkscape:window-width="1306"
     inkscape:window-height="926"
     id="namedview4"
     showgrid="false"
     inkscape:zoom="1.0562238"
     inkscape:cx="-79.173067"
     inkscape:cy="295.156"
     inkscape:window-x="585"
     inkscape:window-y="11"
     inkscape:window-maximized="0"
     inkscape:current-layer="g10"
     fit-margin-top="0"
     fit-margin-left="0"
     fit-margin-right="0"
     fit-margin-bottom="0" /><g
     id="g10"
     inkscape:groupmode="layer"
     inkscape:label="Vector Smart Object13"
     transform="matrix(1.25,0,0,-1.25,200,40)"><path
       id="path64"
       style="fill:#000000;fill-opacity:1;fill-rule:nonzero;stroke:none"
       d="m 0,0 c 0,-2.899 -2.351,-5.25 -5.25,-5.25 -2.899,0 -5.25,2.351 -5.25,5.25 0,2.899 2.351,5.25 5.25,5.25 C -2.351,5.25 0,2.899 0,0 m -2.75,-106.5 -5.25,0 0,105.5 5.25,0 0,-105.5 z m 0,85 -26.5,0 5,7.125 -5,7.125 26.5,0 0,-14.25 z m -54.5,48.25 c 0,-2.899 -2.351,-5.25 -5.25,-5.25 -2.899,0 -5.25,2.351 -5.25,5.25 0,2.899 2.351,5.25 5.25,5.25 2.899,0 5.25,-2.351 5.25,-5.25 m -2.75,-129.5 -5.25,0 0,128.5 5.25,0 0,-128.5 z m 0,108 -26.5,0 5,7.125 -5,7.125 26.5,0 0,-14.25 z m -45.5,-1.5 c 0,-2.899 -2.351,-5.25 -5.25,-5.25 -2.899,0 -5.25,2.351 -5.25,5.25 0,2.899 2.351,5.25 5.25,5.25 2.899,0 5.25,-2.351 5.25,-5.25 m -2.75,-106.5 -5.25,0 0,105.5 5.25,0 0,-105.5 z m 0,85 -26.5,0 5,7.125 -5,7.125 26.5,0 0,-14.25 z m 132.5,-65.5 -50.5,0 c 0,0 -6,5.75 -6,20.25 0,14.5 6,26.25 6,26.25 l 50.5,0 c 0,0 -6,-12.75 -6,-26.25 0,-13.5 6,-20.25 6,-20.25 m -56.5,16 -50.5,0 c 0,0 -6,5.75 -6,20.25 0,14.5 6,26.25 6,26.25 l 50.5,0 c 0,0 -6,-12.75 -6,-26.25 0,-13.5 6,-20.25 6,-20.25 m -56.5,-10.25 -50.5,0 c 0,0 -6,5.75 -6,20.25 0,14.5 6,26.25 6,26.25 l 50.5,0 c 0,0 -6,-12.75 -6,-26.25 0,-13.5 6,-20.25 6,-20.25 m -71.25,-5.9998 52,-63.25 105.5,0 22.5,44 -150.5,0 -22.5,25.249 -7,-5.999 z"
       inkscape:connector-curvature="0" /></g></svg>