<?xml version="1.0" encoding="UTF-8" standalone="no"?>
<!-- Generator: Adobe Illustrator 19.1.0, SVG Export Plug-In . SVG Version: 6.00 Build 0)  -->

<svg
   xmlns:dc="http://purl.org/dc/elements/1.1/"
   xmlns:cc="http://creativecommons.org/ns#"
   xmlns:rdf="http://www.w3.org/1999/02/22-rdf-syntax-ns#"
   xmlns:svg="http://www.w3.org/2000/svg"
   xmlns="http://www.w3.org/2000/svg"
   xmlns:sodipodi="http://sodipodi.sourceforge.net/DTD/sodipodi-0.dtd"
   xmlns:inkscape="http://www.inkscape.org/namespaces/inkscape"
   version="1.1"
   id="Capa_1"
   x="0px"
   y="0px"
   viewBox="0 0 17 14.565359"
   xml:space="preserve"
   inkscape:version="0.91 r13725"
   sodipodi:docname="next.svg"
   width="17"
   height="14.565359"><metadata
     id="metadata41"><rdf:RDF><cc:Work
         rdf:about=""><dc:format>image/svg+xml</dc:format><dc:type
           rdf:resource="http://purl.org/dc/dcmitype/StillImage" /><dc:title></dc:title></cc:Work></rdf:RDF></metadata><defs
     id="defs39" /><sodipodi:namedview
     pagecolor="#ffffff"
     bordercolor="#666666"
     borderopacity="1"
     objecttolerance="10"
     gridtolerance="10"
     guidetolerance="10"
     inkscape:pageopacity="0"
     inkscape:pageshadow="2"
     inkscape:window-width="1003"
     inkscape:window-height="860"
     id="namedview37"
     showgrid="false"
     borderlayer="true"
     fit-margin-top="0"
     fit-margin-left="0"
     fit-margin-right="0"
     fit-margin-bottom="0"
     inkscape:zoom="21.887418"
     inkscape:cx="11.677106"
     inkscape:cy="5.4199353"
     inkscape:window-x="642"
     inkscape:window-y="83"
     inkscape:window-maximized="0"
     inkscape:current-layer="Capa_1" /><path
     id="path5"
     d="M 16.829289,6.2943741 9.3214646,0.10695488 c -0.139356,-0.1150333 -0.3344553,-0.1394 -0.498199,-0.062758 -0.1637436,0.076642 -0.268261,0.2438792 -0.268261,0.4250425 l 0,3.26094002 C 4.9108359,3.8626374 2.4059055,5.1481207 1.1029236,7.5555049 -0.01889512,9.6319132 -0.00844339,12.091558 0.00200834,13.718543 l 0,0.376253 c 0,0.212528 0.14284026,0.400662 0.35187481,0.456393 0.038323,0.0099 0.0801299,0.01417 0.11845288,0.01417 0.16722763,0 0.32400354,-0.08713 0.40761736,-0.236909 C 3.4232068,9.8446541 5.5170361,9.6286549 8.5515206,9.6181999 l 0,3.2504991 c 0,0.181149 0.1045174,0.348387 0.271745,0.425028 0.1672277,0.07664 0.3588428,0.05227 0.5016831,-0.06276 L 16.829289,7.0226541 C 16.937295,6.9321291 17,6.7996849 17,6.6603274 c 0,-0.1394 -0.06272,-0.27523 -0.170711,-0.3658117 z M 9.4956601,11.868632 c 0,-1.4e-5 1.08e-5,-5.3e-5 10e-8,-4.3e-5 z"
     inkscape:connector-curvature="0"
     style="fill:#0000ff"
     sodipodi:nodetypes="ccsscccscsccssccsccccc" /></svg>