<?xml version="1.0" encoding="UTF-8" standalone="no"?>
<!-- Created with Inkscape (http://www.inkscape.org/) -->

<svg
   xmlns:dc="http://purl.org/dc/elements/1.1/"
   xmlns:cc="http://creativecommons.org/ns#"
   xmlns:rdf="http://www.w3.org/1999/02/22-rdf-syntax-ns#"
   xmlns:svg="http://www.w3.org/2000/svg"
   xmlns="http://www.w3.org/2000/svg"
   xmlns:sodipodi="http://sodipodi.sourceforge.net/DTD/sodipodi-0.dtd"
   xmlns:inkscape="http://www.inkscape.org/namespaces/inkscape"
   id="svg2"
   version="1.1"
   inkscape:version="0.91 r13725"
   xml:space="preserve"
   width="17.463375"
   height="29.033251"
   viewBox="0 0 17.463375 29.033251"
   sodipodi:docname="ok-simple.svg"><metadata
     id="metadata8"><rdf:RDF><cc:Work
         rdf:about=""><dc:format>image/svg+xml</dc:format><dc:type
           rdf:resource="http://purl.org/dc/dcmitype/StillImage" /><dc:title></dc:title></cc:Work></rdf:RDF></metadata><defs
     id="defs6"><clipPath
       clipPathUnits="userSpaceOnUse"
       id="clipPath16"><path
         d="m 0,23.227 13.971,0 L 13.971,0 0,0 0,23.227 Z"
         id="path18"
         inkscape:connector-curvature="0" /></clipPath></defs><sodipodi:namedview
     pagecolor="#ffffff"
     bordercolor="#666666"
     borderopacity="1"
     objecttolerance="10"
     gridtolerance="10"
     guidetolerance="10"
     inkscape:pageopacity="0"
     inkscape:pageshadow="2"
     inkscape:window-width="1349"
     inkscape:window-height="631"
     id="namedview4"
     showgrid="false"
     inkscape:zoom="8.1286109"
     inkscape:cx="-6.5845825"
     inkscape:cy="14.516625"
     inkscape:window-x="0"
     inkscape:window-y="0"
     inkscape:window-maximized="0"
     inkscape:current-layer="g10" /><g
     id="g10"
     inkscape:groupmode="layer"
     inkscape:label="Vector Smart Object13"
     transform="matrix(1.25,0,0,-1.25,0,29.03325)"><g
       id="g12"><g
         id="g14"
         clip-path="url(#clipPath16)"><g
           id="g20"
           transform="translate(6.9858,20.2402)" /><g
           id="g24"
           transform="translate(11.29,11.0122)"><path
             id="path26"
             transform="matrix(0.8,0,0,-0.8,-11.29,12.2144)"
             style="fill:#373536;fill-opacity:1;fill-rule:nonzero;stroke:none"
             d="m 8.7324219,0 c -4.05875,0 -7.3476563,3.2908594 -7.3476563,7.3496094 0,4.0574996 3.2889063,7.3476566 7.3476563,7.3476566 4.0600001,0 7.3476561,-3.290157 7.3476561,-7.3476566 C 16.080078,3.2908594 12.792422,0 8.7324219,0 Z m 0,3.7324219 c 1.9975001,0 3.6132811,1.6184375 3.6132811,3.6171875 0,1.99625 -1.615781,3.6132816 -3.6132811,3.6132816 -1.99625,0 -3.6152344,-1.6170316 -3.6152344,-3.6132816 0,-1.99875 1.6189844,-3.6171875 3.6152344,-3.6171875 z M 1.8125,14.623047 c -0.7459961,-0.01705 -1.290625,0.449609 -1.55078125,0.970703 -0.7225,1.45125 0.09375,2.154844 1.93750005,3.339844 1.575,1.01125 3.7399218,1.386093 5.1386718,1.527344 l -1.1679687,1.167968 c -1.6425,1.6425 -3.2300782,3.228828 -4.3300781,4.330078 -0.6575001,0.65625 -0.6575001,1.72461 0,2.38086 l 0.1992187,0.199218 c 0.65875,0.65875 1.7265625,0.65875 2.3828125,0 l 4.3300781,-4.330078 c 1.6412499,1.6425 3.2295309,3.230079 4.3320309,4.330078 0.65375,0.65875 1.721407,0.65875 2.378907,0 l 0.199218,-0.199218 c 0.65875,-0.6575 0.65875,-1.72461 0,-2.38086 l -4.330078,-4.330078 -1.169922,-1.171875 c 1.39875,-0.14375 3.541016,-0.524844 5.103516,-1.527343 1.8425,-1.182501 2.659844,-1.884688 1.933594,-3.335938 -0.41,-0.83375 -1.558438,-1.528672 -3.085938,-0.326172 -2.06625,1.62625 -5.3808591,1.626953 -5.3808591,1.626953 0,0 -3.3151563,-7.03e-4 -5.3789063,-1.626953 C 2.7802344,14.816641 2.2600977,14.633279 1.8125,14.623047 Z" />
             </g></g></g></g></svg>