<?xml version="1.0" encoding="UTF-8" standalone="no"?>
<!-- Created with Inkscape (http://www.inkscape.org/) -->

<svg
   xmlns:dc="http://purl.org/dc/elements/1.1/"
   xmlns:cc="http://creativecommons.org/ns#"
   xmlns:rdf="http://www.w3.org/1999/02/22-rdf-syntax-ns#"
   xmlns:svg="http://www.w3.org/2000/svg"
   xmlns="http://www.w3.org/2000/svg"
   xmlns:sodipodi="http://sodipodi.sourceforge.net/DTD/sodipodi-0.dtd"
   xmlns:inkscape="http://www.inkscape.org/namespaces/inkscape"
   id="svg2"
   version="1.1"
   inkscape:version="0.91 r13725"
   xml:space="preserve"
   width="32"
   height="32"
   viewBox="0 0 32 32"
   sodipodi:docname="ok.svg"><metadata
     id="metadata8"><rdf:RDF><cc:Work
         rdf:about=""><dc:format>image/svg+xml</dc:format><dc:type
           rdf:resource="http://purl.org/dc/dcmitype/StillImage" /><dc:title></dc:title></cc:Work></rdf:RDF></metadata><defs
     id="defs6"><clipPath
       clipPathUnits="userSpaceOnUse"
       id="clipPath16"><path
         d="M 0,32 32,32 32,0 0,0 0,32 Z"
         id="path18"
         inkscape:connector-curvature="0" /></clipPath></defs><sodipodi:namedview
     pagecolor="#ffffff"
     bordercolor="#666666"
     borderopacity="1"
     objecttolerance="10"
     gridtolerance="10"
     guidetolerance="10"
     inkscape:pageopacity="0"
     inkscape:pageshadow="2"
     inkscape:window-width="1310"
     inkscape:window-height="893"
     id="namedview4"
     showgrid="false"
     inkscape:zoom="5.9"
     inkscape:cx="12.285856"
     inkscape:cy="-0.855"
     inkscape:window-x="601"
     inkscape:window-y="105"
     inkscape:window-maximized="0"
     inkscape:current-layer="svg2"
     fit-margin-top="0"
     fit-margin-left="0"
     fit-margin-right="0"
     fit-margin-bottom="0" /><path
     d="m 10.788,19.145 c 1.25,0.802 2.963,1.106 4.082,1.222 l -0.936,0.936 -3.464,3.465 c -0.527,0.524 -0.527,1.379 0,1.905 l 0.159,0.159 c 0.526,0.527 1.381,0.527 1.904,0 0.882,-0.88 2.151,-2.15 3.465,-3.464 l 3.465,3.464 c 0.525,0.527 1.379,0.527 1.906,0 l 0.159,-0.159 c 0.526,-0.525 0.526,-1.381 0,-1.905 -0.88,-0.881 -2.15,-2.15 -3.464,-3.464 L 17.13,20.37 c 1.118,-0.113 2.849,-0.414 4.11,-1.223 1.475,-0.948 2.129,-1.511 1.551,-2.672 -0.333,-0.667 -1.252,-1.222 -2.474,-0.26 -1.651,1.301 -4.303,1.301 -4.303,1.301 0,0 -2.651,0 -4.304,-1.301 -1.222,-0.962 -2.142,-0.407 -2.47,0.26 -0.581,1.161 0.073,1.724 1.548,2.67 M 16.014,4 c -3.247,0 -5.878,2.632 -5.878,5.879 0,3.246 2.631,5.878 5.878,5.878 3.247,0 5.878,-2.632 5.878,-5.878 C 21.892,6.632 19.261,4 16.014,4 M 32,32 0,32 0,0 32,0 32,32 Z M 16.0141,12.771 c -1.598,0 -2.891,-1.294 -2.891,-2.892 0,-1.598 1.293,-2.892 2.891,-2.892 1.597,0 2.892,1.294 2.892,2.892 0,1.598 -1.295,2.892 -2.892,2.892"
     id="path8"
     inkscape:connector-curvature="0" /></svg>