<?xml version="1.0" encoding="UTF-8" standalone="no"?>
<!-- Created with Inkscape (http://www.inkscape.org/) -->

<svg
   xmlns:dc="http://purl.org/dc/elements/1.1/"
   xmlns:cc="http://creativecommons.org/ns#"
   xmlns:rdf="http://www.w3.org/1999/02/22-rdf-syntax-ns#"
   xmlns:svg="http://www.w3.org/2000/svg"
   xmlns="http://www.w3.org/2000/svg"
   xmlns:sodipodi="http://sodipodi.sourceforge.net/DTD/sodipodi-0.dtd"
   xmlns:inkscape="http://www.inkscape.org/namespaces/inkscape"
   id="svg2"
   version="1.1"
   inkscape:version="0.91 r13725"
   xml:space="preserve"
   width="22.90909"
   height="12"
   viewBox="0 0 22.90909 12"
   sodipodi:docname="sofa.svg"><metadata
     id="metadata8"><rdf:RDF><cc:Work
         rdf:about=""><dc:format>image/svg+xml</dc:format><dc:type
           rdf:resource="http://purl.org/dc/dcmitype/StillImage" /><dc:title></dc:title></cc:Work></rdf:RDF></metadata><defs
     id="defs6"><clipPath
       clipPathUnits="userSpaceOnUse"
       id="clipPath16"><path
         d="M 0,11 21,11 21,0 0,0 0,11 Z"
         id="path18"
         inkscape:connector-curvature="0" /></clipPath></defs><sodipodi:namedview
     pagecolor="#ffffff"
     bordercolor="#666666"
     borderopacity="1"
     objecttolerance="10"
     gridtolerance="10"
     guidetolerance="10"
     inkscape:pageopacity="0"
     inkscape:pageshadow="2"
     inkscape:window-width="1276"
     inkscape:window-height="701"
     id="namedview4"
     showgrid="false"
     fit-margin-top="0"
     fit-margin-left="0"
     fit-margin-right="0"
     fit-margin-bottom="0"
     inkscape:zoom="14.47619"
     inkscape:cx="13.125"
     inkscape:cy="7.6818548"
     inkscape:window-x="0"
     inkscape:window-y="0"
     inkscape:window-maximized="0"
     inkscape:current-layer="g10" /><g
     id="g10"
     inkscape:groupmode="layer"
     inkscape:label="Vector Smart Object4"
     transform="matrix(1.25,0,0,-1.25,0,12)"><g
       id="g12"
       transform="scale(0.87272727,0.87272727)"><g
         id="g14"
         clip-path="url(#clipPath16)"><g
           id="g20"
           transform="translate(4,7.0005)" /><g
           id="g24"
           transform="translate(20,7)" /><g
           id="g28"
           transform="translate(16,4)" /><g
           id="g32"
           transform="translate(16,11)" /><path
           id="path36"
           style="fill:#000000;fill-opacity:1;fill-rule:nonzero;stroke:none"
           d="m 11,4 -1,0 0,6 1,0 0,-6 z m 5,7 -11,0 C 4.448,11 4,10.552 4,10 L 4,4 C 4,3.448 4.448,3 5,3 l 11,0 c 0.552,0 1,0.448 1,1 l 0,6 c 0,0.552 -0.448,1 -1,1 M 16,4 5,4 5,10 16,10 16,4 Z M 16,4 5,4 C 4.448,4 4,3.552 4,3 L 4,1 C 4,0.448 4.448,0 5,0 l 11,0 c 0.552,0 1,0.448 1,1 l 0,2 c 0,0.552 -0.448,1 -1,1 M 16,1 5,1 5,3 16,3 16,1 Z m 4,6 -3,0 C 16.448,7 16,6.552 16,6 l 0,-5 c 0,-0.552 0.448,-1 1,-1 l 3,0 c 0.552,0 1,0.448 1,1 l 0,5 c 0,0.552 -0.448,1 -1,1 m 0,-6 -3,0 0,5 3,0 0,-5 z m -16,6.0005 -3,0 c -0.552,0 -1,-0.448 -1,-1 l 0,-5 c 0,-0.552 0.448,-1 1,-1 l 3,0 c 0.552,0 1,0.448 1,1 l 0,5 c 0,0.552 -0.448,1 -1,1 m 0,-6 -3,0 0,5 3,0 0,-5 z" /></g></g></g></svg>