<?xml version ="1.0" encoding ="utf-8" ?>
<svg  version="1.1" xmlns="http://www.w3.org/2000/svg" baseProfile="full">

	<symbol id="health" viewBox="0 0 7.386741 6.7615458">
        <title>Сердце</title>
        <path d="M3.703 6.12l2.36-2.366.43-.43c.65-.653.65-1.713 0-2.366-.652-.654-1.71-.654-2.362 0l-.427.43-.428-.43c-.652-.654-1.71-.654-2.36 0C.26 1.61.26 2.67.914 3.325L3.702 6.12z"/>
    </symbol>

	<symbol id="loupe" viewBox="0 0 13.066881 13.16616">
		<title>Лупа</title>
		<g transform="translate(-430.45632,-429.10317)">
		<path  d="M 5.2988281 0.5 A 4.7982244 4.7982244 0 0 0 0.5 5.2988281 A 4.7982244 4.7982244 0 0 0 5.2988281 10.095703 A 4.7982244 4.7982244 0 0 0 10.095703 5.2988281 A 4.7982244 4.7982244 0 0 0 5.2988281 0.5 z M 8.7402344 8.8398438 L 12.712891 12.8125 L 8.7402344 8.8398438 z "
		   transform="translate(430.45632,429.10317)" />
		</g>
	</symbol>
	
	<symbol id="star" viewBox="0 0 17 16">
		<title>Звездочка</title>
		<path d="M 8.5-0C 8.5-0 10.54 5.8 10.54 5.8 10.54 5.8 16.99 5.84 16.99 5.84 16.99 5.84 12.01 9.75 12.01 9.75 12.01 9.75 13.97 16 13.97 16 13.97 16 8.5 12.28 8.5 12.28 8.5 12.28 3.03 16 3.03 16 3.03 16 4.87 9.67 4.87 9.67 4.87 9.67 0.01 5.84 0.01 5.84 0.01 5.84 6.46 5.8 6.46 5.8 6.46 5.8 8.5-0 8.5-0Z" />
	</symbol>
	
	<symbol id="nautilus" viewBox="0 0 230.3125 223.43726">
		<title>Кораблик</title>
		<g transform="matrix(1.25,0,0,-1.25,200,40)">
			<path d="m 0,0 c 0,-2.899 -2.351,-5.25 -5.25,-5.25 -2.899,0 -5.25,2.351 -5.25,5.25 0,2.899 2.351,5.25 5.25,5.25 C -2.351,5.25 0,2.899 0,0 m -2.75,-106.5 -5.25,0 0,105.5 5.25,0 0,-105.5 z m 0,85 -26.5,0 5,7.125 -5,7.125 26.5,0 0,-14.25 z m -54.5,48.25 c 0,-2.899 -2.351,-5.25 -5.25,-5.25 -2.899,0 -5.25,2.351 -5.25,5.25 0,2.899 2.351,5.25 5.25,5.25 2.899,0 5.25,-2.351 5.25,-5.25 m -2.75,-129.5 -5.25,0 0,128.5 5.25,0 0,-128.5 z m 0,108 -26.5,0 5,7.125 -5,7.125 26.5,0 0,-14.25 z m -45.5,-1.5 c 0,-2.899 -2.351,-5.25 -5.25,-5.25 -2.899,0 -5.25,2.351 -5.25,5.25 0,2.899 2.351,5.25 5.25,5.25 2.899,0 5.25,-2.351 5.25,-5.25 m -2.75,-106.5 -5.25,0 0,105.5 5.25,0 0,-105.5 z m 0,85 -26.5,0 5,7.125 -5,7.125 26.5,0 0,-14.25 z m 132.5,-65.5 -50.5,0 c 0,0 -6,5.75 -6,20.25 0,14.5 6,26.25 6,26.25 l 50.5,0 c 0,0 -6,-12.75 -6,-26.25 0,-13.5 6,-20.25 6,-20.25 m -56.5,16 -50.5,0 c 0,0 -6,5.75 -6,20.25 0,14.5 6,26.25 6,26.25 l 50.5,0 c 0,0 -6,-12.75 -6,-26.25 0,-13.5 6,-20.25 6,-20.25 m -56.5,-10.25 -50.5,0 c 0,0 -6,5.75 -6,20.25 0,14.5 6,26.25 6,26.25 l 50.5,0 c 0,0 -6,-12.75 -6,-26.25 0,-13.5 6,-20.25 6,-20.25 m -71.25,-5.9998 52,-63.25 105.5,0 22.5,44 -150.5,0 -22.5,25.249 -7,-5.999 z"
			    />
		</g>			  
	</symbol>
	
	<symbol id="city" viewBox="0 0 12.14286 12.27678">
		<title>Город</title>
		  <g  transform="translate(-163.03571,-525.84435)">
			<path  d="m 163.03571,531.33542 12.14286,-5.49107 -5.44643,12.27678 -0.26785,-6.47321 z"  />
		  </g>
	</symbol>
	
	<symbol id="x" viewBox="0 0 21.001022 21.000994" >
		<title>Крестик</title>
		<g transform="translate(-346.6418,-459.0051)">
		 <path 
		   d="m 347.64289,479.00399 0,1.00108 -1.00109,0 0,-1.00108 z m 1,-1.00391 0,1.00109 -1.00109,0 0,-1.00109 z m 1,-1 0,1.00109 -1.00109,0 0,-1.00109 z m 1,-1.00391 0,1.00109 -1.00109,0 0,-1.00109 z m 0.99737,-0.98852 0,1.00109 -1.00109,0 0,-1.00109 z m 1.00516,-0.99347 0,1.00109 -1.00109,0 0,-1.00109 z m 1,-1.00391 0,1.00109 -1.00109,0 0,-1.00109 z m 1,-1 0,1.00109 -1.00109,0 0,-1.00109 z m 1,-1.0039 0,1.00108 -1.00109,0 0,-1.00108 z m 0.99737,-0.98853 0,1.00109 -1.00108,0 0,-1.00109 z m 1,-1.00391 0,1.00109 -1.00108,0 0,-1.00109 z m 1,-1 0,1.00109 -1.00108,0 0,-1.00109 z m 1,-1.0039 0,1.00109 -1.00108,0 0,-1.00109 z m 1.00263,-0.99976 0,1.00109 -1.00109,0 0,-1.00109 z m 1,-1.0039 0,1.00108 -1.00109,0 0,-1.00108 z m 1,-1 0,1.00108 -1.00109,0 0,-1.00108 z m 1,-1.00391 0,1.00109 -1.00109,0 0,-1.00109 z m 0.99737,-0.98853 0,1.00109 -1.00108,0 0,-1.00109 z m 1,-1.0039 0,1.00109 -1.00108,0 0,-1.00109 z m 1,-1 0,1.00109 -1.00108,0 0,-1.00109 z m 1,-1.00391 0,1.00109 -1.00108,0 0,-1.00109 z m -1.0021,19.99888 1.00108,0 0,1.00109 -1.00108,0 z m -1.00391,-1 1.00109,0 0,1.00109 -1.00109,0 z m -1,-1 1.00109,0 0,1.00109 -1.00109,0 z m -1.00391,-1 1.00109,0 0,1.00109 -1.00109,0 z m -0.98852,-0.99737 1.00109,0 0,1.00109 -1.00109,0 z m -0.99347,-1.00516 1.00109,0 0,1.00109 -1.00109,0 z m -1.00391,-1 1.00109,0 0,1.00109 -1.00109,0 z m -1,-1 1.00109,0 0,1.00109 -1.00109,0 z m -1.0039,-1 1.00108,0 0,1.00109 -1.00108,0 z m -0.98853,-0.99737 1.00109,0 0,1.00108 -1.00109,0 z m -1.00391,-1 1.00109,0 0,1.00108 -1.00109,0 z m -1,-1 1.00109,0 0,1.00108 -1.00109,0 z m -1.0039,-1 1.00109,0 0,1.00108 -1.00109,0 z m -0.99976,-1.00263 1.00109,0 0,1.00109 -1.00109,0 z m -1.0039,-1 1.00108,0 0,1.00109 -1.00108,0 z m -1,-1 1.00108,0 0,1.00109 -1.00108,0 z m -1.00391,-1 1.00109,0 0,1.00109 -1.00109,0 z m -0.98853,-0.99737 1.00109,0 0,1.00108 -1.00109,0 z m -1.0039,-1 1.00109,0 0,1.00108 -1.00109,0 z m -1,-1 1.00109,0 0,1.00108 -1.00109,0 z m -1.00391,-1 1.00109,0 0,1.00108 -1.00109,0 z"
			/>
		</g>
	</symbol>
	
	<symbol id="envelope" viewBox="0 0 15 12">
		<title>Конверт</title>
		<path d="M 7.6,8 C 7.6,8 6.2,6.28 6.2,6.28 6.2,6.28 14.6,1 14.6,1 c 0,0 0.4,2 0.4,2 0,0 -7.4,5 -7.4,5 0,0 0,0 0,0 z M 7.2,7.95 C 7.2,7.95 0,2.67 0,2.67 c 0,0 1.54,-1.62 1.54,-1.62 0,0 7.2,5.28 7.2,5.28 0,0 -1.54,1.62 -1.54,1.62 0,0 0,0 0,0 z M 13,10 c 0,0 0,-8 0,-8 0,0 -11,0 -11,0 0,0 0,8 0,8 0,0 11,0 11,0 m 2,2 C 15,12 0,12 0,12 0,12 0,0 0,0 c 0,0 15,0 15,0 0,0 0,12 0,12 0,0 0,0 0,0 z" />
	</symbol>

	<symbol id="envelope2" viewBox="0 0 20 15">
        <title>Конверт2</title>
        <g transform="matrix(1.25,0,0,-1.25,0,15)">
            <g transform="translate(15,12)">
                <path d="m 0,0 -14,0 c -0.55,0 -1,-0.45 -1,-1 l 0,-0.758 8,-4.205 8,4.205 L 1,-1 C 1,-0.45 0.55,0 0,0 m -7,-8 c -0.266,0 -0.5,0.094 -1,0.336 l -7,3.664 0,-7 c 0,-0.55 0.45,-1 1,-1 l 14,0 c 0.55,0 1,0.45 1,1 l 0,7 -7,-3.664 C -6.5,-7.906 -6.734,-8 -7,-8" />
             </g>
        </g>
    </symbol>

	<symbol id="vk" viewBox="0 0 32 32" >
		<title>В контакте</title>
		<path  d="m 15.437,13.8726 c 0.346,-0.018 0.701,-0.112 1.068,-0.283 0.403,-0.187 0.68,-0.446 0.834,-0.779 0.152,-0.33 0.227,-0.715 0.227,-1.155 0,-0.322 -0.082,-0.653 -0.248,-0.994 -0.166,-0.34 -0.423,-0.586 -0.772,-0.739 -0.333,-0.143 -0.724,-0.221 -1.177,-0.235 -0.452,-0.013 -1.125,-0.02 -2.021,-0.02 l -0.349,0 0,0 0,4.232 0.631,0 c 0.859,0 1.462,-0.008 1.807,-0.027 m 1.8877,3.6674 c -0.304,-0.116 -0.723,-0.182 -1.256,-0.195 -0.534,-0.013 -1.247,-0.02 -2.143,-0.02 l -0.927,0 0,5.011 0.268,0 c 1.308,0 2.213,-0.01 2.715,-0.026 0.502,-0.018 1.01,-0.139 1.53,-0.362 0.459,-0.198 0.791,-0.488 1.001,-0.867 0.211,-0.381 0.317,-0.814 0.317,-1.299 0,-0.616 -0.125,-1.1 -0.377,-1.449 -0.251,-0.351 -0.626,-0.614 -1.128,-0.793 m 6.1123,4.958 c -0.376,0.752 -0.882,1.375 -1.519,1.868 -0.751,0.591 -1.577,1.011 -2.478,1.262 -0.899,0.251 -2.043,0.376 -3.431,0.376 L 8,26.004 8,6 15.068,6 c 1.469,0 2.581,0.056 3.34,0.168 0.756,0.112 1.464,0.348 2.128,0.705 0.715,0.385 1.25,0.9 1.605,1.545 0.355,0.645 0.53,1.389 0.53,2.23 0,0.976 -0.244,1.845 -0.731,2.606 -0.489,0.763 -1.162,1.322 -2.024,1.68 l 0,0.108 c 1.238,0.259 2.227,0.789 2.97,1.591 0.745,0.801 1.116,1.885 1.116,3.245 0,0.993 -0.189,1.867 -0.565,2.62 M 0,32 32,32 32,0 0,0 0,32 Z"  />		
	</symbol>

	<symbol id="vk-simple" viewBox="0 0 20.002501 25.004875" >
		<title>В контакте</title>
		<g transform="matrix(1.25,0,0,-1.25,0,25.004875)">
		<g transform="translate(10.5127,4.9229)">
		<path d="M 0,0 C -0.211,-0.379 -0.543,-0.669 -1.001,-0.867 -1.521,-1.09 -2.03,-1.211 -2.532,-1.229 -3.033,-1.245 -3.938,-1.255 -5.246,-1.255 l -0.268,0 0,5.011 0.926,0 c 0.896,0 1.61,-0.007 2.143,-0.02 C -1.911,3.723 -1.492,3.657 -1.188,3.541 -0.687,3.362 -0.312,3.099 -0.061,2.748 0.191,2.399 0.316,1.915 0.316,1.299 0.316,0.814 0.211,0.381 0,0 m -5.514,11.414 0.349,0 c 0.895,0 1.569,-0.007 2.021,-0.02 0.453,-0.014 0.844,-0.093 1.177,-0.235 0.349,-0.154 0.606,-0.399 0.772,-0.74 0.166,-0.34 0.248,-0.671 0.248,-0.994 0,-0.439 -0.075,-0.824 -0.227,-1.155 C -1.328,7.938 -1.605,7.679 -2.008,7.491 -2.375,7.32 -2.73,7.226 -3.076,7.208 -3.421,7.19 -4.024,7.182 -4.883,7.182 l -0.632,0 0,4.232 10e-4,0 z M 4.373,4.448 C 3.63,5.25 2.641,5.78 1.403,6.039 l 0,0.108 c 0.862,0.358 1.535,0.917 2.024,1.68 0.487,0.761 0.731,1.63 0.731,2.606 0,0.841 -0.176,1.585 -0.53,2.23 -0.356,0.645 -0.89,1.16 -1.606,1.545 -0.664,0.357 -1.372,0.593 -2.127,0.705 -0.759,0.112 -1.871,0.168 -3.34,0.168 l -7.068,0 0,-20.004 8.009,0 c 1.388,0 2.531,0.125 3.431,0.376 0.901,0.251 1.727,0.671 2.478,1.262 0.637,0.493 1.143,1.116 1.519,1.868 0.376,0.753 0.565,1.627 0.565,2.62 0,1.36 -0.371,2.444 -1.116,3.245" />
                     </g></g>
    </symbol>

	<symbol id="fb" viewBox="0 0 32 32" > 
		<title>Facebook</title>
		<path  d="m 0,0 0,32 12.704,0 0,-14.111 -3.704,0 0,-4.63 3.704,0 0,-2.778 C 12.704,6.667 14.856,4 18.259,4 l 3.704,0 0,4.63 -1.852,0 c -1.849,0 -2.778,0.926 -2.778,2.777 l 0,1.852 4.63,0 -0.927,4.63 -3.703,0 0,14.111 L 32,32 32,0 0,0 Z" />
	</symbol>

	<symbol id="fb-simple" viewBox="0 0 16.203625 35" >
		<title>Facebook</title>
		<g  transform="matrix(1.25,0,0,-1.25,0,35)">
		<g transform="translate(8.333,0)">
		<path
                     d="m 0,0 0,14.111 3.703,0 0.927,4.63 -4.63,0 0,1.852 c 0,1.851 0.929,2.777 2.778,2.777 l 1.852,0 0,4.63 -3.704,0 c -3.403,0 -5.555,-2.667 -5.555,-6.481 l 0,-2.778 -3.704,0 0,-4.63 3.704,0 L -4.629,0 0,0 Z"
                      /></g></g>
	</symbol>
	
	<symbol id="tw" viewBox="0 0 32 32" >
		<title>Twitter</title>
		<path d="m 24.624,12.578 c 0.008,0.194 0.013,0.39 0.013,0.585 C 24.637,19.125 20.099,26 11.8,26 9.252,26 6.879,25.253 4.884,23.974 c 0.352,0.043 0.712,0.063 1.076,0.063 2.115,0 4.06,-0.722 5.602,-1.931 -1.973,-0.038 -3.64,-1.343 -4.213,-3.134 0.275,0.052 0.556,0.08 0.848,0.08 0.412,0 0.811,-0.055 1.189,-0.157 C 7.321,18.48 5.767,16.657 5.767,14.47 c 0,-0.018 0,-0.038 0,-0.057 0.608,0.338 1.305,0.54 2.043,0.564 -1.21,-0.809 -2.006,-2.19 -2.006,-3.755 0,-0.828 0.222,-1.602 0.61,-2.269 2.226,2.729 5.55,4.526 9.3,4.714 -0.076,-0.33 -0.116,-0.674 -0.116,-1.028 0,-2.492 2.018,-4.512 4.51,-4.512 1.299,0 2.472,0.548 3.295,1.425 1.029,-0.202 1.993,-0.579 2.866,-1.095 -0.337,1.053 -1.053,1.937 -1.985,2.495 0.913,-0.107 1.783,-0.35 2.592,-0.709 -0.606,0.905 -1.37,1.699 -2.252,2.335 M 0,32 32,32 32,0 0,0 0,32 Z" />
	</symbol>

	<symbol id="tw-simple" viewBox="0 0 27.49025 22.341249" >
		<g transform="matrix(1.25,0,0,-1.25,0,22.34125)">
		<g transform="translate(21.9922,15.7578)">
			<path d="m 0,0 c -0.809,-0.359 -1.679,-0.602 -2.592,-0.709 0.932,0.557 1.648,1.441 1.985,2.494 -0.872,-0.515 -1.837,-0.893 -2.866,-1.094 -0.823,0.876 -1.996,1.424 -3.295,1.424 -2.492,0 -4.51,-2.019 -4.51,-4.511 0,-0.354 0.04,-0.699 0.116,-1.028 -3.75,0.188 -7.074,1.984 -9.3,4.714 -0.388,-0.667 -0.61,-1.442 -0.61,-2.269 0,-1.566 0.796,-2.946 2.006,-3.756 -0.738,0.024 -1.434,0.226 -2.043,0.564 0,-0.018 0,-0.038 0,-0.057 0,-2.186 1.554,-4.009 3.619,-4.424 -0.378,-0.103 -0.777,-0.158 -1.189,-0.158 -0.292,0 -0.573,0.029 -0.848,0.081 0.573,-1.792 2.24,-3.096 4.214,-3.134 -1.543,-1.209 -3.488,-1.932 -5.603,-1.932 -0.364,0 -0.724,0.021 -1.076,0.064 1.995,-1.28 4.368,-2.027 6.916,-2.027 8.299,0 12.837,6.875 12.837,12.838 0,0.195 -0.005,0.39 -0.013,0.585 C -1.37,-1.7 -0.606,-0.906 0,0" />
		 </g></g>
	</symbol>
	
	<symbol id="ok" viewBox="0 0 32 32" >
		<title>Одноклассники</title>
		<path d="m 10.788,19.145 c 1.25,0.802 2.963,1.106 4.082,1.222 l -0.936,0.936 -3.464,3.465 c -0.527,0.524 -0.527,1.379 0,1.905 l 0.159,0.159 c 0.526,0.527 1.381,0.527 1.904,0 0.882,-0.88 2.151,-2.15 3.465,-3.464 l 3.465,3.464 c 0.525,0.527 1.379,0.527 1.906,0 l 0.159,-0.159 c 0.526,-0.525 0.526,-1.381 0,-1.905 -0.88,-0.881 -2.15,-2.15 -3.464,-3.464 L 17.13,20.37 c 1.118,-0.113 2.849,-0.414 4.11,-1.223 1.475,-0.948 2.129,-1.511 1.551,-2.672 -0.333,-0.667 -1.252,-1.222 -2.474,-0.26 -1.651,1.301 -4.303,1.301 -4.303,1.301 0,0 -2.651,0 -4.304,-1.301 -1.222,-0.962 -2.142,-0.407 -2.47,0.26 -0.581,1.161 0.073,1.724 1.548,2.67 M 16.014,4 c -3.247,0 -5.878,2.632 -5.878,5.879 0,3.246 2.631,5.878 5.878,5.878 3.247,0 5.878,-2.632 5.878,-5.878 C 21.892,6.632 19.261,4 16.014,4 M 32,32 0,32 0,0 32,0 32,32 Z M 16.0141,12.771 c -1.598,0 -2.891,-1.294 -2.891,-2.892 0,-1.598 1.293,-2.892 2.891,-2.892 1.597,0 2.892,1.294 2.892,2.892 0,1.598 -1.295,2.892 -2.892,2.892"  /> 
	</symbol>

	<symbol id="ok-simple" viewBox="0 0 17.463375 29.033251" >
		<g transform="matrix(1.25,0,0,-1.25,0,29.03325)">
		<g transform="translate(11.29,11.0122)">
			<path transform="matrix(0.8,0,0,-0.8,-11.29,12.2144)" d="m 8.7324219,0 c -4.05875,0 -7.3476563,3.2908594 -7.3476563,7.3496094 0,4.0574996 3.2889063,7.3476566 7.3476563,7.3476566 4.0600001,0 7.3476561,-3.290157 7.3476561,-7.3476566 C 16.080078,3.2908594 12.792422,0 8.7324219,0 Z m 0,3.7324219 c 1.9975001,0 3.6132811,1.6184375 3.6132811,3.6171875 0,1.99625 -1.615781,3.6132816 -3.6132811,3.6132816 -1.99625,0 -3.6152344,-1.6170316 -3.6152344,-3.6132816 0,-1.99875 1.6189844,-3.6171875 3.6152344,-3.6171875 z M 1.8125,14.623047 c -0.7459961,-0.01705 -1.290625,0.449609 -1.55078125,0.970703 -0.7225,1.45125 0.09375,2.154844 1.93750005,3.339844 1.575,1.01125 3.7399218,1.386093 5.1386718,1.527344 l -1.1679687,1.167968 c -1.6425,1.6425 -3.2300782,3.228828 -4.3300781,4.330078 -0.6575001,0.65625 -0.6575001,1.72461 0,2.38086 l 0.1992187,0.199218 c 0.65875,0.65875 1.7265625,0.65875 2.3828125,0 l 4.3300781,-4.330078 c 1.6412499,1.6425 3.2295309,3.230079 4.3320309,4.330078 0.65375,0.65875 1.721407,0.65875 2.378907,0 l 0.199218,-0.199218 c 0.65875,-0.6575 0.65875,-1.72461 0,-2.38086 l -4.330078,-4.330078 -1.169922,-1.171875 c 1.39875,-0.14375 3.541016,-0.524844 5.103516,-1.527343 1.8425,-1.182501 2.659844,-1.884688 1.933594,-3.335938 -0.41,-0.83375 -1.558438,-1.528672 -3.085938,-0.326172 -2.06625,1.62625 -5.3808591,1.626953 -5.3808591,1.626953 0,0 -3.3151563,-7.03e-4 -5.3789063,-1.626953 C 2.7802344,14.816641 2.2600977,14.633279 1.8125,14.623047 Z" />
					 </g></g>
	</symbol>

	<symbol id="g" viewBox="0 0 40 40" >
		<title>Google+</title>
		<g transform="matrix(1.25,0,0,-1.25,0,40)">
			<g transform="translate(27.1113,16.4741)">
				<path d="M 0 0 L 0 40 L 40 40 L 40 0 L 0 0 z M 18.183594 6.25 L 25.150391 6.25 L 22.849609 7.6953125 L 20.658203 7.6953125 C 21.469453 8.3678125 23.167969 9.7854688 23.167969 12.480469 C 23.167969 15.102969 21.684219 16.346875 20.199219 17.515625 C 19.739219 17.975625 19.207031 18.470703 19.207031 19.251953 C 19.207031 20.029453 19.738203 20.454844 20.126953 20.777344 L 21.402344 21.765625 C 22.959844 23.076875 24.375 24.282969 24.375 26.730469 C 24.375 30.062969 21.153359 33.427734 15.068359 33.427734 C 9.9396094 33.427734 7.4648438 30.983125 7.4648438 28.359375 C 7.4648438 27.084375 8.1 25.279063 10.1875 24.039062 C 12.37875 22.690313 15.352813 22.514297 16.945312 22.404297 C 16.447813 21.766797 15.884766 21.092891 15.884766 19.994141 C 15.884766 19.392891 16.061328 19.040781 16.236328 18.613281 C 15.847578 18.650781 15.458516 18.683594 15.103516 18.683594 C 11.356016 18.683594 9.234375 15.882187 9.234375 13.117188 C 9.234375 11.488437 9.9748438 9.6796875 11.496094 8.3671875 C 13.513594 6.7021875 16.271094 6.25 18.183594 6.25 z M 15.601562 7.5878906 C 14.679063 7.5878906 13.690547 8.0497656 13.123047 8.7597656 C 12.520547 9.5047656 12.347656 10.459063 12.347656 11.382812 C 12.347656 13.756563 13.727031 17.691406 16.769531 17.691406 C 17.653281 17.691406 18.603125 17.267422 19.171875 16.701172 C 19.986875 15.882422 20.056641 14.750078 20.056641 14.111328 C 20.056641 11.558828 18.535313 7.5878906 15.601562 7.5878906 z M 28.582031 14.091797 L 30.333984 14.091797 L 30.333984 17.636719 L 33.888672 17.636719 L 33.888672 19.408203 L 30.333984 19.408203 L 30.333984 22.970703 L 28.582031 22.970703 L 28.582031 19.408203 L 25.044922 19.408203 L 25.044922 17.636719 L 28.582031 17.636719 L 28.582031 14.091797 z M 17.333984 23.398438 C 17.015234 23.398438 15.104141 23.466797 13.619141 23.966797 C 12.841641 24.249297 10.578125 25.099688 10.578125 27.617188 C 10.578125 30.133437 13.018984 31.945312 16.802734 31.945312 C 20.198984 31.945312 22.003906 30.309531 22.003906 28.113281 C 22.003906 26.302031 20.837734 25.348047 18.146484 23.435547 C 17.865234 23.399297 17.687734 23.398438 17.333984 23.398438 z " transform="matrix(0.8,0,0,-0.8,-27.1113,15.5259)" />
			</g>
		</g>
	</symbol>

	<symbol id="g-simple" viewBox="0 0 26.424 27.179001" >
		<title>Google+</title>
		<g transform="matrix(1.25,0,0,-1.25,0,27.179)">
		<g transform="translate(18.2954,8.3662)">
		<path  d="m 0,0 0,2.851 2.844,0 0,1.417 -2.844,0 0,2.835 -1.401,0 0,-2.835 -2.83,0 0,-1.417 2.83,0 L -1.401,0 0,0 Z m -10.8252,-7.1787 c -3.027,0 -4.979,1.448 -4.979,3.462 0,2.014 1.81,2.693 2.433,2.92 1.187,0.399 2.716,0.455 2.971,0.455 0.283,0 0.424,0 0.649,-0.029 2.153,-1.531 3.087,-2.294 3.087,-3.744 0,-1.756 -1.444,-3.064 -4.161,-3.064 m -0.027,11.403 c -2.435,0 -3.538,3.148 -3.538,5.047 0,0.739 0.14,1.502 0.622,2.098 0.453,0.568 1.244,0.937 1.982,0.937 2.347,0 3.564,-3.176 3.564,-5.218 0,-0.511 -0.056,-1.417 -0.707,-2.072 -0.455,-0.453 -1.217,-0.792 -1.923,-0.792 m 3.706,-3.26 -1.019,0.791 c -0.311,0.257 -0.736,0.598 -0.736,1.22 0,0.624 0.425,1.022 0.793,1.389 1.188,0.936 2.375,1.93 2.375,4.028 0,2.156 -1.358,3.29 -2.007,3.829 l 1.753,0 1.84,1.156 -5.574,0 c -1.53,0 -3.735,-0.362 -5.349,-1.695 -1.217,-1.049 -1.81,-2.496 -1.81,-3.799 0,-2.212 1.698,-4.454 4.696,-4.454 0.284,0 0.594,0.028 0.905,0.058 -0.14,-0.342 -0.281,-0.625 -0.281,-1.106 0,-0.879 0.451,-1.417 0.849,-1.927 -1.274,-0.088 -3.653,-0.23 -5.406,-1.308 -1.67,-0.992 -2.178,-2.437 -2.178,-3.457 0,-2.099 1.979,-4.055 6.082,-4.055 4.868,0 7.445,2.692 7.445,5.358 0,1.958 -1.132,2.923 -2.378,3.972" />
		</g></g>
	</symbol>

	<symbol id="inst" viewBox="0 0 40 40" >
    		<title>Instagramm</title>
    		<g transform="matrix(1.25,0,0,-1.25,0,40)">
    		<g transform="translate(27.9502,18.4839)">
    		<path d="m 0,0 0,-9.805 c 0,-2.552 -2.077,-4.628 -4.628,-4.628 l -14.694,0 c -2.552,0 -4.628,2.076 -4.628,4.628 l 0,9.805 0,4.888 c 0,2.552 2.076,4.628 4.628,4.628 l 14.693,0 C -2.077,9.516 -0.001,7.441 0,4.888 L 0,0 Z m -27.95,-18.484 32,0 0,32 -32,0 0,-32 z m 22.5232,16.0265 c 0,-3.61 -2.938,-6.55 -6.548,-6.55 -3.612,0 -6.549,2.94 -6.549,6.55 0,0.868 0.173,1.698 0.482,2.458 l -3.575,0 0,-9.806 c 0,-1.265 1.03,-2.294 2.295,-2.294 l 14.693,0 c 1.265,0 2.295,1.029 2.295,2.294 l 0,9.806 -3.576,0 c 0.309,-0.76 0.483,-1.59 0.483,-2.458 m -6.5498,-4.2149 c 2.322,0 4.217,1.89 4.217,4.215 0,0.918 -0.301,1.764 -0.798,2.457 -0.767,1.061 -2.012,1.757 -3.418,1.757 -1.406,0 -2.651,-0.696 -3.418,-1.757 -0.499,-0.693 -0.797,-1.539 -0.797,-2.457 0,-2.325 1.89,-4.215 4.214,-4.215 m 9.2041,9.3711 0,3.533 0,0.527 -0.529,-0.002 -3.531,-0.012 0.014,-4.059 4.046,0.013 z" />
            </g></g>
    </symbol>

    <symbol id="inst-simple" viewBox="0 0 29.93775 29.93650" >
		<title>Instagramm</title>
		<g transform="matrix(1.25,0,0,-1.25,0,29.9365)">
		<g transform="translate(21.6162,4.6279)">
		<path transform="matrix(0.8,0,0,-0.8,-21.6162,19.3213)" d="M 5.7851562,0 C 2.5951563,0 0,2.5951562 0,5.7851562 l 0,6.1093748 0,12.257813 c 0,3.19 2.5951563,5.785156 5.7851562,5.785156 l 18.3671878,0 c 3.18875,0 5.785156,-2.595156 5.785156,-5.785156 l 0,-12.257813 0,-6.1093748 C 29.93625,2.5939062 27.342344,0 24.152344,0 L 5.7851562,0 Z m 20.6874998,3.4472656 0,0.6582032 0,4.4160156 -5.05664,0.015625 -0.01758,-5.0722656 4.412109,-0.015625 0.662109,-0.00195 z M 14.96875,9.6992188 c 1.7575,0 3.313984,0.8690622 4.271484,2.1953122 0.62125,0.86625 0.998047,1.924766 0.998047,3.072266 0,2.9075 -2.367734,5.269531 -5.271484,5.269531 -2.90375,0 -5.2656251,-2.362031 -5.2656251,-5.269531 0,-1.1475 0.3703911,-2.206016 0.9941401,-3.072266 0.95875,-1.32625 2.514688,-2.1953122 4.273438,-2.1953122 z m -12.0527344,2.1953122 4.46875,0 c -0.38625,0.95 -0.6015625,1.987266 -0.6015625,3.072266 0,4.51375 3.6705469,8.1875 8.1855469,8.1875 4.5125,0 8.185547,-3.67375 8.185547,-8.1875 0,-1.085 -0.217266,-2.122266 -0.603516,-3.072266 l 4.46875,0 0,12.257813 c 0,1.5825 -1.285937,2.867187 -2.867187,2.867187 l -18.3671878,0 c -1.58125,0 -2.8691406,-1.284687 -2.8691406,-2.867187 l 0,-12.257813 z" />
		</g></g>
    </symbol>

	<symbol id="yt" viewBox="0 0 40 40" >
		<title>Youtube</title>
		<g transform="matrix(1.25,0,0,-1.25,0,40)">
		<g  transform="translate(27,15.8628)" >
		<path d="m 0,0 c 0,-1.898 -0.22,-3.797 -0.22,-3.797 0,0 -0.215,-1.618 -0.875,-2.328 -0.836,-0.933 -1.774,-0.937 -2.204,-0.994 -3.077,-0.235 -7.697,-0.244 -7.697,-0.244 0,0 -5.72,0.055 -7.478,0.237 -0.49,0.096 -1.588,0.068 -2.425,1.001 -0.661,0.712 -0.875,2.328 -0.875,2.328 0,0 -0.219,1.899 -0.219,3.798 l 0,1.779 c 0,1.899 0.219,3.796 0.219,3.796 0,0 0.216,1.618 0.875,2.33 0.837,0.933 1.773,0.94 2.203,0.992 3.078,0.239 7.693,0.239 7.693,0.239 l 0.01,0 c 0,0 4.617,0 7.694,-0.239 0.43,-0.052 1.368,-0.059 2.204,-0.992 0.66,-0.712 0.875,-2.33 0.875,-2.33 0,0 0.22,-1.897 0.22,-3.796 L 0,0 Z m -27,-15.863 32,0 0,32 -32,0 0,-32 z m 13.2568,12.6252 6.876,4.125 -6.876,4.125 0,-8.25 z" />
					 </g></g>
	</symbol>

	<symbol id="yt-simple" viewBox="0 0 27.491501 20.625" >
		<title>Youtube</title>
		<g transform="matrix(1.25,0,0,-1.25,0,20.625)">
		<g transform="translate(8.25,4.125)">
		<path d="M 0,0 0,8.25 6.876,4.125 0,0 Z m 13.523,8.813 c 0,0 -0.214,1.619 -0.875,2.331 -0.835,0.933 -1.774,0.939 -2.204,0.992 -3.077,0.239 -7.694,0.239 -7.694,0.239 l -0.01,0 c 0,0 -4.615,0 -7.693,-0.239 -0.43,-0.053 -1.366,-0.059 -2.203,-0.992 -0.658,-0.712 -0.875,-2.331 -0.875,-2.331 0,0 -0.219,-1.896 -0.219,-3.795 l 0,-1.779 c 0,-1.899 0.219,-3.799 0.219,-3.799 0,0 0.215,-1.615 0.875,-2.327 0.837,-0.933 1.935,-0.905 2.425,-1.002 1.758,-0.181 7.478,-0.236 7.478,-0.236 0,0 4.62,0.009 7.697,0.244 0.43,0.057 1.369,0.061 2.204,0.993 0.661,0.711 0.875,2.328 0.875,2.328 0,0 0.22,1.9 0.22,3.798 l 0,1.78 c 0,1.899 -0.22,3.795 -0.22,3.795" />
					 </g></g>
	</symbol>

	<symbol id="jj" viewBox="0 0 40 40">
		<g transform="matrix(1.25,0,0,-1.25,0,40)">
		<g transform="translate(20.4141,12.4814)">
			<path d="m 0,0 c -0.615,-0.002 -1.193,0.195 -1.753,0.562 0.501,-1.466 0.208,-2.831 -1.282,-4.406 L 1.289,-5.788 3.125,-4.286 2.536,1.017 C 1.636,0.347 0.808,0.002 0,0 m -3.8326,-4.582 -9.217,12.221 -0.024,0.057 c -1.841,4.339 4.232,8.523 7.461,6.119 l 0.058,-0.043 9.029,-12.134 1.111,-10.006 -8.418,3.786 z m -16.582,-7.899 32,0 0,32 -32,0 0,-32 z m 16.1646,22.8228 -1.211,1.628 c -2.809,-0.37 -4.96,-1.957 -5.968,-4.823 l 0.948,-1.258 c 1.162,2.556 3.419,4.024 6.231,4.453 m 2.0488,-8.7734 c 0.756,-0.723 1.463,-1.07 2.201,-1.068 0.687,0.003 1.445,0.306 2.335,0.991 l -5.899,7.93 c -1.382,-0.139 -2.604,-0.528 -3.616,-1.171 2.083,-2.866 4.008,-4.905 4.979,-6.682 m -3.9331,11.3066 -0.122,0.166 -0.438,0.253 c -2.379,1.039 -6.239,-1.65 -5.654,-4.579 l 0.183,-0.589 0.028,-0.04 c 1.152,2.687 3.302,4.28 6.003,4.789 M -2.6075,1.2676 c -0.002,0.002 -0.007,0.007 -0.007,0.011 -0.028,0.019 -0.056,0.046 -0.083,0.074 l 0.028,0.027 c -0.954,1.718 -2.811,3.679 -4.921,6.585 -0.953,-0.715 -1.687,-1.683 -2.154,-2.908 l -0.151,0.056 6.499,-8.61 c 1.66,1.751 1.666,3.122 0.789,4.765" />
		  </g></g>
	</symbol>

	<symbol id="jj-simple" viewBox="0 0 22.499374 28.608376">
		<g transform="matrix(1.25,0,0,-1.25,0,28.608375)">
		<g transform="translate(7.2793,21.2432)">
			<path transform="matrix(0.8,0,0,-0.8,-7.2793,1.6435)" d="M 7.1953125,0.00390625 C 3.2164548,-0.1582486 -1.4439844,4.1205469 0.42578125,8.5273438 L 0.45507812,8.5996094 11.976562,23.875 22.5,28.607422 21.111328,16.101562 9.8242188,0.93359375 9.7519531,0.87890625 C 8.9949219,0.31546875 8.1135104,0.0413266 7.1953125,0.00390625 Z m 0.015625,1.24999995 c 0.4151025,0.025234 0.8157813,0.115 1.1875,0.2773438 l 0.5488281,0.3164062 0.1523438,0.2070313 c -3.37625,0.63625 -6.0639063,2.6275781 -7.5039063,5.9863281 L 1.5605469,7.9902344 1.3320312,7.2539062 c -0.6398437,-3.2035937 2.9731885,-6.1766406 5.8789063,-6 z M 9.9394531,3.1855469 11.455078,5.2207031 C 7.9400781,5.7569531 5.1185156,7.5921094 3.6660156,10.787109 L 2.4804688,9.2148438 C 3.7404687,5.6310938 6.4294531,3.6480469 9.9394531,3.1855469 Z M 12.3125,6.3710938 19.685547,16.285156 c -1.1125,0.855 -2.059219,1.234531 -2.917969,1.238282 C 15.845078,17.525937 14.960625,17.09 14.015625,16.1875 12.801875,13.965 10.396016,11.418438 7.7910156,7.8359375 9.0560156,7.0321875 10.585,6.5435937 12.3125,6.3710938 Z M 7.2773438,8.1914062 c 2.63875,3.6337498 4.9598432,6.0861718 6.1523442,8.2324218 l -0.03516,0.0332 c 0.0325,0.03625 0.07047,0.06875 0.105469,0.09375 0,0.005 0.0053,0.0092 0.0078,0.01172 1.09625,2.05375 1.088672,3.768281 -0.986328,5.957031 l -8.1230465,-10.761719 0.1875,0.06836 c 0.5825,-1.53 1.5014063,-2.7410157 2.6914063,-3.6347658 z M 19.9375,16.876953 l 0.736328,6.628906 -2.296875,1.876953 -5.404297,-2.429687 c 1.8625,-1.96875 2.229766,-3.675313 1.603516,-5.507813 0.7,0.45875 1.422656,0.705626 2.191406,0.703126 1.01,-0.0025 2.044922,-0.433985 3.169922,-1.271485 z" />
	   </g></g>
	</symbol>

	<symbol id="mail" viewBox="0 0 40 40">
		<g transform="matrix(1.25,0,0,-1.25,0,40)">
		<g transform="translate(15.7236,20.0337)">
			<path d="m 0,0 -0.074,0 c -2.289,0 -3.559,-1.8 -3.559,-3.845 0,-2.29 1.535,-3.735 3.55,-3.735 2.244,0 3.722,1.644 3.828,3.59 L 3.741,-3.542 C 3.626,-1.331 1.983,0 0,0 m 7.6914,-10.0435 c -1.515,-1.184 -3.766,-0.032 -3.752,1.693 l -0.015,0.566 c -1.055,-1.047 -2.459,-1.658 -3.988,-1.658 -3.022,0 -5.681,2.658 -5.681,5.681 0,3.051 2.659,5.741 5.681,5.741 1.529,0 2.968,-0.675 4.025,-1.734 l 0,-0.004 c 0,0.509 0.34,0.892 0.816,0.892 l 0.119,0 c 0.743,0 0.896,-0.702 0.896,-0.924 l 0.003,-7.903 c -0.052,-0.517 0.535,-0.785 0.86,-0.452 1.268,1.304 2.786,6.704 -0.789,9.831 -3.332,2.917 -7.803,2.437 -10.181,0.797 -2.529,-1.743 -4.146,-5.602 -2.575,-9.226 1.713,-3.953 6.614,-5.131 9.527,-3.956 1.476,0.595 2.156,-1.399 0.625,-2.05 -2.315,-0.986 -8.758,-0.887 -11.767,4.327 -2.034,3.521 -1.926,9.713 3.467,12.922 4.126,2.456 9.566,1.776 12.845,-1.65 3.428,-3.58 3.229,-10.286 -0.116,-12.893 m -23.415,-9.99 32,0 0,32 -32,0 0,-32 z" />
		</g></g>
	</symbol>

	<symbol id="mail-simple" viewBox="0 0 25.01825 24.00325">
		<g transform="matrix(1.25,0,0,-1.25,0,24.00325)">
		<g transform="translate(9.6602,15.2158)">
			<path d="m 0,0 c 1.529,0 2.968,-0.675 4.024,-1.734 l 0,-0.004 c 0,0.509 0.341,0.891 0.817,0.891 l 0.119,0 c 0.743,0 0.895,-0.702 0.895,-0.924 l 0.004,-7.903 c -0.052,-0.516 0.535,-0.784 0.86,-0.451 1.268,1.304 2.786,6.703 -0.789,9.831 C 2.598,2.622 -1.874,2.142 -4.251,0.502 -6.78,-1.241 -8.397,-5.1 -6.826,-8.724 c 1.713,-3.953 6.614,-5.13 9.527,-3.956 1.476,0.596 2.155,-1.398 0.625,-2.049 -2.315,-0.987 -8.758,-0.887 -11.767,4.327 -2.034,3.52 -1.926,9.713 3.467,12.922 C -0.848,4.976 4.592,4.296 7.871,0.87 11.299,-2.71 11.1,-9.416 7.755,-12.023 6.24,-13.207 3.989,-12.056 4.003,-10.33 L 3.988,-9.765 C 2.933,-10.812 1.529,-11.423 0,-11.423 c -3.022,0 -5.681,2.658 -5.681,5.681 C -5.681,-2.691 -3.022,0 0,0 M 3.805,-5.522 C 3.689,-3.311 2.047,-1.98 0.063,-1.98 l -0.074,0 c -2.289,0 -3.559,-1.8 -3.559,-3.845 0,-2.29 1.536,-3.735 3.55,-3.735 2.245,0 3.722,1.644 3.829,3.59 l -0.004,0.448 z" />
		</g></g>
	</symbol>


	
	<symbol id="age0" viewBox="0 0 125.61875 125.42875" >
		<title>0+</title>
		<path  d="m 117.3525,55.6875 c 0,1.425 -0.66625,2.1875 -1.99625,2.1875 l -6.36625,0 0,-4.475 c 0,-3.325 -0.475,-5.0375 -3.325,-5.0375 l -2.85,0 c -2.85126,0 -3.32626,1.7125 -3.32626,5.0375 l 0,4.475 -4.46625,0 c -3.32625,0 -5.03625,0.475 -5.03625,3.325 l 0,3.0375 c 0,2.85 1.71,3.325 5.03625,3.325 l 4.46625,0 0,4.4625 c 0,3.325 0.475,5.0375 3.32626,5.0375 l 2.85,0 c 2.85,0 3.325,-1.7125 3.325,-5.0375 l 0,-4.4625 6.36625,0 c 1.23625,0 1.90125,0.6625 1.99625,1.9 l 0,14.45 c 0,3.5125 -1.04625,6.175 -3.51625,8.55 L 92.64624,113.65 c -2.47,2.4625 -5.22625,3.6125 -8.64625,3.6125 l -42.38,0 c -3.42125,0 -6.17625,-1.15 -8.6475,-3.6125 L 11.7825,92.4625 c -2.46875,-2.475 -3.61,-5.0375 -3.515,-8.55 L 8.2675,42 c 0,-3.5125 1.14,-6.55 3.705,-9.125 l 21.57124,-21.85 c 2.185,-2.1875 4.94,-2.85 8.07625,-2.85 l 42.38,0 c 3.135,0 5.89125,0.6625 8.07625,2.85 l 21.56876,21.85 c 2.4725,2.575 3.7075,5.6125 3.7075,9.125 l 0,13.6875 z M 97.87249,5.5125 C 94.16624,1.9 89.51124,0 83.90499,0 l -42.19,0 C 36.10874,0 31.35749,1.9 27.74749,5.5125 L 5.41625,27.75 C 1.90125,31.2625 0,35.925 0,41.05 L 0,83.9125 C 0,89.8 1.99625,94.3625 5.98625,98.25 l 21.19125,21.2 c 4.17999,4.175 8.83624,6.075 14.82249,5.975 l 41.62,0 c 5.795,0 10.54625,-1.7 14.8225,-5.975 l 21.19001,-21.2 c 3.89625,-3.8875 5.98625,-8.55 5.98625,-14.3375 l 0,-42.8625 c 0,-5.125 -1.9,-9.7875 -5.41625,-13.3 L 97.87249,5.5125 m -26.82375,64.05 c 0,9.7875 -0.38,13.875 -9.1225,13.875 -8.7425,0 -9.1225,-4 -9.1225,-13.6875 l 0,-13.1125 c 0,-9.7875 0.38,-13.875 9.1225,-13.875 8.7425,0 9.1225,3.9875 9.1225,13.6875 l 0,13.1125 z m -9.1225,-36.775 c -18.52875,0 -19.1,8.925 -19.1,33.1625 0,18.9125 2.09125,27.4625 19.1,27.4625 17.86375,0 19.1,-9.5 19.1,-30.6 0,-21 -1.23625,-30.025 -19.1,-30.025"  />
	</symbol>
	
	<symbol id="age6" viewBox="0 0 125.62 125.44039" >
		<title>6+</title>
		<path d="m 62.71125,83.7125 c -6.74625,0 -8.74125,-1.9 -8.74125,-7.5 l 0,-9.025 c 2.37625,-0.575 4.94125,-1.15 7.69625,-1.15 7.3175,0 8.9325,1.9 8.9325,8.55 0,6.0875 -0.855,9.125 -7.8875,9.125 z m 0.19125,-26.225 c -2.37625,0 -4.75125,0.1875 -7.2225,0.6625 -0.95,0.2 -1.71,-0.1875 -1.71,-1.325 l 0,-1.9 c 0,-8.9375 0.665,-12.1625 8.17125,-12.1625 6.46125,0 7.8875,0.375 7.8875,5.0375 0,1.9 1.33,2.475 3.51625,2.475 l 2.28,0 c 2.66125,0 3.70625,-0.675 3.70625,-3.2375 0,-11.2125 -4.845,-14.0625 -15.96375,-14.0625 -17.38875,0 -19.385,7.0375 -19.385,29.2625 0.095,21.475 -1.14,30.975 18.34,30.975 12.35375,0 17.86375,-4.075 17.86375,-19.7625 0,-12.925 -5.98625,-15.9625 -17.48375,-15.9625 m 54.45,-1.8 c 0,1.425 -0.665,2.1875 -1.995,2.1875 l -6.36625,0 0,-4.475 c 0,-3.325 -0.47625,-5.0375 -3.32625,-5.0375 l -2.85125,0 c -2.85,0 -3.325,1.7125 -3.325,5.0375 l 0,4.475 -4.46625,0 c -3.32625,0 -5.03625,0.475 -5.03625,3.325 l 0,3.0375 c 0,2.85 1.71,3.325 5.03625,3.325 l 4.46625,0 0,4.4625 c 0,3.325 0.475,5.0375 3.325,5.0375 l 2.85125,0 c 2.85,0 3.32625,-1.7125 3.32625,-5.0375 l 0,-4.4625 6.36625,0 c 1.235,0 1.9,0.6625 1.995,1.9 l 0,14.4375 c 0,3.525 -1.045,6.1875 -3.515,8.5625 l -21.19,21.1875 c -2.47125,2.4625 -5.22625,3.6125 -8.6475,3.6125 l -42.38,0 c -3.42,0 -6.175,-1.15 -8.64625,-3.6125 l -21.19,-21.1875 C 9.3125,89.9875 8.17375,87.425 8.2675,83.9 l 0,-41.9 c 0,-3.5125 1.14125,-6.55 3.70625,-9.125 L 33.5425,11.025 C 35.72875,8.8375 38.485,8.175 41.62,8.175 l 42.38,0 c 3.13625,0 5.8925,0.6625 8.0775,2.85 l 21.56875,21.85 c 2.47125,2.575 3.70625,5.6125 3.70625,9.125 l 0,13.6875 z M 97.8725,5.5125 C 94.16625,1.9 89.51125,0 83.905,0 L 41.71625,0 C 36.10875,0 31.3575,1.9 27.7475,5.5125 L 5.41625,27.75 C 1.90125,31.2625 0,35.925 0,41.05 L 0,83.9 c 0,5.9 1.99625,10.4625 5.98875,14.35 l 21.18875,21.2 c 4.18,4.175 8.83625,6.075 14.8225,5.9875 l 41.62,0 c 5.79625,0 10.54625,-1.7125 14.8225,-5.9875 l 21.19125,-21.2 C 123.53,94.3625 125.62,89.7 125.62,83.9 l 0,-42.85 c 0,-5.125 -1.90125,-9.7875 -5.41625,-13.3 L 97.8725,5.5125"  />
	</symbol>

	<symbol id="age12" viewBox="0 0 125.62 125.44039" >
		<title>12+</title>
		<path  d="m 85.705,51.875 c 0,-13.0125 -1.235,-19.1875 -17.19875,-19.1875 -11.1175,0 -15.9625,2.5625 -15.9625,14.0625 0,2.5625 1.045,3.225 3.705,3.225 l 2.28125,0 c 2.185,0 3.515,-0.375 3.515,-2.275 0,-4.75 1.805,-5.225 6.46125,-5.225 4.8475,0 7.22125,0.475 7.22125,7.225 0,10.35 -7.60125,10.6375 -14.6325,13.5875 -8.07625,3.4125 -9.3125,9.5875 -9.3125,18.525 l 0,5.7 c 0,4.175 1.80625,4.85 5.32125,4.85 l 23.09125,0 c 3.515,0 5.32125,-0.575 5.32125,-3.7125 l 0,-2.85 c 0,-2.9375 -1.80625,-3.5125 -5.32125,-3.5125 l -16.81875,0 c -1.33125,0 -1.7125,-0.6625 -1.7125,-2.1875 l 0,-3.1375 c 0,-10.1625 24.04125,-3.8 24.04125,-25.0875 m 31.64625,3.8125 c 0,1.425 -0.665,2.1875 -1.995,2.1875 l -6.36625,0 0,-4.475 c 0,-3.325 -0.47625,-5.0375 -3.32625,-5.0375 l -2.85125,0 c -2.85,0 -3.32625,1.7125 -3.32625,5.0375 l 0,4.475 -4.465,0 c -3.325,0 -5.03625,0.475 -5.03625,3.325 l 0,3.0375 c 0,2.85 1.71125,3.325 5.03625,3.325 l 4.465,0 0,4.4625 c 0,3.325 0.47625,5.0375 3.32625,5.0375 l 2.85125,0 c 2.85,0 3.32625,-1.7125 3.32625,-5.0375 l 0,-4.4625 6.36625,0 c 1.235,0 1.9,0.6625 1.995,1.9 l 0,14.4375 c 0,3.525 -1.04625,6.1875 -3.51625,8.5625 L 92.64625,113.65 C 90.175,116.1125 87.41875,117.2625 84,117.2625 l -42.38125,0 c -3.42,0 -6.17625,-1.15 -8.64625,-3.6125 L 11.7825,92.4625 C 9.3125,89.9875 8.17125,87.425 8.26625,83.9 l 0,-41.9 c 0,-3.5125 1.14125,-6.55 3.70625,-9.125 l 21.57,-21.85 c 2.185,-2.1875 4.94125,-2.85 8.07625,-2.85 L 84,8.175 c 3.135,0 5.89,0.6625 8.07625,2.85 l 21.56875,21.85 c 2.47,2.575 3.70625,5.6125 3.70625,9.125 l 0,13.6875 z M 97.87,5.5125 C 94.16625,1.9 89.51125,0 83.9025,0 L 41.71375,0 C 36.1075,0 31.35625,1.9 27.74625,5.5125 L 5.415,27.75 C 1.9,31.2625 0,35.925 0,41.05 L 0,83.9 c 0,5.9 1.99625,10.4625 5.985,14.35 l 21.19125,21.2 c 4.18,4.175 8.83625,6.075 14.82375,5.9875 l 41.62,0 c 5.79625,0 10.54625,-1.7125 14.82125,-5.9875 l 21.19125,-21.2 c 3.895,-3.8875 5.9875,-8.55 5.9875,-14.35 l 0,-42.85 c 0,-5.125 -1.9025,-9.7875 -5.4175,-13.3 L 97.87,5.5125 m -57.93,28.5125 -8.6475,0 c -3.325,0 -5.03625,0.5625 -5.03625,3.325 l 0,3.1375 c 0,2.75 1.71125,3.325 5.03625,3.325 l 1.99625,0 c 1.235,0 1.805,0.6625 1.805,2.5625 l 0,41.05 c 0,3.325 0.57,5.0375 3.32625,5.0375 l 3.23,0 c 2.75625,0 3.32625,-1.7125 3.32625,-5.0375 l 0,-50.075 c 0,-2.7625 -1.71125,-3.325 -5.03625,-3.325"  />
	</symbol>
	
	<symbol id="age16" viewBox="0 0 125.62 125.42874" >
		<title>16+</title>
		<path d="m 117.3525,55.687496 c 0,1.4125 -0.66625,2.175 -1.99625,2.175 l -6.36625,0 0,-4.4625 c 0,-3.325 -0.47625,-5.0375 -3.32625,-5.0375 l -2.85,0 c -2.85125,0 -3.32625,1.7125 -3.32625,5.0375 l 0,4.4625 -4.46625,0 c -3.325,0 -5.03625,0.475 -5.03625,3.325 l 0,3.05 c 0,2.85 1.71125,3.325 5.03625,3.325 l 4.46625,0 0,4.4625 c 0,3.325 0.475,5.0375 3.32625,5.0375 l 2.85,0 c 2.85,0 3.32625,-1.7125 3.32625,-5.0375 l 0,-4.4625 6.36625,0 c 1.235,0 1.9,0.6625 1.99625,1.9 l 0,14.4375 c 0,3.5125 -1.04625,6.175 -3.5175,8.55 L 92.64625,113.65 c -2.47125,2.4625 -5.2275,3.6 -8.64625,3.6 l -42.38125,0 c -3.42125,0 -6.17625,-1.1375 -8.645,-3.6 L 11.7825,92.449996 c -2.47,-2.4625 -3.61125,-5.0375 -3.51625,-8.55 l 0,-41.9 c 0,-3.5125 1.14125,-6.5625 3.70625,-9.125 l 21.57,-21.85 c 2.18625,-2.1874998 4.94125,-2.8499998 8.07625,-2.8499998 l 42.38125,0 c 3.13625,0 5.89,0.6625 8.07625,2.8499998 l 21.57,21.85 c 2.46875,2.5625 3.70625,5.6125 3.70625,9.125 l 0,13.6875 z M 97.87125,5.5124962 C 94.1675,1.8999962 89.51125,-3.8146975e-6 83.90375,-3.8146975e-6 l -42.19,0 C 36.1075,-3.8146975e-6 31.3575,1.8999962 27.74625,5.5124962 L 5.415,27.749996 c -3.51375,3.5125 -5.415,8.1625 -5.415,13.3 l 0,42.85 c 0,5.8875 1.99625,10.45 5.98625,14.35 L 27.1775,119.4375 c 4.18,4.1875 8.835,6.0875 14.82125,5.9875 l 41.62125,0 c 5.79625,0 10.5475,-1.7125 14.8225,-5.9875 l 21.19125,-21.187504 c 3.89375,-3.9 5.98625,-8.55 5.98625,-14.35 l 0,-42.85 c 0,-5.1375 -1.9025,-9.7875 -5.4175,-13.3 L 97.87125,5.5124962 m -59.7275,28.4999998 -8.6475,0 c -3.325,0 -5.03625,0.575 -5.03625,3.325 l 0,3.1375 c 0,2.7625 1.71125,3.325 5.03625,3.325 l 1.995,0 c 1.235,0 1.805,0.6625 1.805,2.575 l 0,41.0375 c 0,3.3375 0.57,5.0375 3.3275,5.0375 l 3.23,0 c 2.75625,0 3.3275,-1.7 3.3275,-5.0375 l 0,-50.075 c 0,-2.75 -1.71125,-3.325 -5.0375,-3.325 m 30.48,49.7 c -6.74625,0 -8.74125,-1.9 -8.74125,-7.5 l 0,-9.0375 c 2.375,-0.5625 4.94125,-1.1375 7.69625,-1.1375 7.3175,0 8.9325,1.9 8.9325,8.55 0,6.0875 -0.855,9.125 -7.8875,9.125 z m 0.19,-26.225 c -2.375,0 -4.75,0.1875 -7.22125,0.6625 -0.95125,0.1875 -1.71,-0.1875 -1.71,-1.325 l 0,-1.9 c 0,-8.9375 0.66375,-12.1625 8.17125,-12.1625 6.46125,0 7.8875,0.375 7.8875,5.0375 0,1.9 1.33,2.4625 3.51625,2.4625 l 2.27875,0 c 2.66125,0 3.70625,-0.6625 3.70625,-3.225 0,-11.2125 -4.845,-14.0625 -15.9625,-14.0625 -17.38875,0 -19.385,7.025 -19.385,29.2625 0.095,21.475 -1.14,30.975 18.34,30.975 12.35375,0 17.86375,-4.0875 17.86375,-19.7625 0,-12.925 -5.98625,-15.9625 -17.485,-15.9625"  />
	</symbol>
	
	<symbol id="age18" viewBox="0 0 125.61875 125.44039" >
		<title>18+</title>
		<path  d="m 68.7,84.1875 c -6.08,0 -8.26625,-2.375 -8.26625,-8.3625 0,-5.9875 2.18625,-8.7375 8.26625,-8.7375 6.0825,0 8.26875,2.75 8.26875,8.7375 0,5.9875 -2.18625,8.3625 -8.26875,8.3625 z m 0,-42.475 c 5.2275,0 7.31875,1.9 7.31875,8.275 0,6.175 -2.09125,8.2625 -7.31875,8.2625 -5.22375,0 -7.315,-2.0875 -7.315,-8.2625 0,-6.375 2.09125,-8.275 7.315,-8.275 z M 79.9125,62.15 c 5.32125,-3.9 5.41625,-7.8875 5.41625,-11.125 l 0,-3.225 C 84.75875,37.0625 81.14875,32.975 68.7,32.975 56.25375,32.975 52.64375,37.0625 52.0725,47.8 l 0,3.225 c 0,3.2375 0.095,7.225 5.41625,11.125 -6.36625,2.4625 -6.84125,7.8875 -6.84125,15.0125 0,10.55 3.705,15.775 18.0525,16.05 14.34875,-0.275 18.05625,-5.5 18.05625,-16.05 0,-7.125 -0.475,-12.55 -6.84375,-15.0125 m 37.44,-6.4625 c 0,1.425 -0.66625,2.1875 -1.99625,2.1875 l -6.365,0 0,-4.475 c 0,-3.325 -0.47625,-5.0375 -3.32625,-5.0375 l -2.8525,0 c -2.84875,0 -3.325,1.7125 -3.325,5.0375 l 0,4.475 -4.465,0 c -3.325,0 -5.03625,0.475 -5.03625,3.325 l 0,3.0375 c 0,2.85 1.71125,3.325 5.03625,3.325 l 4.465,0 0,4.4625 c 0,3.325 0.47625,5.0375 3.325,5.0375 l 2.8525,0 c 2.85,0 3.32625,-1.7125 3.32625,-5.0375 l 0,-4.4625 6.365,0 c 1.23625,0 1.90125,0.6625 1.99625,1.9 l 0,14.4375 c 0,3.525 -1.04625,6.1875 -3.51625,8.5625 l -21.19,21.1875 c -2.47125,2.4625 -5.22625,3.6125 -8.645,3.6125 l -42.3825,0 c -3.42,0 -6.175,-1.15 -8.64625,-3.6125 L 11.78375,92.4625 C 9.31375,89.9875 8.17,87.425 8.2675,83.9 l 0,-41.9 c 0,-3.5125 1.14125,-6.55 3.70625,-9.125 L 33.5425,11.025 c 2.18625,-2.1875 4.94125,-2.85 8.07625,-2.85 l 42.3825,0 c 3.13375,0 5.88875,0.6625 8.075,2.85 l 21.57,21.85 c 2.47,2.575 3.70625,5.6125 3.70625,9.125 l 0,13.6875 z M 97.87125,5.5125 C 94.16625,1.9 89.51125,0 83.90375,0 l -42.19,0 C 36.1075,0 31.35625,1.9 27.7475,5.5125 L 5.415,27.75 C 1.90125,31.2625 0,35.925 0,41.05 L 0,83.9 c 0,5.9 1.99625,10.4625 5.98625,14.35 l 21.19125,21.2 c 4.17875,4.175 8.835,6.075 14.8225,5.9875 l 41.62,0 c 5.79625,0 10.54625,-1.7125 14.8225,-5.9875 l 21.19,-21.2 c 3.89625,-3.8875 5.98625,-8.55 5.98625,-14.35 l 0,-42.85 c 0,-5.125 -1.9,-9.7875 -5.41625,-13.3 L 97.87125,5.5125 m -59.2775,28.5125 -8.6475,0 c -3.32375,0 -5.035,0.5625 -5.035,3.325 l 0,3.1375 c 0,2.75 1.71125,3.325 5.035,3.325 l 1.99625,0 c 1.235,0 1.80375,0.6625 1.80375,2.5625 l 0,41.05 c 0,3.325 0.57125,5.0375 3.3275,5.0375 l 3.22875,0 c 2.7575,0 3.32875,-1.7125 3.32875,-5.0375 l 0,-50.075 c 0,-2.7625 -1.7125,-3.325 -5.0375,-3.325"  />
	</symbol>

	<symbol id="handUp" viewBox="0 0 49.881626 51.564377" >
		<title>Рука вверх</title>
		<g transform="matrix(1.25,0,0,-1.25,0,51.564375)"><g transform="translate(11.252,22.1748)"><path d="M 0,0 C 9.688,3.438 11.688,19.625 13.313,19.062 23.714,15.462 12.898,4.223 15.75,3.875 21.504,3.172 28.314,5.001 28.452,2.872 29.265,-9.69 28.062,-20.753 16.437,-21.44 11.499,-21.732 2.646,-19.088 1.5,-18.503 c -3.187,1.625 -3.875,9.063 -5.125,12.625 -1.562,-9.812 2.919,-16.267 2.188,-16.25 -1.337,0.03 -6.475,-0.259 -6.938,0.313 -3.405,4.207 -4.125,18.312 -0.313,22 C -7.671,1.168 -2.688,-0.06 0,0" /></g></g>
	</symbol>

	<symbol id="handBottom" viewBox="0 0 52.818626 52.237499" >
		<title>Рука вниз</title>
		<g transform="matrix(1.25,0,0,-1.25,0,52.2375)"><g transform="translate(2.2402,39.0146)" ><path d="M 0,0 C 1.037,1.377 4.625,0.001 13.625,0.5 17.994,0.742 22.874,3.042 27.812,2.75 39.438,2.063 40.625,-9.625 39.813,-22.187 39.675,-24.316 32.938,-21.75 27.312,-23.812 24.615,-24.802 35.276,-35.399 24.875,-39 23.25,-39.563 21.25,-23.375 11.563,-19.937 9,-14.688 8.375,-10.375 7.625,-6.75 5.312,-11.25 9.313,-21.687 8.25,-21.937 6.711,-22.3 1.907,-23.126 1.125,-22.25 -2.563,-18.119 -3.625,-4.812 0,0" /></g></g>
	</symbol>

	<symbol id="avatar" viewBox="0 0 565.65002 593.34003" >
		<title>Аватар</title>
		<g transform="matrix(1.25,0,0,-1.25,0,593.34)">
			<g transform="translate(293.7407,162.915)" >
				<path style="stroke-width:20;"  d="m 0,0 89.652,-48.884 c 26.128,-10.456 59.127,-35.373 59.127,-66.817 l 0,-10.143 0,-8.149 c 0,-10.316 -8.446,-18.922 -18.76,-18.922 l -395,0 c -10.314,0 -18.76,8.274 -18.76,18.592 l 0,8.154 0,10.137 c 0,31.447 32.999,56.36 59.127,66.818 l 88.652,46.882 m -48.811,153.37 c -2.067,50.233 13.736,120.791 65.582,135.809 70.636,42.427 168.269,-8.998 168.03,-112.313 0.163,-1.578 0.263,-15.422 0.377,-22.772 10.005,-17.629 10.493,-42.468 5.188,-62.55 C 50.18,73.195 41.252,57.269 27.825,49.575 0.488,-51.417 -135.922,-49.984 -162.912,49.563 c -2.913,1.656 -5.608,3.768 -8.097,6.156 -14.112,13.51 -21.004,35.043 -21.652,55.676 -0.414,13.106 1.564,28.192 7.888,39.643 z" />
			</g>
		</g>
	</symbol>

	<symbol id="pointer" viewBox="0 0 96 96" >
		<title>Указатель</title>
		  <g transform="translate(-677.71429,-870.07648)">
            <path  d="m 677.96683,913.80109 95.74746,-43.72461 -42.96699,95.49492 0,-51.51778 z" />
          </g>
	</symbol>
	
	<symbol id="check" viewBox="0 0 16.5625 14.0625" >
		<title>Галочка в инпуте</title>
		  <g transform="translate(-0.03134848,-0.02685196)"><path
                 style="stroke-width:3.60000014;stroke-linecap:round;stroke-dasharray:22, 22;"
                 d="m 1.8471928,6.8524893 c 0,0 1.0221479,1.3094098 3.472432,3.9399617 1.3684668,1.440224 1.3380513,1.825524 2.4523002,0.294967 2.506426,-3.4428812 6.975824,-9.2402252 6.975824,-9.2402252"
                  /></g>
	</symbol>

	<symbol id="apple" viewBox="0 0 50.078125 61.497749" >
        <title>Логотип apple</title>
         <g transform="matrix(1.25,0,0,-1.25,0,61.49775)">
           <g transform="translate(27.2666,41.3428)" >
            <path d="M 0,0 C 1.715,2.082 2.877,4.976 2.562,7.855 0.086,7.755 -2.91,6.21 -4.687,4.13 -6.278,2.284 -7.671,-0.654 -7.298,-3.482 -4.537,-3.696 -1.721,-2.078 0,0 m 6.1953,-18.2881 c -0.062,6.232 5.082,9.222 5.312,9.372 -2.891,4.228 -7.395,4.808 -8.999,4.873 -3.829,0.39 -7.476,-2.256 -9.419,-2.256 -1.939,0 -4.941,2.199 -8.117,2.144 -4.178,-0.063 -8.029,-2.431 -10.179,-6.171 -4.339,-7.526 -1.11,-18.682 3.118,-24.791 2.067,-2.985 4.532,-6.346 7.765,-6.223 3.118,0.123 4.294,2.016 8.062,2.016 3.768,0 4.826,-2.016 8.123,-1.952 3.352,0.06 5.477,3.043 7.527,6.041 2.372,3.468 3.35,6.827 3.408,6.998 -0.073,0.033 -6.534,2.509 -6.601,9.949" />
             </g>
         </g>
    </symbol>

    <symbol id="android" viewBox="0 0 53.314251 62.608002" >
            <title>Логотип android</title>
             <g transform="matrix(1.25,0,0,-1.25,0,62.608)">
                  <g transform="translate(39.7461,34.2529)">
                     <path d="m 0,0 c -1.607,0 -2.908,-1.301 -2.908,-2.909 l 0,-12.44 c 0,-1.604 1.301,-2.907 2.908,-2.907 1.604,0 2.905,1.303 2.905,2.907 l 0,12.441 C 2.905,-1.301 1.604,0 0,0 m -36.8379,0 c -1.606,0 -2.908,-1.301 -2.908,-2.909 l 0,-12.44 c 0,-1.604 1.302,-2.907 2.908,-2.907 1.604,0 2.907,1.303 2.907,2.907 l 0,12.441 c 0,1.607 -1.302,2.908 -2.907,2.908 m 5.0566,0 -0.209,0 0,-2.418 0,-1.974 0,-16.935 c 0,-1.694 1.376,-3.07 3.069,-3.07 l 2.216,0 c -0.074,-0.256 -0.116,-0.527 -0.116,-0.807 l 0,-0.162 0,-0.969 0,-5.011 c 0,-1.604 1.303,-2.907 2.909,-2.907 1.606,0 2.908,1.303 2.908,2.907 l 0,5.011 0,0.969 0,0.162 c 0,0.279 -0.043,0.551 -0.115,0.807 l 5.4,0 c -0.074,-0.256 -0.115,-0.527 -0.115,-0.807 l 0,-0.162 0,-0.969 0,-5.011 c 0,-1.604 1.303,-2.907 2.907,-2.907 1.606,0 2.909,1.303 2.909,2.907 l 0,5.011 0,0.969 0,0.162 c 0,0.279 -0.041,0.551 -0.116,0.807 l 2.216,0 c 1.693,0 3.07,1.376 3.07,3.07 l 0,16.935 0,1.974 0,2.418 -0.209,0 -26.724,0 z m 19.1768,5.8164 c -0.803,0 -1.453,0.651 -1.453,1.454 0,0.804 0.65,1.453 1.453,1.453 0.805,0 1.455,-0.649 1.455,-1.453 0,-0.803 -0.65,-1.454 -1.455,-1.454 m -11.631,0 c -0.805,0 -1.455,0.651 -1.455,1.454 0,0.804 0.65,1.453 1.455,1.453 0.803,0 1.453,-0.649 1.453,-1.453 0,-0.803 -0.65,-1.454 -1.453,-1.454 m 12.489,5.823 0.547,0.82 0.537,0.807 1.209,1.814 c 0.148,0.222 0.088,0.522 -0.132,0.672 -0.226,0.148 -0.526,0.088 -0.675,-0.135 l -1.295,-1.945 -0.545,-0.817 -0.553,-0.828 c -1.752,0.68 -3.705,1.06 -5.767,1.06 -2.062,0 -4.015,-0.38 -5.767,-1.06 l -0.55,0.828 -0.545,0.817 -1.297,1.946 c -0.148,0.222 -0.449,0.282 -0.672,0.135 -0.223,-0.149 -0.283,-0.45 -0.135,-0.672 l 1.208,-1.814 0.539,-0.807 0.547,-0.82 c -4.115,-1.916 -6.898,-5.546 -6.898,-9.701 l 27.142,0 c 0,4.154 -2.782,7.784 -6.898,9.7" />
                  </g>
              </g>
    </symbol>

    <symbol id="viewList" viewBox="0 0 14 9" >
            <title>Вид списком</title>
            <path d="M 0 0 L 0 1 L 14 1 L 14 0 L 0 0 z M 0 4 L 0 5 L 14 5 L 14 4 L 0 4 z M 0 8 L 0 9 L 14 9 L 14 8 L 0 8 z " />
    </symbol>

    <symbol id="viewDefault" viewBox="0 0 14 9" >
            <title>Вид по умолчанию</title>
             <path d="m 5,8 9,0 0,1 -9,0 z M 5,6 14,6 14,7 5,7 Z M 0,6 3,6 3,9 0,9 Z M 5,2 14,2 14,3 5,3 Z M 5,0 14,0 14,1 5,1 Z M 0,0 3,0 3,3 0,3 Z" />
    </symbol>

    <symbol id="viewAfisha" viewBox="0 0 14.444445 10" >
        <title>Вид Афиша</title>
         <g transform="scale(0.55555556,0.55555556)">
             <path d="M 0,0 0,6 6,6 6,0 0,0 Z m 10,0 0,2 4,0 0,-2 -4,0 z m 6,0 0,2 4,0 0,-2 -4,0 z m 6,0 0,2 4,0 0,-2 -4,0 z m -12,4 0,2 4,0 0,-2 -4,0 z m 6,0 0,2 4,0 0,-2 -4,0 z m -16,8 0,6 6,0 0,-6 -6,0 z m 10,0 0,2 4,0 0,-2 -4,0 z m 6,0 0,2 4,0 0,-2 -4,0 z m 6,0 0,2 4,0 0,-2 -4,0 z m -12,4 0,2 4,0 0,-2 -4,0 z m 6,0 0,2 4,0 0,-2 -4,0 z" />
         </g>
     </symbol>

    <symbol id="wifi" viewBox="0 0 17 12.14828" >
            <title>wi-fi</title>
            <path d="M 8.48859,12.14828 8.12414,11.78763 6.11971,9.80594 5.71726,9.40732 6.15767,9.04667 c 0.5846,-0.43278 1.22998,-0.75926 2.33475,-0.75926 1.10094,0 1.70452,0.35685 2.33475,0.75926 L 11.26375,9.40732 10.8613,9.80594 8.85683,11.78763 8.48859,12.14828 Z M 3.12819,6.08932 C 4.60117,4.75681 6.5031,4.02411 8.48482,4.02411 l 0.004,0 0.0114,0 0.32269,0 0.004,0.008 c 1.8678,0.0759 3.64449,0.80102 5.03395,2.05761 L 14.25947,6.45037 13.87604,6.83001 12.6346,8.06002 12.28917,8.40169 11.92469,8.0828 C 10.96421,7.24001 9.74563,6.77306 8.49659,6.77306 7.24004,6.77306 6.02142,7.24001 5.06091,8.0828 L 4.6965,8.40169 4.35099,8.06002 3.10963,6.83001 2.72616,6.45037 3.12861,6.08972 Z M 8.49241,0 l 0,0 c 3.03323,0 5.9109,1.1351 8.12033,3.19272 L 17,3.55337 16.62416,3.92541 15.39791,5.14024 15.04489,5.4895 14.68044,5.15543 C 12.99107,3.60272 10.79678,2.74475 8.5,2.74475 c -2.29678,0 -4.49486,0.85797 -6.18044,2.41068 L 1.95511,5.4895 1.60205,5.14024 0.37584,3.92541 0,3.55337 0.38723,3.19272 C 2.5891,1.1351 5.47048,0 8.49241,0" />
    </symbol>

    <symbol id="sofa" viewBox="0 0 22.90909 12" >
            <title>sofa</title>
            <g transform="matrix(1.25,0,0,-1.25,0,12)">
                <g transform="scale(0.87272727,0.87272727)">
                    <path d="m 11,4 -1,0 0,6 1,0 0,-6 z m 5,7 -11,0 C 4.448,11 4,10.552 4,10 L 4,4 C 4,3.448 4.448,3 5,3 l 11,0 c 0.552,0 1,0.448 1,1 l 0,6 c 0,0.552 -0.448,1 -1,1 M 16,4 5,4 5,10 16,10 16,4 Z M 16,4 5,4 C 4.448,4 4,3.552 4,3 L 4,1 C 4,0.448 4.448,0 5,0 l 11,0 c 0.552,0 1,0.448 1,1 l 0,2 c 0,0.552 -0.448,1 -1,1 M 16,1 5,1 5,3 16,3 16,1 Z m 4,6 -3,0 C 16.448,7 16,6.552 16,6 l 0,-5 c 0,-0.552 0.448,-1 1,-1 l 3,0 c 0.552,0 1,0.448 1,1 l 0,5 c 0,0.552 -0.448,1 -1,1 m 0,-6 -3,0 0,5 3,0 0,-5 z m -16,6.0005 -3,0 c -0.552,0 -1,-0.448 -1,-1 l 0,-5 c 0,-0.552 0.448,-1 1,-1 l 3,0 c 0.552,0 1,0.448 1,1 l 0,5 c 0,0.552 -0.448,1 -1,1 m 0,-6 -3,0 0,5 3,0 0,-5 z" />
               </g>
           </g>
    </symbol>

    <symbol id="ticket" viewBox="0 0 19 29.165642" >
            <title>ticket</title>
            <path d="M 1.3730469,0 C 0.61498212,0 0,0.61522416 0,1.3730469 L 0,27.792969 c 0,0.757822 0.61498212,1.373047 1.3730469,1.373047 l 4.859375,0 c 0,-1.80464 1.4629389,-3.267578 3.2675781,-3.267578 1.804639,0 3.267578,1.462938 3.267578,3.267578 l 4.859375,0 C 18.384776,29.166016 19,28.550791 19,27.792969 L 19,1.3730469 C 19,0.61522416 18.384776,0 17.626953,0 L 12.767578,0 C 12.767578,1.8046392 11.304639,3.2675781 9.5,3.2675781 7.6953608,3.2675781 6.2324219,1.8046392 6.2324219,0 Z m 0.3203125,1.6933594 3.1425781,0 C 5.529862,3.5974765 7.3589272,4.9609375 9.5,4.9609375 c 2.141073,0 3.970138,-1.363461 4.664062,-3.2675781 l 3.142579,0 0,6.0644531 -2.470703,0 0,1.7480469 2.470703,0 0,17.9648436 -3.142579,0 C 13.470138,25.566586 11.641073,24.203125 9.5,24.203125 c -2.1410728,0 -3.970138,1.363461 -4.6640625,3.267578 l -3.1425781,0 0,-17.9702892 1.6367187,-2.5e-6 0,-1.7313419 -1.6367187,-0.00499 z m 3.2148437,6.0644531 0,1.7480469 3.7792969,0 0,-1.7480469 z m 5.3593749,0 0,1.7480469 3.779297,0 0,-1.7480469 z" />
    </symbol>

    <symbol id="curlyArrow" viewBox="0 0 13.85402 15" >
        <title>Фигурная стрелка</title>
        <path d="m 13.85402,15 0,-1.292993 C 8.6899905,12.807366 4.7635623,8.362423 4.7635623,3.001155 c 0,-0.224589 0.00195,-0.43827 0.00389,-0.653876 l 2.3784529,2.351129 c 0.2538832,0.250899 0.6642524,0.250899 0.9181362,0 0.1266169,-0.125128 0.19025,-0.289399 0.19025,-0.45367 0,-0.164271 -0.063635,-0.328542 -0.19025,-0.453671 L 4.1272303,0 0.19041262,3.790426 c -0.25388349,0.250898 -0.25388349,0.656443 0,0.907341 0.25388353,0.250898 0.66425277,0.250898 0.91813628,0 L 3.4662241,2.367813 c -6.48e-4,0.204055 -0.00195,0.397844 -0.00195,0.606391 C 3.464922,9.05095 7.9679459,14.074692 13.854017,15" />
    </symbol>

    <symbol id="play" viewBox="0 0 16.212175 15" >
        <title>Плей</title>
        <path d="m 0,14.165979 c 0,0.693842 0.51389163,1.020217 1.1420144,0.725441 L 15.741195,8.0360702 c 0.627974,-0.2949239 0.627974,-0.7775132 0,-1.0724372 L 1.1420144,0.10857982 C 0.51389163,-0.18619578 0,0.14017882 0,0.83402152 L 0,14.165979 Z" />
    </symbol>

    <symbol id="selectArrow" viewBox="0 0 9.9999972 5.9267167" >
        <title>Стрелочка селекта</title>
        <path style="fill-rule:evenodd;stroke-width:2.08386111px;stroke-linecap:round;stroke-linejoin:miter;stroke-opacity:1" d="m 1.0532354,1.0516097 4.07847,3.4865 3.81535,-3.4655"  />
    </symbol>

    <symbol id="next" viewBox="0 0 17 14.565359" >
        <title>next</title>
        <path d="M 16.829289,6.2943741 9.3214646,0.10695488 c -0.139356,-0.1150333 -0.3344553,-0.1394 -0.498199,-0.062758 -0.1637436,0.076642 -0.268261,0.2438792 -0.268261,0.4250425 l 0,3.26094002 C 4.9108359,3.8626374 2.4059055,5.1481207 1.1029236,7.5555049 -0.01889512,9.6319132 -0.00844339,12.091558 0.00200834,13.718543 l 0,0.376253 c 0,0.212528 0.14284026,0.400662 0.35187481,0.456393 0.038323,0.0099 0.0801299,0.01417 0.11845288,0.01417 0.16722763,0 0.32400354,-0.08713 0.40761736,-0.236909 C 3.4232068,9.8446541 5.5170361,9.6286549 8.5515206,9.6181999 l 0,3.2504991 c 0,0.181149 0.1045174,0.348387 0.271745,0.425028 0.1672277,0.07664 0.3588428,0.05227 0.5016831,-0.06276 L 16.829289,7.0226541 C 16.937295,6.9321291 17,6.7996849 17,6.6603274 c 0,-0.1394 -0.06272,-0.27523 -0.170711,-0.3658117 z M 9.4956601,11.868632 c 0,-1.4e-5 1.08e-5,-5.3e-5 10e-8,-4.3e-5 z" />
   </symbol>

    <symbol id="uber" viewBox="0 0 13 13.013207" >
        <title>uber</title>
        <path d="M 6.4934095,0 C 3.0460504,0 0.2253424,2.681147 0.00160808,6.071881 l 4.68864042,0 0,-1.138312 c 0,-0.105738 0.085703,-0.19144 0.1914409,-0.19144 l 3.1209711,0 c 0.105738,0 0.1914409,0.0857 0.1914409,0.19144 l 0,3.120972 c 0,0.105738 -0.085703,0.19144 -0.1914409,0.19144 l -3.1209711,0 c -0.105738,0 -0.1914409,-0.0857 -0.1914409,-0.19144 l 0,-1.138312 -4.6902485,0 c 0.21147599,3.402597 3.0375354,6.096978 6.4934095,6.096978 C 10.086893,13.013207 13,10.1001 13,6.506616 13,2.913133 10.086893,0 6.4934095,0 Z" />
   </symbol>

    <symbol id="handset" viewBox="0 0 18 17.962424" >
        <title>handset</title>
        <path d="M 13.443359,0 C 10.542613,-0.0027 7.550583,2.1988661 5.234375,4.5800781 2.6185829,6.9651141 -0.00299252,10.24033 0,13.40625 c 0.07065664,3.09792 1.2594512,3.741442 2.40625,4.482422 0,0 0.6276938,0.264202 1.1738281,-0.210938 0.5459681,-0.47548 2.9414063,-2.86914 2.9414063,-2.86914 0,0 0.8510363,-0.709724 0.2636718,-1.496094 -0.4380711,-0.58603 -1.414148,-1.639038 -1.6503906,-1.892578 -8.313e-4,5e-4 0.938397,-1.7592194 1.7949219,-2.8007814 C 8.1988471,7.0756676 9.7651452,6.0437651 10.65625,5.5019531 l 0.761719,-0.4042969 c 0.151621,0.1413141 1.305539,1.2205011 1.93164,1.6875 0.786201,0.586866 1.496094,-0.2636718 1.496094,-0.2636718 0,0 2.394162,-2.3957703 2.869141,-2.9414063 C 18.190488,3.0344431 17.927734,2.40625 17.927734,2.40625 17.186754,1.259451 16.541612,0.071321 13.443359,0 Z" />
   </symbol>

   <symbol id="camera" viewBox="0 0 19.5 15" >
       <title>Camera</title>
       <g transform="matrix(0.046875,0,0,0.046875,-2.25,-4.5)">
            <path d="m 256,202.9 c -38.6,0 -69.8,31.3 -69.8,70 0,38.6 31.2,70 69.8,70 38.5,0 69.8,-31.3 69.8,-70 0,-38.7 -31.3,-70 -69.8,-70 z m 174.4,-55.9 -67.5,0 -40.4,-40.8 c 0,0 -0.2,-0.2 -0.3,-0.2 l -0.2,-0.2 0,0 C 316,99.8 307.9,96 298.7,96 l -84,0 c -9.8,0 -18.5,4.2 -24.6,10.9 l 0,0.1 -39.5,40 -69,0 C 63,147 48,161.6 48,180.2 l 0,202.1 c 0,18.6 15,33.7 33.6,33.7 l 348.8,0 c 18.5,0 33.6,-15.1 33.6,-33.7 l 0,-202.1 C 464,161.6 448.9,147 430.4,147 Z M 256,365.5 c -50.9,0 -92.4,-41.6 -92.4,-92.6 0,-51.1 41.5,-92.6 92.4,-92.6 51,0 92.4,41.5 92.4,92.6 0,51 -41.4,92.6 -92.4,92.6 z m 168.1,-165 c -7.7,0 -14,-6.3 -14,-14.1 0,-7.8 6.3,-14.1 14,-14.1 7.7,0 14,6.3 14,14.1 0,7.8 -6.3,14.1 -14,14.1 z"  />
       </g>
    </symbol>





</svg>
