<?xml version="1.0" encoding="utf-8"?>
<svg xmlns="http://www.w3.org/2000/svg"
	xmlns:xlink="http://www.w3.org/1999/xlink"
	width="17px" height="16px" viewBox="0 0 17 16">

<path style="fill:#000000" d="M 8.5-0C 8.5-0 10.54 5.8 10.54 5.8 10.54 5.8 16.99 5.84 16.99 5.84 16.99 5.84 12.01 9.75 12.01 9.75 12.01 9.75 13.97 16 13.97 16 13.97 16 8.5 12.28 8.5 12.28 8.5 12.28 3.03 16 3.03 16 3.03 16 4.87 9.67 4.87 9.67 4.87 9.67 0.01 5.84 0.01 5.84 0.01 5.84 6.46 5.8 6.46 5.8 6.46 5.8 8.5-0 8.5-0Z" /></svg>