<?xml version="1.0" encoding="UTF-8" standalone="no"?>
<!-- Created with Inkscape (http://www.inkscape.org/) -->

<svg
   xmlns:dc="http://purl.org/dc/elements/1.1/"
   xmlns:cc="http://creativecommons.org/ns#"
   xmlns:rdf="http://www.w3.org/1999/02/22-rdf-syntax-ns#"
   xmlns:svg="http://www.w3.org/2000/svg"
   xmlns="http://www.w3.org/2000/svg"
   xmlns:sodipodi="http://sodipodi.sourceforge.net/DTD/sodipodi-0.dtd"
   xmlns:inkscape="http://www.inkscape.org/namespaces/inkscape"
   id="svg2"
   version="1.1"
   inkscape:version="0.91 r13725"
   xml:space="preserve"
   width="19"
   height="29.165642"
   viewBox="0 0 19 29.165642"
   sodipodi:docname="ticket.svg"><metadata
     id="metadata8"><rdf:RDF><cc:Work
         rdf:about=""><dc:format>image/svg+xml</dc:format><dc:type
           rdf:resource="http://purl.org/dc/dcmitype/StillImage" /><dc:title></dc:title></cc:Work></rdf:RDF></metadata><defs
     id="defs6"><clipPath
       clipPathUnits="userSpaceOnUse"
       id="clipPath16"><path
         d="m 0,120.5 78.5,0 L 78.5,0 0,0 0,120.5 Z"
         id="path18"
         inkscape:connector-curvature="0" /></clipPath></defs><sodipodi:namedview
     pagecolor="#ffffff"
     bordercolor="#666666"
     borderopacity="1"
     objecttolerance="10"
     gridtolerance="10"
     guidetolerance="10"
     inkscape:pageopacity="0"
     inkscape:pageshadow="2"
     inkscape:window-width="1763"
     inkscape:window-height="950"
     id="namedview4"
     showgrid="false"
     fit-margin-top="0"
     fit-margin-left="0"
     fit-margin-right="0"
     fit-margin-bottom="0"
     showguides="true"
     inkscape:zoom="12.53444"
     inkscape:cx="2.0207066"
     inkscape:cy="13.380723"
     inkscape:window-x="85"
     inkscape:window-y="19"
     inkscape:window-maximized="0"
     inkscape:current-layer="g10"
     inkscape:guide-bbox="true" />
        <path style="fill:#000000;fill-opacity:1;fill-rule:nonzero;stroke:none"
                     d="M 1.3730469,0 C 0.61498212,0 0,0.61522416 0,1.3730469 L 0,27.792969 c 0,0.757822 0.61498212,1.373047 1.3730469,1.373047 l 4.859375,0 c 0,-1.80464 1.4629389,-3.267578 3.2675781,-3.267578 1.804639,0 3.267578,1.462938 3.267578,3.267578 l 4.859375,0 C 18.384776,29.166016 19,28.550791 19,27.792969 L 19,1.3730469 C 19,0.61522416 18.384776,0 17.626953,0 L 12.767578,0 C 12.767578,1.8046392 11.304639,3.2675781 9.5,3.2675781 7.6953608,3.2675781 6.2324219,1.8046392 6.2324219,0 Z m 0.3203125,1.6933594 3.1425781,0 C 5.529862,3.5974765 7.3589272,4.9609375 9.5,4.9609375 c 2.141073,0 3.970138,-1.363461 4.664062,-3.2675781 l 3.142579,0 0,6.0644531 -2.470703,0 0,1.7480469 2.470703,0 0,17.9648436 -3.142579,0 C 13.470138,25.566586 11.641073,24.203125 9.5,24.203125 c -2.1410728,0 -3.970138,1.363461 -4.6640625,3.267578 l -3.1425781,0 0,-17.9702892 1.6367187,-2.5e-6 0,-1.7313419 -1.6367187,-0.00499 z m 3.2148437,6.0644531 0,1.7480469 3.7792969,0 0,-1.7480469 z m 5.3593749,0 0,1.7480469 3.779297,0 0,-1.7480469 z" />

     </svg>