<?xml version="1.0" encoding="UTF-8" standalone="no"?>
<!-- Created with Inkscape (http://www.inkscape.org/) -->

<svg
   xmlns:dc="http://purl.org/dc/elements/1.1/"
   xmlns:cc="http://creativecommons.org/ns#"
   xmlns:rdf="http://www.w3.org/1999/02/22-rdf-syntax-ns#"
   xmlns:svg="http://www.w3.org/2000/svg"
   xmlns="http://www.w3.org/2000/svg"
   xmlns:sodipodi="http://sodipodi.sourceforge.net/DTD/sodipodi-0.dtd"
   xmlns:inkscape="http://www.inkscape.org/namespaces/inkscape"
   id="svg2"
   version="1.1"
   inkscape:version="0.91 r13725"
   xml:space="preserve"
   width="27.49025"
   height="22.341249"
   viewBox="0 0 27.49025 22.341249"
   sodipodi:docname="tw-simple.svg"><metadata
     id="metadata8"><rdf:RDF><cc:Work
         rdf:about=""><dc:format>image/svg+xml</dc:format><dc:type
           rdf:resource="http://purl.org/dc/dcmitype/StillImage" /><dc:title></dc:title></cc:Work></rdf:RDF></metadata><defs
     id="defs6"><clipPath
       clipPathUnits="userSpaceOnUse"
       id="clipPath16"><path
         d="m 0,17.873 21.992,0 L 21.992,0 0,0 0,17.873 Z"
         id="path18"
         inkscape:connector-curvature="0" /></clipPath></defs><sodipodi:namedview
     pagecolor="#ffffff"
     bordercolor="#666666"
     borderopacity="1"
     objecttolerance="10"
     gridtolerance="10"
     guidetolerance="10"
     inkscape:pageopacity="0"
     inkscape:pageshadow="2"
     inkscape:window-width="1126"
     inkscape:window-height="712"
     id="namedview4"
     showgrid="false"
     inkscape:zoom="10.56342"
     inkscape:cx="14.687002"
     inkscape:cy="11.170625"
     inkscape:window-x="0"
     inkscape:window-y="0"
     inkscape:window-maximized="0"
     inkscape:current-layer="g10" /><g
     id="g10"
     inkscape:groupmode="layer"
     inkscape:label="Vector Smart Object14"
     transform="matrix(1.25,0,0,-1.25,0,22.34125)"><g
       id="g12"><g
         id="g14"
         clip-path="url(#clipPath16)"><g
           id="g20"
           transform="translate(21.9922,15.7578)"><path
             id="path22"
             style="fill:#373535;fill-opacity:1;fill-rule:nonzero;stroke:none"
             d="m 0,0 c -0.809,-0.359 -1.679,-0.602 -2.592,-0.709 0.932,0.557 1.648,1.441 1.985,2.494 -0.872,-0.515 -1.837,-0.893 -2.866,-1.094 -0.823,0.876 -1.996,1.424 -3.295,1.424 -2.492,0 -4.51,-2.019 -4.51,-4.511 0,-0.354 0.04,-0.699 0.116,-1.028 -3.75,0.188 -7.074,1.984 -9.3,4.714 -0.388,-0.667 -0.61,-1.442 -0.61,-2.269 0,-1.566 0.796,-2.946 2.006,-3.756 -0.738,0.024 -1.434,0.226 -2.043,0.564 0,-0.018 0,-0.038 0,-0.057 0,-2.186 1.554,-4.009 3.619,-4.424 -0.378,-0.103 -0.777,-0.158 -1.189,-0.158 -0.292,0 -0.573,0.029 -0.848,0.081 0.573,-1.792 2.24,-3.096 4.214,-3.134 -1.543,-1.209 -3.488,-1.932 -5.603,-1.932 -0.364,0 -0.724,0.021 -1.076,0.064 1.995,-1.28 4.368,-2.027 6.916,-2.027 8.299,0 12.837,6.875 12.837,12.838 0,0.195 -0.005,0.39 -0.013,0.585 C -1.37,-1.7 -0.606,-0.906 0,0" /></g></g></g></g></svg>