<?xml version="1.0" encoding="UTF-8" standalone="no"?>
<!-- Created with Inkscape (http://www.inkscape.org/) -->

<svg
   xmlns:dc="http://purl.org/dc/elements/1.1/"
   xmlns:cc="http://creativecommons.org/ns#"
   xmlns:rdf="http://www.w3.org/1999/02/22-rdf-syntax-ns#"
   xmlns:svg="http://www.w3.org/2000/svg"
   xmlns="http://www.w3.org/2000/svg"
   xmlns:sodipodi="http://sodipodi.sourceforge.net/DTD/sodipodi-0.dtd"
   xmlns:inkscape="http://www.inkscape.org/namespaces/inkscape"
   id="svg2"
   version="1.1"
   inkscape:version="0.91 r13725"
   xml:space="preserve"
   width="32"
   height="32"
   viewBox="0 0 32 32"
   sodipodi:docname="tw.svg"><metadata
     id="metadata8"><rdf:RDF><cc:Work
         rdf:about=""><dc:format>image/svg+xml</dc:format><dc:type
           rdf:resource="http://purl.org/dc/dcmitype/StillImage" /><dc:title /></cc:Work></rdf:RDF></metadata><defs
     id="defs6"><clipPath
       clipPathUnits="userSpaceOnUse"
       id="clipPath16"><path
         d="M 0,32 32,32 32,0 0,0 0,32 Z"
         id="path18"
         inkscape:connector-curvature="0" /></clipPath></defs><sodipodi:namedview
     pagecolor="#ffffff"
     bordercolor="#666666"
     borderopacity="1"
     objecttolerance="10"
     gridtolerance="10"
     guidetolerance="10"
     inkscape:pageopacity="0"
     inkscape:pageshadow="2"
     inkscape:window-width="1847"
     inkscape:window-height="694"
     id="namedview4"
     showgrid="false"
     inkscape:zoom="5.9"
     inkscape:cx="-68.167986"
     inkscape:cy="8.4157202"
     inkscape:window-x="0"
     inkscape:window-y="0"
     inkscape:window-maximized="0"
     inkscape:current-layer="svg2"
     fit-margin-top="0"
     fit-margin-left="0"
     fit-margin-right="0"
     fit-margin-bottom="0" /><path
     d="m 24.624,12.578 c 0.008,0.194 0.013,0.39 0.013,0.585 C 24.637,19.125 20.099,26 11.8,26 9.252,26 6.879,25.253 4.884,23.974 c 0.352,0.043 0.712,0.063 1.076,0.063 2.115,0 4.06,-0.722 5.602,-1.931 -1.973,-0.038 -3.64,-1.343 -4.213,-3.134 0.275,0.052 0.556,0.08 0.848,0.08 0.412,0 0.811,-0.055 1.189,-0.157 C 7.321,18.48 5.767,16.657 5.767,14.47 c 0,-0.018 0,-0.038 0,-0.057 0.608,0.338 1.305,0.54 2.043,0.564 -1.21,-0.809 -2.006,-2.19 -2.006,-3.755 0,-0.828 0.222,-1.602 0.61,-2.269 2.226,2.729 5.55,4.526 9.3,4.714 -0.076,-0.33 -0.116,-0.674 -0.116,-1.028 0,-2.492 2.018,-4.512 4.51,-4.512 1.299,0 2.472,0.548 3.295,1.425 1.029,-0.202 1.993,-0.579 2.866,-1.095 -0.337,1.053 -1.053,1.937 -1.985,2.495 0.913,-0.107 1.783,-0.35 2.592,-0.709 -0.606,0.905 -1.37,1.699 -2.252,2.335 M 0,32 32,32 32,0 0,0 0,32 Z"
     id="path8"
     inkscape:connector-curvature="0"
     style="fill:#000000;fill-opacity:1" /></svg>