<?xml version="1.0" encoding="UTF-8" standalone="no"?>
<svg
   xmlns:dc="http://purl.org/dc/elements/1.1/"
   xmlns:cc="http://creativecommons.org/ns#"
   xmlns:rdf="http://www.w3.org/1999/02/22-rdf-syntax-ns#"
   xmlns:svg="http://www.w3.org/2000/svg"
   xmlns="http://www.w3.org/2000/svg"
   xmlns:sodipodi="http://sodipodi.sourceforge.net/DTD/sodipodi-0.dtd"
   xmlns:inkscape="http://www.inkscape.org/namespaces/inkscape"
   height="13.013207"
   id="Layer_1"
   version="1.1"
   viewBox="0 0 13 13.013207"
   width="13"
   xml:space="preserve"
   inkscape:version="0.91 r13725"
   sodipodi:docname="uber.svg"><metadata
     id="metadata9"><rdf:RDF><cc:Work
         rdf:about=""><dc:format>image/svg+xml</dc:format><dc:type
           rdf:resource="http://purl.org/dc/dcmitype/StillImage" /><dc:title></dc:title></cc:Work></rdf:RDF></metadata><defs
     id="defs7" /><sodipodi:namedview
     pagecolor="#ffffff"
     bordercolor="#666666"
     borderopacity="1"
     objecttolerance="10"
     gridtolerance="10"
     guidetolerance="10"
     inkscape:pageopacity="0"
     inkscape:pageshadow="2"
     inkscape:window-width="1369"
     inkscape:window-height="659"
     id="namedview5"
     showgrid="false"
     fit-margin-top="0"
     fit-margin-left="0"
     fit-margin-right="0"
     fit-margin-bottom="0"
     inkscape:zoom="4.1622574"
     inkscape:cx="20.452251"
     inkscape:cy="24.431201"
     inkscape:window-x="315"
     inkscape:window-y="273"
     inkscape:window-maximized="0"
     inkscape:current-layer="Layer_1" /><path
     d="M 6.4934095,0 C 3.0460504,0 0.2253424,2.681147 0.00160808,6.071881 l 4.68864042,0 0,-1.138312 c 0,-0.105738 0.085703,-0.19144 0.1914409,-0.19144 l 3.1209711,0 c 0.105738,0 0.1914409,0.0857 0.1914409,0.19144 l 0,3.120972 c 0,0.105738 -0.085703,0.19144 -0.1914409,0.19144 l -3.1209711,0 c -0.105738,0 -0.1914409,-0.0857 -0.1914409,-0.19144 l 0,-1.138312 -4.6902485,0 c 0.21147599,3.402597 3.0375354,6.096978 6.4934095,6.096978 C 10.086893,13.013207 13,10.1001 13,6.506616 13,2.913133 10.086893,0 6.4934095,0 Z"
     id="path3"
     inkscape:connector-curvature="0"
     style="fill:#000000" /></svg>