<?xml version="1.0" encoding="UTF-8" standalone="no"?>
<!-- Created with Inkscape (http://www.inkscape.org/) -->

<svg
   xmlns:dc="http://purl.org/dc/elements/1.1/"
   xmlns:cc="http://creativecommons.org/ns#"
   xmlns:rdf="http://www.w3.org/1999/02/22-rdf-syntax-ns#"
   xmlns:svg="http://www.w3.org/2000/svg"
   xmlns="http://www.w3.org/2000/svg"
   xmlns:sodipodi="http://sodipodi.sourceforge.net/DTD/sodipodi-0.dtd"
   xmlns:inkscape="http://www.inkscape.org/namespaces/inkscape"
   id="svg2"
   version="1.1"
   inkscape:version="0.91 r13725"
   xml:space="preserve"
   width="20.002501"
   height="25.004875"
   viewBox="0 0 20.002501 25.004875"
   sodipodi:docname="vk-simple.svg"><metadata
     id="metadata8"><rdf:RDF><cc:Work
         rdf:about=""><dc:format>image/svg+xml</dc:format><dc:type
           rdf:resource="http://purl.org/dc/dcmitype/StillImage" /><dc:title></dc:title></cc:Work></rdf:RDF></metadata><defs
     id="defs6"><clipPath
       clipPathUnits="userSpaceOnUse"
       id="clipPath16"><path
         d="m 0,20.004 16.002,0 L 16.002,0 0,0 0,20.004 Z"
         id="path18"
         inkscape:connector-curvature="0" /></clipPath></defs><sodipodi:namedview
     pagecolor="#ffffff"
     bordercolor="#666666"
     borderopacity="1"
     objecttolerance="10"
     gridtolerance="10"
     guidetolerance="10"
     inkscape:pageopacity="0"
     inkscape:pageshadow="2"
     inkscape:window-width="1554"
     inkscape:window-height="618"
     id="namedview4"
     showgrid="false"
     inkscape:zoom="9.4381595"
     inkscape:cx="33.224018"
     inkscape:cy="12.502438"
     inkscape:window-x="0"
     inkscape:window-y="0"
     inkscape:window-maximized="0"
     inkscape:current-layer="g10" /><g
     id="g10"
     inkscape:groupmode="layer"
     inkscape:label="Vector Smart Object17"
     transform="matrix(1.25,0,0,-1.25,0,25.004875)"><g
       id="g12"><g
         id="g14"
         clip-path="url(#clipPath16)"><g
           id="g20"
           transform="translate(10.5127,4.9229)"><path
             id="path22"
             style="fill:#373536;fill-opacity:1;fill-rule:nonzero;stroke:none"
             d="M 0,0 C -0.211,-0.379 -0.543,-0.669 -1.001,-0.867 -1.521,-1.09 -2.03,-1.211 -2.532,-1.229 -3.033,-1.245 -3.938,-1.255 -5.246,-1.255 l -0.268,0 0,5.011 0.926,0 c 0.896,0 1.61,-0.007 2.143,-0.02 C -1.911,3.723 -1.492,3.657 -1.188,3.541 -0.687,3.362 -0.312,3.099 -0.061,2.748 0.191,2.399 0.316,1.915 0.316,1.299 0.316,0.814 0.211,0.381 0,0 m -5.514,11.414 0.349,0 c 0.895,0 1.569,-0.007 2.021,-0.02 0.453,-0.014 0.844,-0.093 1.177,-0.235 0.349,-0.154 0.606,-0.399 0.772,-0.74 0.166,-0.34 0.248,-0.671 0.248,-0.994 0,-0.439 -0.075,-0.824 -0.227,-1.155 C -1.328,7.938 -1.605,7.679 -2.008,7.491 -2.375,7.32 -2.73,7.226 -3.076,7.208 -3.421,7.19 -4.024,7.182 -4.883,7.182 l -0.632,0 0,4.232 10e-4,0 z M 4.373,4.448 C 3.63,5.25 2.641,5.78 1.403,6.039 l 0,0.108 c 0.862,0.358 1.535,0.917 2.024,1.68 0.487,0.761 0.731,1.63 0.731,2.606 0,0.841 -0.176,1.585 -0.53,2.23 -0.356,0.645 -0.89,1.16 -1.606,1.545 -0.664,0.357 -1.372,0.593 -2.127,0.705 -0.759,0.112 -1.871,0.168 -3.34,0.168 l -7.068,0 0,-20.004 8.009,0 c 1.388,0 2.531,0.125 3.431,0.376 0.901,0.251 1.727,0.671 2.478,1.262 0.637,0.493 1.143,1.116 1.519,1.868 0.376,0.753 0.565,1.627 0.565,2.62 0,1.36 -0.371,2.444 -1.116,3.245" /></g></g></g></g></svg>