<?xml version="1.0" encoding="UTF-8" standalone="no"?>
<!-- Created with Inkscape (http://www.inkscape.org/) -->

<svg
   xmlns:dc="http://purl.org/dc/elements/1.1/"
   xmlns:cc="http://creativecommons.org/ns#"
   xmlns:rdf="http://www.w3.org/1999/02/22-rdf-syntax-ns#"
   xmlns:svg="http://www.w3.org/2000/svg"
   xmlns="http://www.w3.org/2000/svg"
   xmlns:sodipodi="http://sodipodi.sourceforge.net/DTD/sodipodi-0.dtd"
   xmlns:inkscape="http://www.inkscape.org/namespaces/inkscape"
   id="svg2"
   version="1.1"
   inkscape:version="0.91 r13725"
   xml:space="preserve"
   width="32"
   height="32"
   viewBox="0 0 32 32"
   sodipodi:docname="vk.svg"><metadata
     id="metadata8"><rdf:RDF><cc:Work
         rdf:about=""><dc:format>image/svg+xml</dc:format><dc:type
           rdf:resource="http://purl.org/dc/dcmitype/StillImage" /><dc:title></dc:title></cc:Work></rdf:RDF></metadata><defs
     id="defs6"><clipPath
       clipPathUnits="userSpaceOnUse"
       id="clipPath16"><path
         d="M 0,32 32,32 32,0 0,0 0,32 Z"
         id="path18"
         inkscape:connector-curvature="0" /></clipPath></defs><sodipodi:namedview
     pagecolor="#ffffff"
     bordercolor="#666666"
     borderopacity="1"
     objecttolerance="10"
     gridtolerance="10"
     guidetolerance="10"
     inkscape:pageopacity="0"
     inkscape:pageshadow="2"
     inkscape:window-width="1775"
     inkscape:window-height="637"
     id="namedview4"
     showgrid="false"
     inkscape:zoom="5.9"
     inkscape:cx="-31.679846"
     inkscape:cy="0.65226102"
     inkscape:window-x="0"
     inkscape:window-y="0"
     inkscape:window-maximized="0"
     inkscape:current-layer="svg2"
     fit-margin-top="0"
     fit-margin-left="0"
     fit-margin-right="0"
     fit-margin-bottom="0" /><path
     d="m 15.437,13.8726 c 0.346,-0.018 0.701,-0.112 1.068,-0.283 0.403,-0.187 0.68,-0.446 0.834,-0.779 0.152,-0.33 0.227,-0.715 0.227,-1.155 0,-0.322 -0.082,-0.653 -0.248,-0.994 -0.166,-0.34 -0.423,-0.586 -0.772,-0.739 -0.333,-0.143 -0.724,-0.221 -1.177,-0.235 -0.452,-0.013 -1.125,-0.02 -2.021,-0.02 l -0.349,0 0,0 0,4.232 0.631,0 c 0.859,0 1.462,-0.008 1.807,-0.027 m 1.8877,3.6674 c -0.304,-0.116 -0.723,-0.182 -1.256,-0.195 -0.534,-0.013 -1.247,-0.02 -2.143,-0.02 l -0.927,0 0,5.011 0.268,0 c 1.308,0 2.213,-0.01 2.715,-0.026 0.502,-0.018 1.01,-0.139 1.53,-0.362 0.459,-0.198 0.791,-0.488 1.001,-0.867 0.211,-0.381 0.317,-0.814 0.317,-1.299 0,-0.616 -0.125,-1.1 -0.377,-1.449 -0.251,-0.351 -0.626,-0.614 -1.128,-0.793 m 6.1123,4.958 c -0.376,0.752 -0.882,1.375 -1.519,1.868 -0.751,0.591 -1.577,1.011 -2.478,1.262 -0.899,0.251 -2.043,0.376 -3.431,0.376 L 8,26.004 8,6 15.068,6 c 1.469,0 2.581,0.056 3.34,0.168 0.756,0.112 1.464,0.348 2.128,0.705 0.715,0.385 1.25,0.9 1.605,1.545 0.355,0.645 0.53,1.389 0.53,2.23 0,0.976 -0.244,1.845 -0.731,2.606 -0.489,0.763 -1.162,1.322 -2.024,1.68 l 0,0.108 c 1.238,0.259 2.227,0.789 2.97,1.591 0.745,0.801 1.116,1.885 1.116,3.245 0,0.993 -0.189,1.867 -0.565,2.62 M 0,32 32,32 32,0 0,0 0,32 Z"
     id="path8"
     inkscape:connector-curvature="0"
     style="fill:#000000;fill-opacity:1" /></svg>