<?xml version="1.0" encoding="UTF-8" standalone="no"?>
<!-- Created with Inkscape (http://www.inkscape.org/) -->

<svg
   xmlns:dc="http://purl.org/dc/elements/1.1/"
   xmlns:cc="http://creativecommons.org/ns#"
   xmlns:rdf="http://www.w3.org/1999/02/22-rdf-syntax-ns#"
   xmlns:svg="http://www.w3.org/2000/svg"
   xmlns="http://www.w3.org/2000/svg"
   xmlns:sodipodi="http://sodipodi.sourceforge.net/DTD/sodipodi-0.dtd"
   xmlns:inkscape="http://www.inkscape.org/namespaces/inkscape"
   id="svg2"
   version="1.1"
   inkscape:version="0.91 r13725"
   xml:space="preserve"
   width="17"
   height="12.14828"
   viewBox="0 0 17 12.14828"
   sodipodi:docname="wifi.svg"><metadata
     id="metadata8"><rdf:RDF><cc:Work
         rdf:about=""><dc:format>image/svg+xml</dc:format><dc:type
           rdf:resource="http://purl.org/dc/dcmitype/StillImage" /><dc:title /></cc:Work></rdf:RDF></metadata><defs
     id="defs6"><clipPath
       clipPathUnits="userSpaceOnUse"
       id="clipPath16"><path
         d="m 0,320 447.8,0 0,-320 L 0,0 0,320 Z"
         id="path18"
         inkscape:connector-curvature="0" /></clipPath></defs><sodipodi:namedview
     pagecolor="#ffffff"
     bordercolor="#666666"
     borderopacity="1"
     objecttolerance="10"
     gridtolerance="10"
     guidetolerance="10"
     inkscape:pageopacity="0"
     inkscape:pageshadow="2"
     inkscape:window-width="1407"
     inkscape:window-height="913"
     id="namedview4"
     showgrid="false"
     inkscape:zoom="4.72"
     inkscape:cx="67.004237"
     inkscape:cy="12.033902"
     inkscape:window-x="471"
     inkscape:window-y="28"
     inkscape:window-maximized="0"
     inkscape:current-layer="svg2"
     fit-margin-top="0"
     fit-margin-left="0"
     fit-margin-right="0"
     fit-margin-bottom="0" /><path
     id="path30"
     style="fill:#000000;fill-opacity:1;fill-rule:nonzero;stroke:none"
     d="M 8.48859,12.14828 8.12414,11.78763 6.11971,9.80594 5.71726,9.40732 6.15767,9.04667 c 0.5846,-0.43278 1.22998,-0.75926 2.33475,-0.75926 1.10094,0 1.70452,0.35685 2.33475,0.75926 L 11.26375,9.40732 10.8613,9.80594 8.85683,11.78763 8.48859,12.14828 Z M 3.12819,6.08932 C 4.60117,4.75681 6.5031,4.02411 8.48482,4.02411 l 0.004,0 0.0114,0 0.32269,0 0.004,0.008 c 1.8678,0.0759 3.64449,0.80102 5.03395,2.05761 L 14.25947,6.45037 13.87604,6.83001 12.6346,8.06002 12.28917,8.40169 11.92469,8.0828 C 10.96421,7.24001 9.74563,6.77306 8.49659,6.77306 7.24004,6.77306 6.02142,7.24001 5.06091,8.0828 L 4.6965,8.40169 4.35099,8.06002 3.10963,6.83001 2.72616,6.45037 3.12861,6.08972 Z M 8.49241,0 l 0,0 c 3.03323,0 5.9109,1.1351 8.12033,3.19272 L 17,3.55337 16.62416,3.92541 15.39791,5.14024 15.04489,5.4895 14.68044,5.15543 C 12.99107,3.60272 10.79678,2.74475 8.5,2.74475 c -2.29678,0 -4.49486,0.85797 -6.18044,2.41068 L 1.95511,5.4895 1.60205,5.14024 0.37584,3.92541 0,3.55337 0.38723,3.19272 C 2.5891,1.1351 5.47048,0 8.49241,0"
     inkscape:connector-curvature="0" /></svg>