<?xml version="1.0" encoding="UTF-8" standalone="no"?>
<!-- Created with Inkscape (http://www.inkscape.org/) -->

<svg
   xmlns:dc="http://purl.org/dc/elements/1.1/"
   xmlns:cc="http://creativecommons.org/ns#"
   xmlns:rdf="http://www.w3.org/1999/02/22-rdf-syntax-ns#"
   xmlns:svg="http://www.w3.org/2000/svg"
   xmlns="http://www.w3.org/2000/svg"
   xmlns:xlink="http://www.w3.org/1999/xlink"
   xmlns:sodipodi="http://sodipodi.sourceforge.net/DTD/sodipodi-0.dtd"
   xmlns:inkscape="http://www.inkscape.org/namespaces/inkscape"
   width="5.9269552mm"
   height="5.9269471mm"
   viewBox="0 0 21.001022 21.000994"
   id="svg2"
   version="1.1"
   inkscape:version="0.91 r13725"
   sodipodi:docname="x.svg">
  <defs
     id="defs4" />
  <sodipodi:namedview
     id="base"
     pagecolor="#ffffff"
     bordercolor="#666666"
     borderopacity="1.0"
     inkscape:pageopacity="0.0"
     inkscape:pageshadow="2"
     inkscape:zoom="16"
     inkscape:cx="9.8926333"
     inkscape:cy="5.0227719"
     inkscape:document-units="px"
     inkscape:current-layer="layer1"
     showgrid="false"
     inkscape:window-width="1289"
     inkscape:window-height="883"
     inkscape:window-x="561"
     inkscape:window-y="25"
     inkscape:window-maximized="0"
     fit-margin-top="0"
     fit-margin-left="0"
     fit-margin-right="0"
     fit-margin-bottom="0" />
  <metadata
     id="metadata7">
    <rdf:RDF>
      <cc:Work
         rdf:about="">
        <dc:format>image/svg+xml</dc:format>
        <dc:type
           rdf:resource="http://purl.org/dc/dcmitype/StillImage" />
        <dc:title></dc:title>
      </cc:Work>
    </rdf:RDF>
  </metadata>
  <g
     inkscape:label="Layer 1"
     inkscape:groupmode="layer"
     id="layer1"
     transform="translate(-346.6418,-459.0051)">
    <image
       sodipodi:absref="C:\Users\Asus\Desktop\Layer-49.gif"
       y="459.0051"
       x="346.64282"
       id="image4144"
       xlink:href="file:///C:/Users/Asus/Desktop/Layer-49.gif"
       style="opacity:0.5;image-rendering:optimizeSpeed"
       preserveAspectRatio="none"
       height="21"
       width="21" />
    <path
       id="path4213"
       style="opacity:0.86400003;fill:#000000;fill-opacity:1;fill-rule:nonzero;stroke:none;stroke-width:1;stroke-linecap:square;stroke-linejoin:bevel;stroke-miterlimit:4;stroke-dasharray:none;stroke-opacity:1"
       d="m 347.64289,479.00399 0,1.00108 -1.00109,0 0,-1.00108 z m 1,-1.00391 0,1.00109 -1.00109,0 0,-1.00109 z m 1,-1 0,1.00109 -1.00109,0 0,-1.00109 z m 1,-1.00391 0,1.00109 -1.00109,0 0,-1.00109 z m 0.99737,-0.98852 0,1.00109 -1.00109,0 0,-1.00109 z m 1.00516,-0.99347 0,1.00109 -1.00109,0 0,-1.00109 z m 1,-1.00391 0,1.00109 -1.00109,0 0,-1.00109 z m 1,-1 0,1.00109 -1.00109,0 0,-1.00109 z m 1,-1.0039 0,1.00108 -1.00109,0 0,-1.00108 z m 0.99737,-0.98853 0,1.00109 -1.00108,0 0,-1.00109 z m 1,-1.00391 0,1.00109 -1.00108,0 0,-1.00109 z m 1,-1 0,1.00109 -1.00108,0 0,-1.00109 z m 1,-1.0039 0,1.00109 -1.00108,0 0,-1.00109 z m 1.00263,-0.99976 0,1.00109 -1.00109,0 0,-1.00109 z m 1,-1.0039 0,1.00108 -1.00109,0 0,-1.00108 z m 1,-1 0,1.00108 -1.00109,0 0,-1.00108 z m 1,-1.00391 0,1.00109 -1.00109,0 0,-1.00109 z m 0.99737,-0.98853 0,1.00109 -1.00108,0 0,-1.00109 z m 1,-1.0039 0,1.00109 -1.00108,0 0,-1.00109 z m 1,-1 0,1.00109 -1.00108,0 0,-1.00109 z m 1,-1.00391 0,1.00109 -1.00108,0 0,-1.00109 z m -1.0021,19.99888 1.00108,0 0,1.00109 -1.00108,0 z m -1.00391,-1 1.00109,0 0,1.00109 -1.00109,0 z m -1,-1 1.00109,0 0,1.00109 -1.00109,0 z m -1.00391,-1 1.00109,0 0,1.00109 -1.00109,0 z m -0.98852,-0.99737 1.00109,0 0,1.00109 -1.00109,0 z m -0.99347,-1.00516 1.00109,0 0,1.00109 -1.00109,0 z m -1.00391,-1 1.00109,0 0,1.00109 -1.00109,0 z m -1,-1 1.00109,0 0,1.00109 -1.00109,0 z m -1.0039,-1 1.00108,0 0,1.00109 -1.00108,0 z m -0.98853,-0.99737 1.00109,0 0,1.00108 -1.00109,0 z m -1.00391,-1 1.00109,0 0,1.00108 -1.00109,0 z m -1,-1 1.00109,0 0,1.00108 -1.00109,0 z m -1.0039,-1 1.00109,0 0,1.00108 -1.00109,0 z m -0.99976,-1.00263 1.00109,0 0,1.00109 -1.00109,0 z m -1.0039,-1 1.00108,0 0,1.00109 -1.00108,0 z m -1,-1 1.00108,0 0,1.00109 -1.00108,0 z m -1.00391,-1 1.00109,0 0,1.00109 -1.00109,0 z m -0.98853,-0.99737 1.00109,0 0,1.00108 -1.00109,0 z m -1.0039,-1 1.00109,0 0,1.00108 -1.00109,0 z m -1,-1 1.00109,0 0,1.00108 -1.00109,0 z m -1.00391,-1 1.00109,0 0,1.00108 -1.00109,0 z"
       inkscape:connector-curvature="0" />
  </g>
</svg>
