<?xml version="1.0" encoding="UTF-8" standalone="no"?>
<!-- Created with Inkscape (http://www.inkscape.org/) -->

<svg
   xmlns:dc="http://purl.org/dc/elements/1.1/"
   xmlns:cc="http://creativecommons.org/ns#"
   xmlns:rdf="http://www.w3.org/1999/02/22-rdf-syntax-ns#"
   xmlns:svg="http://www.w3.org/2000/svg"
   xmlns="http://www.w3.org/2000/svg"
   xmlns:sodipodi="http://sodipodi.sourceforge.net/DTD/sodipodi-0.dtd"
   xmlns:inkscape="http://www.inkscape.org/namespaces/inkscape"
   id="svg2"
   version="1.1"
   inkscape:version="0.91 r13725"
   xml:space="preserve"
   width="27.491501"
   height="20.625"
   viewBox="0 0 27.491501 20.625"
   sodipodi:docname="yt-simple.svg"><metadata
     id="metadata8"><rdf:RDF><cc:Work
         rdf:about=""><dc:format>image/svg+xml</dc:format><dc:type
           rdf:resource="http://purl.org/dc/dcmitype/StillImage" /><dc:title></dc:title></cc:Work></rdf:RDF></metadata><defs
     id="defs6"><clipPath
       clipPathUnits="userSpaceOnUse"
       id="clipPath16"><path
         d="m 0,16.5 21.993,0 0,-16.5 L 0,0 0,16.5 Z"
         id="path18"
         inkscape:connector-curvature="0" /></clipPath></defs><sodipodi:namedview
     pagecolor="#ffffff"
     bordercolor="#666666"
     borderopacity="1"
     objecttolerance="10"
     gridtolerance="10"
     guidetolerance="10"
     inkscape:pageopacity="0"
     inkscape:pageshadow="2"
     inkscape:window-width="1406"
     inkscape:window-height="694"
     id="namedview4"
     showgrid="false"
     inkscape:zoom="11.442424"
     inkscape:cx="2.865189"
     inkscape:cy="10.3125"
     inkscape:window-x="0"
     inkscape:window-y="0"
     inkscape:window-maximized="0"
     inkscape:current-layer="g10" /><g
     id="g10"
     inkscape:groupmode="layer"
     inkscape:label="Vector Smart Object9"
     transform="matrix(1.25,0,0,-1.25,0,20.625)"><g
       id="g12"><g
         id="g14"
         clip-path="url(#clipPath16)"><g
           id="g20"
           transform="translate(8.25,4.125)"><path
             id="path22"
             style="fill:#373535;fill-opacity:1;fill-rule:nonzero;stroke:none"
             d="M 0,0 0,8.25 6.876,4.125 0,0 Z m 13.523,8.813 c 0,0 -0.214,1.619 -0.875,2.331 -0.835,0.933 -1.774,0.939 -2.204,0.992 -3.077,0.239 -7.694,0.239 -7.694,0.239 l -0.01,0 c 0,0 -4.615,0 -7.693,-0.239 -0.43,-0.053 -1.366,-0.059 -2.203,-0.992 -0.658,-0.712 -0.875,-2.331 -0.875,-2.331 0,0 -0.219,-1.896 -0.219,-3.795 l 0,-1.779 c 0,-1.899 0.219,-3.799 0.219,-3.799 0,0 0.215,-1.615 0.875,-2.327 0.837,-0.933 1.935,-0.905 2.425,-1.002 1.758,-0.181 7.478,-0.236 7.478,-0.236 0,0 4.62,0.009 7.697,0.244 0.43,0.057 1.369,0.061 2.204,0.993 0.661,0.711 0.875,2.328 0.875,2.328 0,0 0.22,1.9 0.22,3.798 l 0,1.78 c 0,1.899 -0.22,3.795 -0.22,3.795" /></g></g></g></g></svg>