<?xml version="1.0" encoding="UTF-8" standalone="no"?>
<!-- Created with Inkscape (http://www.inkscape.org/) -->

<svg
   xmlns:dc="http://purl.org/dc/elements/1.1/"
   xmlns:cc="http://creativecommons.org/ns#"
   xmlns:rdf="http://www.w3.org/1999/02/22-rdf-syntax-ns#"
   xmlns:svg="http://www.w3.org/2000/svg"
   xmlns="http://www.w3.org/2000/svg"
   xmlns:sodipodi="http://sodipodi.sourceforge.net/DTD/sodipodi-0.dtd"
   xmlns:inkscape="http://www.inkscape.org/namespaces/inkscape"
   id="svg2"
   version="1.1"
   inkscape:version="0.91 r13725"
   xml:space="preserve"
   width="40"
   height="40"
   viewBox="0 0 40 40"
   sodipodi:docname="yt.svg"><metadata
     id="metadata8"><rdf:RDF><cc:Work
         rdf:about=""><dc:format>image/svg+xml</dc:format><dc:type
           rdf:resource="http://purl.org/dc/dcmitype/StillImage" /><dc:title></dc:title></cc:Work></rdf:RDF></metadata><defs
     id="defs6"><clipPath
       clipPathUnits="userSpaceOnUse"
       id="clipPath20"><path
         d="M 0,32 32,32 32,0 0,0 0,32 Z"
         id="path22"
         inkscape:connector-curvature="0" /></clipPath></defs><sodipodi:namedview
     pagecolor="#ffffff"
     bordercolor="#666666"
     borderopacity="1"
     objecttolerance="10"
     gridtolerance="10"
     guidetolerance="10"
     inkscape:pageopacity="0"
     inkscape:pageshadow="2"
     inkscape:window-width="1413"
     inkscape:window-height="623"
     id="namedview4"
     showgrid="false"
     inkscape:zoom="5.9"
     inkscape:cx="-1.1016949"
     inkscape:cy="20"
     inkscape:window-x="0"
     inkscape:window-y="0"
     inkscape:window-maximized="0"
     inkscape:current-layer="g10" /><g
     id="g10"
     inkscape:groupmode="layer"
     inkscape:label="Vector Smart Object8"
     transform="matrix(1.25,0,0,-1.25,0,40)"><g
       id="g12"
       transform="translate(13.2568,12.625)"
       style="fill:#ff7f2a" /><g
       id="g16"
       style="fill:#ff7f2a"><g
         id="g18"
         clip-path="url(#clipPath20)"
         style="fill:#ff7f2a"><g
           id="g24"
           transform="translate(27,15.8628)"
           style="fill:#ff7f2a"><path
             id="path26"
             style="fill:#ff7f2a;fill-opacity:1;fill-rule:nonzero;stroke:none"
             d="m 0,0 c 0,-1.898 -0.22,-3.797 -0.22,-3.797 0,0 -0.215,-1.618 -0.875,-2.328 -0.836,-0.933 -1.774,-0.937 -2.204,-0.994 -3.077,-0.235 -7.697,-0.244 -7.697,-0.244 0,0 -5.72,0.055 -7.478,0.237 -0.49,0.096 -1.588,0.068 -2.425,1.001 -0.661,0.712 -0.875,2.328 -0.875,2.328 0,0 -0.219,1.899 -0.219,3.798 l 0,1.779 c 0,1.899 0.219,3.796 0.219,3.796 0,0 0.216,1.618 0.875,2.33 0.837,0.933 1.773,0.94 2.203,0.992 3.078,0.239 7.693,0.239 7.693,0.239 l 0.01,0 c 0,0 4.617,0 7.694,-0.239 0.43,-0.052 1.368,-0.059 2.204,-0.992 0.66,-0.712 0.875,-2.33 0.875,-2.33 0,0 0.22,-1.897 0.22,-3.796 L 0,0 Z m -27,-15.863 32,0 0,32 -32,0 0,-32 z m 13.2568,12.6252 6.876,4.125 -6.876,4.125 0,-8.25 z" /></g></g></g></g></svg>