<?xml version="1.0" encoding="UTF-8" standalone="no"?><svg xmlns:dc="http://purl.org/dc/elements/1.1/" xmlns:cc="http://creativecommons.org/ns#" xmlns:rdf="http://www.w3.org/1999/02/22-rdf-syntax-ns#" xmlns="http://www.w3.org/2000/svg" width="133.993" height="133.791" viewBox="0 0 125.61875 125.42875" id="svg4335" version="1.1"><metadata id="metadata4340"><rdf:RDF><cc:Work><dc:format>image/svg+xml</dc:format><dc:type rdf:resource="http://purl.org/dc/dcmitype/StillImage"/><dc:title/></cc:Work></rdf:RDF></metadata><path id="path326" d="M117.353 55.688c0 1.424-.667 2.187-1.997 2.187h-6.366V53.4c0-3.325-.475-5.037-3.325-5.037h-2.85c-2.851 0-3.326 1.712-3.326 5.037v4.475h-4.467c-3.326 0-5.036.475-5.036 3.325v3.038c0 2.85 1.71 3.324 5.036 3.324h4.467v4.463c0 3.325.475 5.037 3.326 5.037h2.85c2.85 0 3.325-1.712 3.325-5.037v-4.463h6.366c1.237 0 1.902.663 1.997 1.9v14.45c0 3.513-1.047 6.176-3.517 8.55l-21.19 21.188c-2.47 2.462-5.226 3.612-8.646 3.612H41.62c-3.421 0-6.176-1.15-8.648-3.612l-21.19-21.188c-2.468-2.474-3.61-5.037-3.515-8.55V42c0-3.513 1.14-6.55 3.706-9.125l21.57-21.85c2.186-2.188 4.94-2.85 8.077-2.85H84c3.135 0 5.891.662 8.076 2.85l21.569 21.85c2.473 2.575 3.708 5.612 3.708 9.125v13.688zM97.873 5.513C94.165 1.9 89.51 0 83.904 0h-42.19c-5.606 0-10.358 1.9-13.968 5.513L5.417 27.75C1.9 31.262 0 35.925 0 41.05v42.862C0 89.8 1.996 94.362 5.986 98.25l21.192 21.2c4.18 4.175 8.836 6.075 14.822 5.975h41.62c5.795 0 10.546-1.7 14.822-5.975l21.19-21.2c3.897-3.888 5.987-8.55 5.987-14.338V41.05c0-5.125-1.9-9.787-5.416-13.3L97.873 5.512m-26.824 64.05c0 9.788-.38 13.876-9.123 13.876-8.742 0-9.122-4-9.122-13.688V56.637c0-9.787.38-13.874 9.122-13.874 8.743 0 9.123 3.987 9.123 13.687v13.113zm-9.123-36.774c-18.529 0-19.1 8.925-19.1 33.162 0 18.913 2.091 27.462 19.1 27.462 17.864 0 19.1-9.5 19.1-30.6 0-21-1.236-30.025-19.1-30.025" fill="#231f20" fill-opacity="1" fill-rule="nonzero" stroke="none"/></svg>