<?xml version="1.0" encoding="UTF-8" standalone="no"?><svg xmlns:dc="http://purl.org/dc/elements/1.1/" xmlns:cc="http://creativecommons.org/ns#" xmlns:rdf="http://www.w3.org/1999/02/22-rdf-syntax-ns#" xmlns="http://www.w3.org/2000/svg" width="133.995" height="133.803" viewBox="0 0 125.62 125.44039" id="svg4356" version="1.1"><metadata id="metadata4361"><rdf:RDF><cc:Work><dc:format>image/svg+xml</dc:format><dc:type rdf:resource="http://purl.org/dc/dcmitype/StillImage"/><dc:title/></cc:Work></rdf:RDF></metadata><path id="path32" d="M85.705 51.875c0-13.012-1.235-19.188-17.199-19.188-11.117 0-15.962 2.563-15.962 14.063 0 2.563 1.045 3.225 3.705 3.225h2.281c2.185 0 3.515-.375 3.515-2.275 0-4.75 1.805-5.225 6.461-5.225 4.848 0 7.221.475 7.221 7.225 0 10.35-7.6 10.637-14.632 13.588-8.076 3.412-9.313 9.587-9.313 18.525v5.7c0 4.174 1.807 4.85 5.322 4.85h23.091c3.515 0 5.321-.576 5.321-3.713V85.8c0-2.938-1.806-3.513-5.321-3.513H63.376c-1.331 0-1.712-.662-1.712-2.187v-3.138c0-10.162 24.041-3.8 24.041-25.087m31.646 3.812c0 1.425-.665 2.188-1.995 2.188h-6.366V53.4c0-3.325-.476-5.038-3.326-5.038h-2.852c-2.85 0-3.326 1.713-3.326 5.038v4.475h-4.465c-3.325 0-5.036.475-5.036 3.325v3.037c0 2.85 1.711 3.326 5.036 3.326h4.465v4.462c0 3.325.476 5.037 3.326 5.037h2.852c2.85 0 3.326-1.712 3.326-5.037v-4.463h6.366c1.235 0 1.9.663 1.995 1.9V83.9c0 3.525-1.046 6.188-3.516 8.563L92.646 113.65c-2.471 2.462-5.227 3.612-8.646 3.612H41.619c-3.42 0-6.177-1.15-8.647-3.612l-21.19-21.188c-2.47-2.475-3.61-5.037-3.516-8.562V42c0-3.512 1.141-6.55 3.706-9.125l21.57-21.85c2.186-2.187 4.942-2.85 8.077-2.85H84c3.135 0 5.89.662 8.076 2.85l21.569 21.85c2.47 2.575 3.706 5.612 3.706 9.125v13.688zM97.87 5.513C94.166 1.9 89.511 0 83.902 0H41.715c-5.606 0-10.358 1.9-13.968 5.513L5.415 27.75C1.9 31.262 0 35.925 0 41.05V83.9c0 5.9 1.996 10.463 5.985 14.35l21.191 21.2c4.18 4.175 8.837 6.075 14.824 5.987h41.62c5.796 0 10.546-1.712 14.821-5.987l21.191-21.2c3.895-3.888 5.988-8.55 5.988-14.35V41.05c0-5.125-1.903-9.787-5.418-13.3L97.87 5.512M39.94 34.026h-8.647c-3.325 0-5.037.563-5.037 3.325v3.138c0 2.75 1.712 3.325 5.037 3.325h1.996c1.235 0 1.805.662 1.805 2.562v41.05c0 3.325.57 5.038 3.326 5.038h3.23c2.756 0 3.326-1.713 3.326-5.038V37.35c0-2.762-1.711-3.325-5.036-3.325" fill="#231f20" fill-opacity="1" fill-rule="nonzero" stroke="none"/></svg>