<?xml version="1.0" encoding="UTF-8" standalone="no"?><svg xmlns:dc="http://purl.org/dc/elements/1.1/" xmlns:cc="http://creativecommons.org/ns#" xmlns:rdf="http://www.w3.org/1999/02/22-rdf-syntax-ns#" xmlns="http://www.w3.org/2000/svg" width="133.995" height="133.791" viewBox="0 0 125.62 125.42874" id="svg5492" version="1.1"><metadata id="metadata5497"><rdf:RDF><cc:Work><dc:format>image/svg+xml</dc:format><dc:type rdf:resource="http://purl.org/dc/dcmitype/StillImage"/><dc:title/></cc:Work></rdf:RDF></metadata><path id="path332" d="M117.353 55.687c0 1.413-.667 2.175-1.997 2.175h-6.366V53.4c0-3.325-.476-5.038-3.326-5.038h-2.85c-2.851 0-3.326 1.713-3.326 5.038v4.462H95.02c-3.325 0-5.036.475-5.036 3.325v3.05c0 2.85 1.711 3.325 5.036 3.325h4.467v4.463c0 3.325.475 5.037 3.326 5.037h2.85c2.85 0 3.326-1.712 3.326-5.037v-4.463h6.366c1.235 0 1.9.663 1.997 1.9V83.9c0 3.512-1.047 6.175-3.518 8.55l-21.189 21.2c-2.471 2.462-5.227 3.6-8.646 3.6H41.619c-3.422 0-6.177-1.137-8.645-3.6l-21.191-21.2c-2.47-2.463-3.612-5.038-3.517-8.55V42c0-3.513 1.141-6.563 3.706-9.125l21.57-21.85c2.187-2.188 4.942-2.85 8.077-2.85H84c3.136 0 5.89.662 8.076 2.85l21.57 21.85c2.469 2.562 3.707 5.612 3.707 9.125v13.687zM97.87 5.512C94.168 1.9 89.511 0 83.904 0h-42.19c-5.606 0-10.356 1.9-13.968 5.512L5.415 27.75C1.901 31.262 0 35.912 0 41.05V83.9c0 5.887 1.996 10.45 5.986 14.35l21.191 21.188c4.18 4.187 8.835 6.087 14.822 5.987H83.62c5.796 0 10.547-1.712 14.822-5.987l21.192-21.188c3.894-3.9 5.986-8.55 5.986-14.35V41.05c0-5.138-1.903-9.788-5.418-13.3L97.873 5.512m-59.728 28.5h-8.648c-3.325 0-5.036.575-5.036 3.325v3.138c0 2.762 1.711 3.325 5.036 3.325h1.995c1.235 0 1.805.662 1.805 2.575v41.037c0 3.338.57 5.038 3.328 5.038h3.23c2.756 0 3.327-1.7 3.327-5.038V37.337c0-2.75-1.711-3.325-5.037-3.325m30.48 49.7c-6.746 0-8.741-1.9-8.741-7.5v-9.037c2.374-.563 4.94-1.138 7.696-1.138 7.317 0 8.932 1.9 8.932 8.55 0 6.088-.855 9.125-7.887 9.125zm.19-26.225c-2.375 0-4.75.188-7.221.663-.952.187-1.71-.188-1.71-1.325v-1.9c0-8.938.663-12.163 8.17-12.163 6.462 0 7.888.375 7.888 5.038 0 1.9 1.33 2.462 3.517 2.462h2.278c2.662 0 3.707-.662 3.707-3.225 0-11.212-4.845-14.062-15.963-14.062-17.389 0-19.385 7.025-19.385 29.262.095 21.475-1.14 30.975 18.34 30.975 12.354 0 17.864-4.087 17.864-19.762 0-12.925-5.987-15.963-17.485-15.963" fill="#231f20" fill-opacity="1" fill-rule="nonzero" stroke="none"/></svg>