<?xml version="1.0" encoding="UTF-8" standalone="no"?><svg xmlns:dc="http://purl.org/dc/elements/1.1/" xmlns:cc="http://creativecommons.org/ns#" xmlns:rdf="http://www.w3.org/1999/02/22-rdf-syntax-ns#" xmlns="http://www.w3.org/2000/svg" width="133.993" height="133.803" viewBox="0 0 125.61875 125.44039" id="svg6062" version="1.1"><metadata id="metadata6067"><rdf:RDF><cc:Work><dc:format>image/svg+xml</dc:format><dc:type rdf:resource="http://purl.org/dc/dcmitype/StillImage"/><dc:title/></cc:Work></rdf:RDF></metadata><path id="path26" d="M68.7 84.188c-6.08 0-8.266-2.376-8.266-8.363s2.186-8.738 8.266-8.738c6.082 0 8.269 2.75 8.269 8.738 0 5.987-2.186 8.363-8.269 8.363zm0-42.476c5.228 0 7.319 1.9 7.319 8.275 0 6.175-2.092 8.263-7.319 8.263-5.224 0-7.315-2.087-7.315-8.262 0-6.376 2.091-8.276 7.315-8.276zM79.912 62.15c5.322-3.9 5.417-7.888 5.417-11.125V47.8c-.57-10.737-4.18-14.825-16.629-14.825-12.446 0-16.056 4.087-16.628 14.825v3.225c0 3.237.095 7.225 5.417 11.125-6.367 2.462-6.842 7.888-6.842 15.012 0 10.55 3.705 15.775 18.053 16.05 14.349-.275 18.056-5.5 18.056-16.05 0-7.125-.475-12.55-6.844-15.012m37.44-6.463c0 1.425-.666 2.188-1.996 2.188h-6.365V53.4c0-3.325-.476-5.038-3.326-5.038h-2.853c-2.848 0-3.325 1.713-3.325 5.038v4.475h-4.465c-3.325 0-5.036.475-5.036 3.325v3.037c0 2.85 1.711 3.326 5.036 3.326h4.465v4.462c0 3.325.477 5.037 3.325 5.037h2.853c2.85 0 3.326-1.712 3.326-5.037v-4.463h6.365c1.236 0 1.901.663 1.996 1.9V83.9c0 3.525-1.046 6.188-3.516 8.563l-21.19 21.187c-2.471 2.462-5.226 3.612-8.645 3.612H41.62c-3.42 0-6.175-1.15-8.647-3.612L11.784 92.462c-2.47-2.475-3.614-5.037-3.517-8.562V42c0-3.512 1.142-6.55 3.707-9.125l21.568-21.85c2.187-2.188 4.942-2.85 8.077-2.85H84c3.134 0 5.889.662 8.075 2.85l21.57 21.85c2.47 2.575 3.707 5.612 3.707 9.125v13.688zM97.872 5.513C94.165 1.9 89.511 0 83.903 0h-42.19c-5.606 0-10.358 1.9-13.966 5.513L5.415 27.75C1.901 31.262 0 35.925 0 41.05V83.9c0 5.9 1.996 10.463 5.986 14.35l21.192 21.2c4.178 4.175 8.835 6.075 14.822 5.987h41.62c5.796 0 10.546-1.712 14.822-5.987l21.19-21.2c3.897-3.888 5.987-8.55 5.987-14.35V41.05c0-5.125-1.9-9.787-5.416-13.3L97.87 5.512M38.594 34.026h-8.648c-3.324 0-5.035.563-5.035 3.325v3.138c0 2.75 1.711 3.325 5.035 3.325h1.996c1.235 0 1.804.662 1.804 2.562v41.05c0 3.325.571 5.038 3.328 5.038h3.228c2.758 0 3.33-1.713 3.33-5.038V37.35c0-2.762-1.713-3.325-5.038-3.325" fill="#231f20" fill-opacity="1" fill-rule="nonzero" stroke="none"/></svg>