<?xml version="1.0" encoding="UTF-8" standalone="no"?><svg xmlns:dc="http://purl.org/dc/elements/1.1/" xmlns:cc="http://creativecommons.org/ns#" xmlns:rdf="http://www.w3.org/1999/02/22-rdf-syntax-ns#" xmlns="http://www.w3.org/2000/svg" width="133.995" height="133.803" viewBox="0 0 125.62 125.44039" id="svg4925" version="1.1"><metadata id="metadata4930"><rdf:RDF><cc:Work><dc:format>image/svg+xml</dc:format><dc:type rdf:resource="http://purl.org/dc/dcmitype/StillImage"/><dc:title/></cc:Work></rdf:RDF></metadata><path id="path20" d="M62.711 83.713c-6.746 0-8.741-1.9-8.741-7.5v-9.025c2.376-.576 4.941-1.15 7.696-1.15 7.318 0 8.933 1.9 8.933 8.55 0 6.087-.855 9.124-7.888 9.124zm.192-26.225c-2.377 0-4.752.187-7.223.662-.95.2-1.71-.187-1.71-1.325v-1.9c0-8.937.665-12.162 8.171-12.162 6.461 0 7.888.375 7.888 5.037 0 1.9 1.33 2.475 3.516 2.475h2.28c2.661 0 3.706-.675 3.706-3.237 0-11.213-4.845-14.063-15.964-14.063-17.388 0-19.385 7.038-19.385 29.263.095 21.475-1.14 30.975 18.34 30.975 12.354 0 17.864-4.075 17.864-19.763 0-12.925-5.986-15.963-17.484-15.963m54.45-1.8c0 1.426-.665 2.188-1.995 2.188h-6.366V53.4c0-3.325-.476-5.037-3.326-5.037h-2.851c-2.85 0-3.325 1.712-3.325 5.037v4.475h-4.467c-3.326 0-5.036.475-5.036 3.325v3.038c0 2.85 1.71 3.325 5.036 3.325h4.467v4.462c0 3.325.475 5.038 3.325 5.038h2.851c2.85 0 3.326-1.713 3.326-5.038v-4.462h6.366c1.235 0 1.9.662 1.995 1.9V83.9c0 3.525-1.045 6.188-3.515 8.563l-21.19 21.187c-2.47 2.463-5.226 3.613-8.647 3.613H41.62c-3.42 0-6.175-1.15-8.646-3.613l-21.19-21.187c-2.472-2.475-3.61-5.038-3.517-8.563V42c0-3.512 1.142-6.55 3.707-9.125l21.568-21.85c2.187-2.188 4.943-2.85 8.078-2.85H84c3.136 0 5.893.662 8.078 2.85l21.568 21.85c2.472 2.575 3.707 5.612 3.707 9.125v13.688zM97.872 5.514C94.166 1.9 89.513 0 83.906 0H41.716C36.11 0 31.358 1.9 27.747 5.513L5.418 27.75C1.9 31.262 0 35.925 0 41.05V83.9c0 5.9 1.996 10.463 5.989 14.35l21.188 21.2c4.18 4.175 8.837 6.075 14.823 5.987h41.62c5.796 0 10.546-1.712 14.822-5.987l21.192-21.2c3.896-3.888 5.986-8.55 5.986-14.35V41.05c0-5.125-1.901-9.787-5.416-13.3L97.873 5.512" fill="#231f20" fill-opacity="1" fill-rule="nonzero" stroke="none"/></svg>