<?xml version="1.0" encoding="UTF-8" standalone="no"?><svg xmlns:dc="http://purl.org/dc/elements/1.1/" xmlns:cc="http://creativecommons.org/ns#" xmlns:rdf="http://www.w3.org/1999/02/22-rdf-syntax-ns#" xmlns="http://www.w3.org/2000/svg" id="svg2" version="1.1" xml:space="preserve" width="53.314" height="62.608" viewBox="0 0 53.314251 62.608002"><metadata id="metadata8"><rdf:RDF><cc:Work><dc:format>image/svg+xml</dc:format><dc:type rdf:resource="http://purl.org/dc/dcmitype/StillImage"/><dc:title/></cc:Work></rdf:RDF></metadata><defs id="defs6"><clipPath clipPathUnits="userSpaceOnUse" id="clipPath16"><path d="M0 50.086h42.651V0H0v50.086z" id="path18"/></clipPath></defs><g id="g10" transform="matrix(1.25 0 0 -1.25 0 62.608)"><g id="g12"><g id="g14" clip-path="url(#clipPath16)"><g id="g32" transform="translate(39.746 34.253)"><path id="path34" d="M0 0a2.907 2.907 0 0 1-2.908-2.909v-12.44a2.907 2.907 0 0 1 5.813 0v12.441A2.906 2.906 0 0 1 0 0m-36.838 0a2.908 2.908 0 0 1-2.908-2.909v-12.44a2.908 2.908 0 0 1 5.815 0v12.441A2.907 2.907 0 0 1-36.838 0m5.057 0h-.21V-21.327a3.072 3.072 0 0 1 3.07-3.07h2.216a2.904 2.904 0 0 1-.116-.807v-6.142a2.91 2.91 0 0 1 5.817 0v6.142c0 .279-.043.551-.115.807h5.4a2.904 2.904 0 0 1-.115-.807v-6.142a2.909 2.909 0 0 1 5.816 0v6.142c0 .279-.041.551-.116.807h2.216a3.073 3.073 0 0 1 3.07 3.07V0h-26.933zm19.177 5.816a1.453 1.453 0 1 0 0 2.907 1.453 1.453 0 0 0 0-2.907m-11.631 0a1.454 1.454 0 1 0-.003 2.908 1.454 1.454 0 0 0 .003-2.908m12.489 5.823l.547.82.537.807 1.209 1.814a.487.487 0 0 1-.132.672.488.488 0 0 1-.675-.135l-1.295-1.945-.545-.817-.553-.828a15.939 15.939 0 0 1-5.767 1.06c-2.062 0-4.015-.38-5.767-1.06l-.55.828-.545.817-1.297 1.946a.485.485 0 0 1-.807-.537l1.208-1.814.539-.807.547-.82c-4.115-1.916-6.898-5.546-6.898-9.7h27.142c0 4.153-2.782 7.783-6.898 9.7" fill="#000" fill-opacity="1" fill-rule="nonzero" stroke="none"/></g></g></g></g></svg>