<?xml version="1.0" encoding="UTF-8" standalone="no"?><svg xmlns:dc="http://purl.org/dc/elements/1.1/" xmlns:cc="http://creativecommons.org/ns#" xmlns:rdf="http://www.w3.org/1999/02/22-rdf-syntax-ns#" xmlns="http://www.w3.org/2000/svg" id="svg2" version="1.1" xml:space="preserve" width="50.078" height="61.498" viewBox="0 0 50.078125 61.497749"><metadata id="metadata8"><rdf:RDF><cc:Work><dc:format>image/svg+xml</dc:format><dc:type rdf:resource="http://purl.org/dc/dcmitype/StillImage"/><dc:title/></cc:Work></rdf:RDF></metadata><defs id="defs6"><clipPath clipPathUnits="userSpaceOnUse" id="clipPath16"><path d="M0 49.198h40.063V0H0v49.198z" id="path18"/></clipPath></defs><g id="g10" transform="matrix(1.25 0 0 -1.25 0 61.498)"><g id="g12" fill="red"><g id="g14" clip-path="url(#clipPath16)" fill="red"><g id="g24" transform="translate(27.267 41.343)"><path id="path26" d="M0 0c1.715 2.082 2.877 4.976 2.562 7.855C.086 7.755-2.91 6.21-4.687 4.13-6.278 2.284-7.671-.654-7.298-3.482-4.537-3.696-1.721-2.078 0 0m6.195-18.288c-.062 6.232 5.082 9.222 5.312 9.372-2.89 4.228-7.395 4.808-8.999 4.873C-1.32-3.653-4.968-6.3-6.91-6.3c-1.939 0-4.94 2.199-8.117 2.144-4.178-.063-8.029-2.431-10.179-6.171-4.339-7.526-1.11-18.682 3.118-24.791 2.067-2.985 4.532-6.346 7.765-6.223 3.118.123 4.294 2.016 8.062 2.016s4.826-2.016 8.123-1.952c3.352.06 5.477 3.043 7.527 6.04 2.372 3.469 3.35 6.828 3.408 6.999-.073.033-6.534 2.509-6.6 9.949" fill="red" fill-opacity="1" fill-rule="nonzero" stroke="none"/></g></g></g></g></svg>