<?xml version="1.0" encoding="UTF-8" standalone="no"?><svg xmlns:dc="http://purl.org/dc/elements/1.1/" xmlns:cc="http://creativecommons.org/ns#" xmlns:rdf="http://www.w3.org/1999/02/22-rdf-syntax-ns#" xmlns="http://www.w3.org/2000/svg" id="svg2" version="1.1" xml:space="preserve" width="565.65" height="593.34" viewBox="0 0 565.65002 593.34003"><metadata id="metadata8"><rdf:RDF><cc:Work><dc:format>image/svg+xml</dc:format><dc:type rdf:resource="http://purl.org/dc/dcmitype/StillImage"/><dc:title/></cc:Work></rdf:RDF></metadata><defs id="defs6"><clipPath clipPathUnits="userSpaceOnUse" id="clipPath16"><path d="M0 474.672h452.52V0H0v474.672z" id="path18"/></clipPath></defs><g id="g10" transform="matrix(1.25 0 0 -1.25 0 593.34)"><g id="g12" fill="none" fill-opacity="1" stroke="#000" stroke-opacity="1"><g id="g14" clip-path="url(#clipPath16)" fill="none" fill-opacity="1" stroke="#000" stroke-opacity="1"><g id="g20" transform="translate(293.74 162.915)" fill="none" fill-opacity="1" stroke="#000" stroke-opacity="1"><path id="path22" d="M0 0l89.652-48.884c26.128-10.456 59.127-35.373 59.127-66.817v-18.292c0-10.316-8.446-18.922-18.76-18.922h-395c-10.314 0-18.76 8.274-18.76 18.592v18.291c0 31.447 32.999 56.36 59.127 66.818l88.652 46.882m-48.811 153.37c-2.067 50.233 13.736 120.791 65.582 135.809 70.636 42.427 168.269-8.998 168.03-112.313.163-1.578.263-15.422.377-22.772 10.005-17.629 10.493-42.468 5.188-62.55-4.224-16.017-13.152-31.943-26.579-39.637C.488-51.417-135.922-49.984-162.912 49.563c-2.913 1.656-5.608 3.768-8.097 6.156-14.112 13.51-21.004 35.043-21.652 55.676-.414 13.106 1.564 28.192 7.888 39.643z" fill="none" stroke="#000" stroke-width="20" stroke-linecap="butt" stroke-linejoin="miter" stroke-miterlimit="4" stroke-dasharray="none" stroke-opacity="1" fill-opacity="1"/></g></g></g></g></svg>