<?xml version="1.0" encoding="UTF-8" standalone="no"?><svg xmlns:dc="http://purl.org/dc/elements/1.1/" xmlns:cc="http://creativecommons.org/ns#" xmlns:rdf="http://www.w3.org/1999/02/22-rdf-syntax-ns#" xmlns="http://www.w3.org/2000/svg" id="svg2" version="1.1" xml:space="preserve" width="13.854" height="15" viewBox="0 0 13.85402 15"><metadata id="metadata8"><rdf:RDF><cc:Work><dc:format>image/svg+xml</dc:format><dc:type rdf:resource="http://purl.org/dc/dcmitype/StillImage"/><dc:title/></cc:Work></rdf:RDF></metadata><defs id="defs6"><clipPath clipPathUnits="userSpaceOnUse" id="clipPath16"><path d="M0 21.336h23.376V0H0v21.336z" id="path18"/></clipPath></defs><path d="M13.854 15v-1.293c-5.164-.9-9.09-5.345-9.09-10.706 0-.224.002-.438.003-.654l2.379 2.351c.254.251.664.251.918 0a.636.636 0 0 0 0-.907L4.127 0 .19 3.79a.636.636 0 0 0 0 .908c.254.25.665.25.919 0l2.357-2.33-.002.606c0 6.077 4.504 11.1 10.39 12.026" id="path8" fill="#000"/></svg>