<?xml version="1.0" encoding="UTF-8" standalone="no"?><svg xmlns:dc="http://purl.org/dc/elements/1.1/" xmlns:cc="http://creativecommons.org/ns#" xmlns:rdf="http://www.w3.org/1999/02/22-rdf-syntax-ns#" xmlns="http://www.w3.org/2000/svg" id="svg2" version="1.1" xml:space="preserve" width="20" height="15" viewBox="0 0 20 15"><metadata id="metadata8"><rdf:RDF><cc:Work><dc:format>image/svg+xml</dc:format><dc:type rdf:resource="http://purl.org/dc/dcmitype/StillImage"/><dc:title/></cc:Work></rdf:RDF></metadata><defs id="defs6"><clipPath clipPathUnits="userSpaceOnUse" id="clipPath16"><path d="M0 12h16V0H0v12z" id="path18"/></clipPath></defs><g id="g10" transform="matrix(1.25 0 0 -1.25 0 15)"><g id="g12" fill="#000"><g id="g14" clip-path="url(#clipPath16)" fill="#000"><g id="g20" transform="translate(15 12)" fill="#000"><path id="path22" d="M0 0h-14c-.55 0-1-.45-1-1v-.758l8-4.205 8 4.205V-1C1-.45.55 0 0 0m-7-8c-.266 0-.5.094-1 .336L-15-4v-7c0-.55.45-1 1-1H0c.55 0 1 .45 1 1v7l-7-3.664C-6.5-7.906-6.734-8-7-8" fill="#000" fill-opacity="1" fill-rule="nonzero" stroke="none"/></g></g></g></g></svg>