<?xml version="1.0" encoding="UTF-8" standalone="no"?><svg xmlns:dc="http://purl.org/dc/elements/1.1/" xmlns:cc="http://creativecommons.org/ns#" xmlns:rdf="http://www.w3.org/1999/02/22-rdf-syntax-ns#" xmlns="http://www.w3.org/2000/svg" id="svg2" version="1.1" xml:space="preserve" width="40" height="40" viewBox="0 0 40 40"><metadata id="metadata8"><rdf:RDF><cc:Work><dc:format>image/svg+xml</dc:format><dc:type rdf:resource="http://purl.org/dc/dcmitype/StillImage"/><dc:title/></cc:Work></rdf:RDF></metadata><defs id="defs6"><clipPath clipPathUnits="userSpaceOnUse" id="clipPath16"><path d="M0 32h32V0H0v32z" id="path18"/></clipPath></defs><g id="g10" transform="matrix(1.25 0 0 -1.25 0 40)"><g id="g12"><g id="g14" clip-path="url(#clipPath16)"><g id="g28" transform="translate(27.111 16.474)"><path d="M0 0v40h40V0H0zm18.184 6.25h6.966l-2.3 1.445h-2.192c.811.673 2.51 2.09 2.51 4.785 0 2.623-1.484 3.867-2.969 5.036-.46.46-.992.955-.992 1.736 0 .777.531 1.203.92 1.525l1.275.989c1.558 1.31 2.973 2.517 2.973 4.964 0 3.333-3.222 6.698-9.307 6.698-5.128 0-7.603-2.445-7.603-5.069 0-1.275.635-3.08 2.723-4.32 2.19-1.349 5.165-1.525 6.757-1.635-.497-.637-1.06-1.311-1.06-2.41 0-.601.176-.953.351-1.38-.388.037-.777.07-1.132.07-3.748 0-5.87-2.802-5.87-5.567 0-1.629.74-3.437 2.262-4.75 2.018-1.665 4.775-2.117 6.688-2.117zm-2.582 1.338c-.923 0-1.911.462-2.479 1.172-.602.745-.775 1.7-.775 2.623 0 2.374 1.379 6.308 4.422 6.308.883 0 1.833-.424 2.402-.99.815-.819.885-1.95.885-2.59 0-2.552-1.522-6.523-4.455-6.523zm12.98 6.504h1.752v3.545h3.555v1.771h-3.555v3.563h-1.752v-3.563h-3.537v-1.771h3.537v-3.545zm-11.248 9.306c-.319 0-2.23.069-3.715.569-.777.282-3.04 1.133-3.04 3.65 0 2.516 2.44 4.328 6.224 4.328 3.396 0 5.2-1.635 5.2-3.832 0-1.811-1.165-2.765-3.857-4.677a5.563 5.563 0 0 0-.812-.038z" transform="matrix(.8 0 0 -.8 -27.111 15.526)" id="path30" fill="#373536" fill-opacity="1" fill-rule="nonzero" stroke="none"/></g></g></g></g></svg>