<?xml version="1.0" encoding="UTF-8" standalone="no"?><svg xmlns:dc="http://purl.org/dc/elements/1.1/" xmlns:cc="http://creativecommons.org/ns#" xmlns:rdf="http://www.w3.org/1999/02/22-rdf-syntax-ns#" xmlns="http://www.w3.org/2000/svg" version="1.1" id="artwork" x="0" y="0" width="13.465" height="15" viewBox="0 0 13.46524 15" xml:space="preserve"><metadata id="metadata67"><rdf:RDF><cc:Work><dc:format>image/svg+xml</dc:format><dc:type rdf:resource="http://purl.org/dc/dcmitype/StillImage"/><dc:title/></cc:Work></rdf:RDF></metadata><g id="g3" transform="matrix(.58316 0 0 .58316 -11.648 -9.996)"><g id="g5"><linearGradient id="SVGID_1_" gradientUnits="userSpaceOnUse" x1="31.801" y1="183.291" x2="15.019" y2="166.509" gradientTransform="matrix(1 0 0 -1 0 202)"><stop offset="0" id="stop8" stop-color="#00a0ff"/><stop offset=".007" id="stop10" stop-color="#00a1ff"/><stop offset=".26" id="stop12" stop-color="#00beff"/><stop offset=".512" id="stop14" stop-color="#00d2ff"/><stop offset=".76" id="stop16" stop-color="#00dfff"/><stop offset="1" id="stop18" stop-color="#00e3ff"/></linearGradient><path d="M20.436 17.538c-.291.308-.463.786-.463 1.405v22.116c0 .62.172 1.097.463 1.405l.074.072 12.389-12.389v-.292L20.51 17.465l-.074.073z" id="path20" fill="url(#SVGID_1_)"/><linearGradient id="SVGID_2_" gradientUnits="userSpaceOnUse" x1="43.834" y1="171.999" x2="19.638" y2="171.999" gradientTransform="matrix(1 0 0 -1 0 202)"><stop offset="0" id="stop23" stop-color="#ffe000"/><stop offset=".409" id="stop25" stop-color="#ffbd00"/><stop offset=".775" id="stop27" stop-color="orange"/><stop offset="1" id="stop29" stop-color="#ff9c00"/></linearGradient><path d="M37.028 34.278l-4.129-4.131v-.292l4.13-4.13.093.053 4.893 2.78c1.397.794 1.397 2.093 0 2.888l-4.893 2.78-.094.052z" id="path31" fill="url(#SVGID_2_)"/><linearGradient id="SVGID_3_" gradientUnits="userSpaceOnUse" x1="34.828" y1="169.705" x2="12.07" y2="146.947" gradientTransform="matrix(1 0 0 -1 0 202)"><stop offset="0" id="stop34" stop-color="#ff3a44"/><stop offset="1" id="stop36" stop-color="#c31162"/></linearGradient><path d="M37.122 34.225l-4.224-4.224-12.462 12.463c.46.488 1.221.548 2.078.062l14.608-8.301" id="path38" fill="url(#SVGID_3_)"/><linearGradient id="SVGID_4_" gradientUnits="userSpaceOnUse" x1="17.297" y1="191.823" x2="27.46" y2="181.661" gradientTransform="matrix(1 0 0 -1 0 202)"><stop offset="0" id="stop41" stop-color="#32a071"/><stop offset=".069" id="stop43" stop-color="#2da771"/><stop offset=".476" id="stop45" stop-color="#15cf74"/><stop offset=".801" id="stop47" stop-color="#06e775"/><stop offset="1" id="stop49" stop-color="#00f076"/></linearGradient><path d="M37.122 25.777l-14.608-8.3c-.857-.487-1.618-.426-2.078.062l12.463 12.463 4.223-4.225z" id="path51" fill="url(#SVGID_4_)"/><g id="g53"><path d="M37.029 34.132L22.514 42.38c-.812.461-1.538.43-2.004.011l-.074.074.074.072c.466.42 1.192.451 2.004-.011l14.608-8.3-.093-.094z" id="path55" opacity=".2"/><path d="M20.436 42.318c-.291-.308-.463-.786-.463-1.405v.146c0 .619.172 1.097.463 1.405l.074-.074-.074-.072z" id="path57" opacity=".12"/></g><path d="M42.015 31.299l-4.986 2.833.093.093 4.893-2.78c.699-.397 1.048-.92 1.048-1.443-.059.473-.415.936-1.048 1.297z" id="path59" opacity=".12"/><path d="M22.514 17.623l19.501 11.08c.634.36.989.824 1.048 1.298 0-.523-.349-1.047-1.048-1.444l-19.501-11.08c-1.398-.794-2.541-.134-2.541 1.466v.146c0-1.6 1.143-2.26 2.541-1.466z" id="path61" opacity=".25" fill="#fff"/></g></g></svg>