<?xml version="1.0" encoding="UTF-8" standalone="no"?><svg xmlns:dc="http://purl.org/dc/elements/1.1/" xmlns:cc="http://creativecommons.org/ns#" xmlns:rdf="http://www.w3.org/1999/02/22-rdf-syntax-ns#" xmlns="http://www.w3.org/2000/svg" id="svg2" version="1.1" xml:space="preserve" width="26.424" height="27.179" viewBox="0 0 26.424 27.179001"><metadata id="metadata8"><rdf:RDF><cc:Work><dc:format>image/svg+xml</dc:format><dc:type rdf:resource="http://purl.org/dc/dcmitype/StillImage"/><dc:title/></cc:Work></rdf:RDF></metadata><defs id="defs6"><clipPath clipPathUnits="userSpaceOnUse" id="clipPath16"><path d="M0 21.743h21.139V0H0v21.743z" id="path18"/></clipPath></defs><g id="g10" transform="matrix(1.25 0 0 -1.25 0 27.179)"><g id="g12"><g id="g14" clip-path="url(#clipPath16)"><g id="g24" transform="translate(18.295 8.366)"><path id="path26" d="M0 0v2.851h2.844v1.417H0v2.835h-1.401V4.268h-2.83V2.851h2.83V0H0zm-10.825-7.179c-3.027 0-4.98 1.448-4.98 3.462 0 2.014 1.81 2.693 2.434 2.92 1.187.4 2.716.455 2.97.455.284 0 .425 0 .65-.029 2.153-1.53 3.087-2.294 3.087-3.744 0-1.756-1.444-3.064-4.161-3.064m-.027 11.403c-2.435 0-3.538 3.148-3.538 5.047 0 .74.14 1.502.622 2.098.453.568 1.244.937 1.982.937 2.347 0 3.564-3.176 3.564-5.218 0-.51-.056-1.417-.707-2.072a2.898 2.898 0 0 0-1.923-.792m3.706-3.26l-1.02.791c-.31.257-.735.598-.735 1.22 0 .624.425 1.022.793 1.39 1.188.935 2.375 1.93 2.375 4.027 0 2.156-1.358 3.29-2.007 3.83h1.753l1.84 1.155h-5.574c-1.53 0-3.735-.362-5.35-1.695-1.216-1.049-1.81-2.496-1.81-3.799 0-2.212 1.699-4.454 4.697-4.454.284 0 .594.028.905.058-.14-.342-.281-.625-.281-1.106 0-.879.45-1.417.849-1.927-1.274-.088-3.653-.23-5.406-1.308-1.67-.992-2.178-2.437-2.178-3.457 0-2.099 1.979-4.055 6.082-4.055 4.868 0 7.445 2.692 7.445 5.358C-4.768-1.05-5.9-.085-7.146.964" fill="#373536" fill-opacity="1" fill-rule="nonzero" stroke="none"/></g></g></g></g></svg>