<?xml version="1.0" encoding="UTF-8" standalone="no"?><svg xmlns:dc="http://purl.org/dc/elements/1.1/" xmlns:cc="http://creativecommons.org/ns#" xmlns:rdf="http://www.w3.org/1999/02/22-rdf-syntax-ns#" xmlns="http://www.w3.org/2000/svg" id="svg2" version="1.1" xml:space="preserve" width="52.819" height="52.237" viewBox="0 0 52.818626 52.237499"><metadata id="metadata8"><rdf:RDF><cc:Work><dc:format>image/svg+xml</dc:format><dc:type rdf:resource="http://purl.org/dc/dcmitype/StillImage"/><dc:title/></cc:Work></rdf:RDF></metadata><defs id="defs6"><clipPath clipPathUnits="userSpaceOnUse" id="clipPath16"><path d="M0 41.79h42.255V0H0v41.79z" id="path18"/></clipPath></defs><g id="g10" transform="matrix(1.25 0 0 -1.25 0 52.237)"><g id="g12" fill="#000" fill-opacity="1" stroke="none"><g id="g14" clip-path="url(#clipPath16)" fill="#000" fill-opacity="1" stroke="none"><g id="g20" transform="translate(2.24 39.015)" fill="#000" fill-opacity="1" stroke="none"><path id="path22" d="M0 0c1.037 1.377 4.625.001 13.625.5 4.369.242 9.249 2.542 14.187 2.25 11.626-.687 12.813-12.375 12.001-24.937-.138-2.129-6.875.437-12.501-1.625-2.697-.99 7.964-11.587-2.437-15.188-1.625-.563-3.625 15.625-13.312 19.063C9-14.688 8.375-10.375 7.625-6.75c-2.313-4.5 1.688-14.937.625-15.187-1.539-.363-6.343-1.189-7.125-.313C-2.563-18.119-3.625-4.812 0 0" fill="#000" fill-opacity="1" fill-rule="nonzero" stroke="none"/></g></g></g></g></svg>