<?xml version="1.0" encoding="UTF-8" standalone="no"?><svg xmlns:dc="http://purl.org/dc/elements/1.1/" xmlns:cc="http://creativecommons.org/ns#" xmlns:rdf="http://www.w3.org/1999/02/22-rdf-syntax-ns#" xmlns="http://www.w3.org/2000/svg" height="17.962" id="Phone" version="1.1" viewBox="0 0 18 17.962424" width="18" xml:space="preserve"><metadata id="metadata9"><rdf:RDF><cc:Work><dc:format>image/svg+xml</dc:format><dc:type rdf:resource="http://purl.org/dc/dcmitype/StillImage"/><dc:title/></cc:Work></rdf:RDF></metadata><path id="path3" d="M13.443 0c-2.9-.003-5.892 2.199-8.209 4.58C2.62 6.965-.003 10.24 0 13.406c.07 3.098 1.26 3.742 2.406 4.483 0 0 .628.264 1.174-.211.546-.476 2.941-2.87 2.941-2.87s.852-.71.264-1.495c-.438-.587-1.414-1.64-1.65-1.893-.001 0 .938-1.76 1.795-2.8 1.269-1.544 2.835-2.576 3.726-3.118l.762-.404c.152.141 1.306 1.22 1.932 1.687.786.587 1.496-.264 1.496-.264s2.394-2.395 2.869-2.94c.475-.547.213-1.175.213-1.175C17.187 1.26 16.542.071 13.443 0z" fill="#1a1a1a"/></svg>