<?xml version="1.0" encoding="UTF-8" standalone="no"?><svg xmlns:dc="http://purl.org/dc/elements/1.1/" xmlns:cc="http://creativecommons.org/ns#" xmlns:rdf="http://www.w3.org/1999/02/22-rdf-syntax-ns#" xmlns="http://www.w3.org/2000/svg" id="svg2" version="1.1" xml:space="preserve" width="49.882" height="51.564" viewBox="0 0 49.881626 51.564377"><metadata id="metadata8"><rdf:RDF><cc:Work><dc:format>image/svg+xml</dc:format><dc:type rdf:resource="http://purl.org/dc/dcmitype/StillImage"/><dc:title/></cc:Work></rdf:RDF></metadata><defs id="defs6"><clipPath clipPathUnits="userSpaceOnUse" id="clipPath16"><path d="M0 41.251h39.905V0H0v41.251z" id="path18"/></clipPath></defs><g id="g10" transform="matrix(1.25 0 0 -1.25 0 51.564)"><g id="g12" fill="#000" fill-opacity="1" stroke="none"><g id="g14" clip-path="url(#clipPath16)" fill="#000" fill-opacity="1" stroke="none"><g id="g20" transform="translate(11.252 22.175)" fill="#000" fill-opacity="1" stroke="none"><path id="path22" d="M0 0c9.688 3.438 11.688 19.625 13.313 19.062 10.401-3.6-.415-14.839 2.437-15.187 5.754-.703 12.564 1.126 12.702-1.003.813-12.562-.39-23.625-12.015-24.312-4.938-.292-13.791 2.352-14.937 2.937-3.187 1.625-3.875 9.063-5.125 12.625-1.562-9.812 2.919-16.267 2.188-16.25-1.337.03-6.475-.259-6.938.313-3.405 4.207-4.125 18.312-.313 22C-7.671 1.168-2.688-.06 0 0" fill="#000" fill-opacity="1" fill-rule="nonzero" stroke="none"/></g></g></g></g></svg>