<?xml version="1.0" encoding="UTF-8" standalone="no"?><svg xmlns:dc="http://purl.org/dc/elements/1.1/" xmlns:cc="http://creativecommons.org/ns#" xmlns:rdf="http://www.w3.org/1999/02/22-rdf-syntax-ns#" xmlns="http://www.w3.org/2000/svg" id="svg2" version="1.1" xml:space="preserve" width="29.938" height="29.937" viewBox="0 0 29.93775 29.936501"><metadata id="metadata8"><rdf:RDF><cc:Work><dc:format>image/svg+xml</dc:format><dc:type rdf:resource="http://purl.org/dc/dcmitype/StillImage"/><dc:title/></cc:Work></rdf:RDF></metadata><defs id="defs6"><clipPath clipPathUnits="userSpaceOnUse" id="clipPath16"><path d="M0 23.949h23.95V0H0v23.949z" id="path18"/></clipPath></defs><g id="g10" transform="matrix(1.25 0 0 -1.25 0 29.936)"><g id="g12"><g id="g14" clip-path="url(#clipPath16)"><g id="g20" transform="translate(21.616 4.628)"><path id="path22" transform="matrix(.8 0 0 -.8 -21.616 19.321)" d="M5.785 0A5.792 5.792 0 0 0 0 5.785v18.367a5.792 5.792 0 0 0 5.785 5.785h18.367a5.792 5.792 0 0 0 5.785-5.785V5.785A5.792 5.792 0 0 0 24.152 0H5.785zm20.688 3.447V8.521l-5.057.016-.018-5.072 4.413-.016.662-.002zM14.969 9.7c1.757 0 3.314.87 4.271 2.196.621.866.998 1.924.998 3.072a5.277 5.277 0 0 1-5.271 5.27 5.272 5.272 0 0 1-5.266-5.27c0-1.148.37-2.206.994-3.072a5.268 5.268 0 0 1 4.274-2.196zM2.916 11.895h4.469a8.14 8.14 0 0 0-.602 3.072c0 4.514 3.67 8.187 8.186 8.187 4.512 0 8.185-3.673 8.185-8.187a8.142 8.142 0 0 0-.603-3.072h4.469v12.257a2.87 2.87 0 0 1-2.868 2.868H5.785a2.87 2.87 0 0 1-2.869-2.868V11.895z" fill="#292929" fill-opacity="1" fill-rule="nonzero" stroke="none"/></g></g></g></g></svg>