<?xml version="1.0" encoding="UTF-8" standalone="no"?><svg xmlns:dc="http://purl.org/dc/elements/1.1/" xmlns:cc="http://creativecommons.org/ns#" xmlns:rdf="http://www.w3.org/1999/02/22-rdf-syntax-ns#" xmlns="http://www.w3.org/2000/svg" id="svg2" version="1.1" xml:space="preserve" width="40" height="40" viewBox="0 0 40 40"><metadata id="metadata8"><rdf:RDF><cc:Work><dc:format>image/svg+xml</dc:format><dc:type rdf:resource="http://purl.org/dc/dcmitype/StillImage"/><dc:title/></cc:Work></rdf:RDF></metadata><defs id="defs6"><clipPath clipPathUnits="userSpaceOnUse" id="clipPath20"><path d="M0 32h32V0H0v32z" id="path22"/></clipPath></defs><g id="g10" transform="matrix(1.25 0 0 -1.25 0 40)"><g id="g16"><g id="g18" clip-path="url(#clipPath20)"><g id="g32" transform="translate(27.95 18.484)"><path id="path34" d="M0 0v-9.805a4.634 4.634 0 0 0-4.628-4.628h-14.694a4.633 4.633 0 0 0-4.628 4.628V4.888a4.633 4.633 0 0 0 4.628 4.628h14.693A4.634 4.634 0 0 0 0 4.888V0zm-27.95-18.484h32v32h-32v-32zM-5.427-2.458c0-3.61-2.938-6.55-6.548-6.55a6.557 6.557 0 0 0-6.549 6.55c0 .868.173 1.698.482 2.458h-3.575v-9.806a2.297 2.297 0 0 1 2.295-2.294h14.693a2.297 2.297 0 0 1 2.295 2.294V0H-5.91c.31-.76.483-1.59.483-2.458m-6.55-4.214A4.222 4.222 0 0 1-7.76-2.457c0 .918-.3 1.764-.798 2.457a4.215 4.215 0 0 1-3.418 1.757A4.215 4.215 0 0 1-15.394 0a4.189 4.189 0 0 1-.797-2.457 4.218 4.218 0 0 1 4.214-4.215m9.204 9.37V6.76l-.529-.002-3.53-.012.013-4.06 4.046.014z" fill="#373536" fill-opacity="1" fill-rule="nonzero" stroke="none"/></g></g></g></g></svg>