<?xml version="1.0" encoding="UTF-8" standalone="no"?><svg xmlns:dc="http://purl.org/dc/elements/1.1/" xmlns:cc="http://creativecommons.org/ns#" xmlns:rdf="http://www.w3.org/1999/02/22-rdf-syntax-ns#" xmlns="http://www.w3.org/2000/svg" id="svg2" version="1.1" xml:space="preserve" width="22.499" height="28.608" viewBox="0 0 22.499374 28.608376"><metadata id="metadata8"><rdf:RDF><cc:Work><dc:format>image/svg+xml</dc:format><dc:type rdf:resource="http://purl.org/dc/dcmitype/StillImage"/><dc:title/></cc:Work></rdf:RDF></metadata><defs id="defs6"><clipPath clipPathUnits="userSpaceOnUse" id="clipPath16"><path d="M0 22.887h18V0H0v22.887z" id="path18"/></clipPath></defs><g id="g10" transform="matrix(1.25 0 0 -1.25 0 28.608)"><g id="g4150"><g id="g12"><g clip-path="url(#clipPath16)" id="g14"><g transform="translate(7.28 21.243)" id="g20"><path id="path22" transform="matrix(.8 0 0 -.8 -7.28 1.643)" d="M7.195.004C3.216-.158-1.444 4.12.425 8.527l.03.073 11.522 15.275L22.5 28.607l-1.389-12.505L9.824.934 9.752.879C8.995.315 8.114.04 7.195.004zm.016 1.25c.415.025.816.115 1.187.277l.55.317.152.207C5.723 2.69 3.036 4.682 1.596 8.04l-.035-.05-.229-.737c-.64-3.204 2.973-6.177 5.879-6zm2.728 1.932l1.516 2.035c-3.515.536-6.336 2.371-7.789 5.566L2.48 9.215c1.26-3.584 3.95-5.567 7.46-6.03zm2.373 3.185l7.374 9.914c-1.113.855-2.06 1.235-2.918 1.238-.923.003-1.807-.433-2.752-1.335-1.214-2.223-3.62-4.77-6.225-8.352 1.265-.804 2.794-1.292 4.521-1.465zm-5.035 1.82c2.64 3.634 4.96 6.087 6.153 8.233l-.035.033a.66.66 0 0 0 .105.094c0 .005.005.009.008.011 1.096 2.054 1.088 3.769-.987 5.958L4.398 11.758l.188.068c.582-1.53 1.501-2.74 2.691-3.635zm12.66 8.686l.737 6.629-2.297 1.877-5.404-2.43c1.862-1.969 2.23-3.675 1.603-5.508.7.46 1.423.706 2.192.703 1.01-.002 2.044-.434 3.17-1.271z" fill="#292929" fill-opacity="1" fill-rule="nonzero" stroke="none"/></g></g></g></g></g></svg>