<?xml version="1.0" encoding="UTF-8" standalone="no"?><svg xmlns:dc="http://purl.org/dc/elements/1.1/" xmlns:cc="http://creativecommons.org/ns#" xmlns:rdf="http://www.w3.org/1999/02/22-rdf-syntax-ns#" xmlns="http://www.w3.org/2000/svg" id="svg2" version="1.1" xml:space="preserve" width="40" height="40" viewBox="0 0 40 40"><metadata id="metadata8"><rdf:RDF><cc:Work><dc:format>image/svg+xml</dc:format><dc:type rdf:resource="http://purl.org/dc/dcmitype/StillImage"/><dc:title/></cc:Work></rdf:RDF></metadata><defs id="defs6"><clipPath clipPathUnits="userSpaceOnUse" id="clipPath16"><path d="M0 32h32V0H0v32z" id="path18"/></clipPath></defs><g id="g10" transform="matrix(1.25 0 0 -1.25 0 40)"><g id="g12"><g id="g14" clip-path="url(#clipPath16)"><g id="g40" transform="translate(20.414 12.481)"><path id="path42" d="M0 0c-.615-.002-1.193.195-1.753.562.501-1.466.208-2.831-1.282-4.406l4.324-1.944 1.836 1.502-.589 5.303C1.636.347.808.002 0 0m-3.833-4.582L-13.05 7.639l-.024.057c-1.84 4.339 4.232 8.523 7.461 6.119l.058-.043 9.03-12.134 1.11-10.006-8.418 3.786zm-16.582-7.899h32v32h-32v-32zM-4.25 10.342l-1.211 1.628c-2.809-.37-4.96-1.957-5.968-4.823l.948-1.258c1.162 2.556 3.419 4.024 6.231 4.453m2.049-8.774C-1.445.845-.738.498-.001.5c.688.003 1.446.306 2.336.991l-5.9 7.93c-1.381-.139-2.603-.528-3.615-1.17 2.083-2.867 4.008-4.906 4.979-6.683m-3.933 11.307l-.122.166-.438.253c-2.38 1.039-6.24-1.65-5.654-4.579l.183-.589.028-.04c1.152 2.687 3.302 4.28 6.003 4.789m3.527-11.607c-.002.002-.007.007-.007.01a.559.559 0 0 0-.084.075l.028.027c-.954 1.718-2.81 3.679-4.92 6.585-.954-.715-1.688-1.683-2.155-2.908l-.15.056 6.498-8.61c1.66 1.75 1.666 3.122.79 4.765" fill="#373536" fill-opacity="1" fill-rule="nonzero" stroke="none"/></g></g></g></g></svg>