<?xml version="1.0" encoding="utf-8"?><svg xmlns="http://www.w3.org/2000/svg" width="13" height="13" viewBox="0 0 13 13"><filter filterUnits="objectBoundingBox" x="0" y="0" width="100" height="100" id="filter0"><feFlood flood-color="#CD250D" result="coFloodOut1"/><feComposite in="coFloodOut1" in2="SourceAlpha" operator="in" result="coOverlay1"/><feBlend in="coOverlay1" in2="SourceGraphic" mode="normal" result="colorOverlay1"/></filter><path fillRule="evenodd" d="M12.99 12.26l-.74.74-3.69-3.66c-.9.72-2.03 1.17-3.28 1.17C2.36 10.51 0 8.15 0 5.25S2.36 0 5.28 0c2.91 0 5.28 2.35 5.28 5.25 0 1.28-.48 2.44-1.24 3.35l3.67 3.66zM5.28.98C2.91.98.99 2.89.99 5.25c0 2.36 1.92 4.27 4.29 4.27s4.29-1.91 4.29-4.27C9.57 2.89 7.65.98 5.28.98z" fill="#B3B3B3" filter="url(#filter0)"/></svg>