<?xml version="1.0" encoding="UTF-8" standalone="no"?><svg xmlns:dc="http://purl.org/dc/elements/1.1/" xmlns:cc="http://creativecommons.org/ns#" xmlns:rdf="http://www.w3.org/1999/02/22-rdf-syntax-ns#" xmlns="http://www.w3.org/2000/svg" id="svg2" version="1.1" xml:space="preserve" width="40" height="40" viewBox="0 0 40 40"><metadata id="metadata8"><rdf:RDF><cc:Work><dc:format>image/svg+xml</dc:format><dc:type rdf:resource="http://purl.org/dc/dcmitype/StillImage"/><dc:title/></cc:Work></rdf:RDF></metadata><defs id="defs6"><clipPath clipPathUnits="userSpaceOnUse" id="clipPath16"><path d="M0 32h32V0H0v32z" id="path18"/></clipPath></defs><g id="g10" transform="matrix(1.25 0 0 -1.25 0 40)"><g id="g12"><g id="g14" clip-path="url(#clipPath16)"><g id="g24" transform="translate(15.724 20.034)"><path id="path26" d="M0 0h-.074c-2.289 0-3.559-1.8-3.559-3.845 0-2.29 1.535-3.735 3.55-3.735 2.244 0 3.722 1.644 3.828 3.59l-.004.448C3.626-1.331 1.983 0 0 0m7.691-10.043c-1.515-1.185-3.766-.033-3.752 1.692l-.015.567A5.628 5.628 0 0 0-.064-9.444c-3.022 0-5.68 2.658-5.68 5.681 0 3.051 2.658 5.741 5.68 5.741 1.53 0 2.968-.675 4.025-1.734V.241c0 .51.34.892.816.892h.12c.742 0 .895-.702.895-.924l.003-7.903c-.052-.517.535-.785.86-.452 1.268 1.304 2.786 6.704-.789 9.831-3.332 2.917-7.803 2.437-10.18.797C-6.845.74-8.462-3.12-6.89-6.744c1.713-3.953 6.614-5.13 9.527-3.956 1.476.595 2.156-1.399.625-2.05-2.315-.986-8.758-.887-11.767 4.327C-10.539-4.902-10.43 1.29-5.038 4.5-.912 6.955 4.528 6.275 7.807 2.85c3.428-3.58 3.23-10.286-.116-12.893m-23.415-9.99h32v32h-32v-32z" fill="#373536" fill-opacity="1" fill-rule="nonzero" stroke="none"/></g></g></g></g></svg>