<?xml version="1.0" encoding="UTF-8" standalone="no"?><svg xmlns:dc="http://purl.org/dc/elements/1.1/" xmlns:cc="http://creativecommons.org/ns#" xmlns:rdf="http://www.w3.org/1999/02/22-rdf-syntax-ns#" xmlns="http://www.w3.org/2000/svg" id="svg2" version="1.1" xml:space="preserve" width="25.018" height="24.003" viewBox="0 0 25.01825 24.00325"><metadata id="metadata8"><rdf:RDF><cc:Work><dc:format>image/svg+xml</dc:format><dc:type rdf:resource="http://purl.org/dc/dcmitype/StillImage"/><dc:title/></cc:Work></rdf:RDF></metadata><defs id="defs6"><clipPath clipPathUnits="userSpaceOnUse" id="clipPath16"><path d="M0 19.203h20.015V0H0v19.203z" id="path18"/></clipPath></defs><g id="g10" transform="matrix(1.25 0 0 -1.25 0 24.003)"><g id="g12"><g id="g14" clip-path="url(#clipPath16)"><g id="g20" transform="translate(9.66 15.216)"><path id="path22" d="M0 0c1.529 0 2.968-.675 4.024-1.734v-.004c0 .509.341.891.817.891h.119c.743 0 .895-.702.895-.924l.004-7.903c-.052-.516.535-.784.86-.451C7.987-8.821 9.505-3.422 5.93-.294 2.598 2.622-1.874 2.142-4.251.502-6.78-1.241-8.397-5.1-6.826-8.724c1.713-3.953 6.614-5.13 9.527-3.956 1.476.596 2.155-1.398.625-2.049-2.315-.987-8.758-.887-11.767 4.327-2.034 3.52-1.926 9.713 3.467 12.922C-.848 4.976 4.592 4.296 7.871.87c3.428-3.58 3.229-10.286-.116-12.893-1.515-1.184-3.766-.033-3.752 1.693l-.015.565A5.628 5.628 0 0 0 0-11.423c-3.022 0-5.681 2.658-5.681 5.681C-5.681-2.691-3.022 0 0 0m3.805-5.522C3.689-3.311 2.047-1.98.063-1.98h-.074c-2.289 0-3.559-1.8-3.559-3.845 0-2.29 1.536-3.735 3.55-3.735 2.245 0 3.722 1.644 3.829 3.59l-.004.448z" fill="#373536" fill-opacity="1" fill-rule="nonzero" stroke="none"/></g></g></g></g></svg>