<?xml version="1.0" encoding="UTF-8" standalone="no"?><svg xmlns:dc="http://purl.org/dc/elements/1.1/" xmlns:cc="http://creativecommons.org/ns#" xmlns:rdf="http://www.w3.org/1999/02/22-rdf-syntax-ns#" xmlns="http://www.w3.org/2000/svg" id="svg2" version="1.1" xml:space="preserve" width="230.313" height="223.437" viewBox="0 0 230.3125 223.43726"><metadata id="metadata8"><rdf:RDF><cc:Work><dc:format>image/svg+xml</dc:format><dc:type rdf:resource="http://purl.org/dc/dcmitype/StillImage"/><dc:title/></cc:Work></rdf:RDF></metadata><defs id="defs6"><clipPath clipPathUnits="userSpaceOnUse" id="clipPath20"><path d="M0 178.75h184.25V0H0v178.75z" id="path22"/></clipPath></defs><g id="g10" transform="matrix(1.25 0 0 -1.25 200 40)"><path id="path64" d="M0 0a5.25 5.25 0 1 0-10.501.001A5.25 5.25 0 0 0 0 0m-2.75-106.5H-8V-1h5.25v-105.5zm0 85h-26.5l5 7.125-5 7.125h26.5V-21.5zm-54.5 48.25a5.25 5.25 0 1 0-10.501.001 5.25 5.25 0 0 0 10.501-.001M-60-102.75h-5.25v128.5H-60v-128.5zm0 108h-26.5l5 7.125-5 7.125H-60V5.25zm-45.5-1.5a5.25 5.25 0 1 0-10.501.001A5.25 5.25 0 0 0-105.5 3.75m-2.75-106.5h-5.25V2.75h5.25v-105.5zm0 85h-26.5l5 7.125-5 7.125h26.5v-14.25zm132.5-65.5h-50.5s-6 5.75-6 20.25 6 26.25 6 26.25h50.5s-6-12.75-6-26.25 6-20.25 6-20.25m-56.5 16h-50.5s-6 5.75-6 20.25 6 26.25 6 26.25h50.5s-6-12.75-6-26.25 6-20.25 6-20.25m-56.5-10.25h-50.5s-6 5.75-6 20.25 6 26.25 6 26.25h50.5s-6-12.75-6-26.25 6-20.25 6-20.25m-71.25-6l52-63.25H-2.5l22.5 44h-150.5L-153-77.5l-7-6z" fill="#000" fill-opacity="1" fill-rule="nonzero" stroke="none"/></g></svg>