<?xml version="1.0" encoding="UTF-8" standalone="no"?><svg xmlns:dc="http://purl.org/dc/elements/1.1/" xmlns:cc="http://creativecommons.org/ns#" xmlns:rdf="http://www.w3.org/1999/02/22-rdf-syntax-ns#" xmlns="http://www.w3.org/2000/svg" version="1.1" id="Capa_1" x="0" y="0" viewBox="0 0 17 14.565359" xml:space="preserve" width="17" height="14.565"><metadata id="metadata41"><rdf:RDF><cc:Work><dc:format>image/svg+xml</dc:format><dc:type rdf:resource="http://purl.org/dc/dcmitype/StillImage"/><dc:title/></cc:Work></rdf:RDF></metadata><path id="path5" d="M16.83 6.294L9.32.107a.47.47 0 0 0-.766.362V3.73c-3.644.133-6.15 1.418-7.452 3.826C-.02 9.632-.008 12.092.002 13.719v.376a.473.473 0 0 0 .47.47.464.464 0 0 0 .408-.237c2.543-4.483 4.637-4.7 7.672-4.71v3.25c0 .182.104.35.271.426a.477.477 0 0 0 .502-.063l7.504-6.208a.473.473 0 0 0 0-.728zM9.495 11.87z" fill="#00f"/></svg>