<?xml version="1.0" encoding="UTF-8" standalone="no"?><svg xmlns:dc="http://purl.org/dc/elements/1.1/" xmlns:cc="http://creativecommons.org/ns#" xmlns:rdf="http://www.w3.org/1999/02/22-rdf-syntax-ns#" xmlns="http://www.w3.org/2000/svg" id="svg2" version="1.1" xml:space="preserve" width="17.463" height="29.033" viewBox="0 0 17.463375 29.033251"><metadata id="metadata8"><rdf:RDF><cc:Work><dc:format>image/svg+xml</dc:format><dc:type rdf:resource="http://purl.org/dc/dcmitype/StillImage"/><dc:title/></cc:Work></rdf:RDF></metadata><defs id="defs6"><clipPath clipPathUnits="userSpaceOnUse" id="clipPath16"><path d="M0 23.227h13.971V0H0v23.227z" id="path18"/></clipPath></defs><g id="g10" transform="matrix(1.25 0 0 -1.25 0 29.033)"><g id="g12"><g id="g14" clip-path="url(#clipPath16)"><g id="g24" transform="translate(11.29 11.012)"><path id="path26" transform="matrix(.8 0 0 -.8 -11.29 12.214)" d="M8.732 0a7.348 7.348 0 0 0-7.347 7.35 7.347 7.347 0 1 0 14.695 0A7.348 7.348 0 0 0 8.732 0zm0 3.732a3.613 3.613 0 0 1 3.614 3.618 3.614 3.614 0 1 1-7.229 0 3.616 3.616 0 0 1 3.615-3.618zm-6.92 10.891c-.745-.017-1.29.45-1.55.97-.723 1.452.093 2.156 1.937 3.34 1.575 1.012 3.74 1.387 5.139 1.528L6.17 21.629l-4.33 4.33a1.683 1.683 0 0 0 0 2.38l.2.2a1.684 1.684 0 0 0 2.382 0l4.33-4.33c1.641 1.642 3.23 3.23 4.332 4.33a1.679 1.679 0 0 0 2.379 0l.2-.2a1.681 1.681 0 0 0 0-2.38l-4.331-4.33-1.17-1.172c1.399-.144 3.541-.525 5.104-1.527 1.842-1.183 2.66-1.885 1.933-3.336-.41-.834-1.558-1.529-3.086-.326-2.066 1.626-5.38 1.627-5.38 1.627s-3.316-.001-5.38-1.627c-.573-.451-1.093-.635-1.54-.645z" fill="#373536" fill-opacity="1" fill-rule="nonzero" stroke="none"/></g></g></g></g></svg>