<?xml version="1.0" encoding="UTF-8" standalone="no"?><svg xmlns:dc="http://purl.org/dc/elements/1.1/" xmlns:cc="http://creativecommons.org/ns#" xmlns:rdf="http://www.w3.org/1999/02/22-rdf-syntax-ns#" xmlns="http://www.w3.org/2000/svg" id="svg2" version="1.1" xml:space="preserve" width="32" height="32" viewBox="0 0 32 32"><metadata id="metadata8"><rdf:RDF><cc:Work><dc:format>image/svg+xml</dc:format><dc:type rdf:resource="http://purl.org/dc/dcmitype/StillImage"/><dc:title/></cc:Work></rdf:RDF></metadata><defs id="defs6"><clipPath clipPathUnits="userSpaceOnUse" id="clipPath16"><path d="M0 32h32V0H0v32z" id="path18"/></clipPath></defs><path d="M10.788 19.145c1.25.802 2.963 1.106 4.082 1.222l-.936.936-3.464 3.465a1.345 1.345 0 0 0 0 1.905l.159.159a1.344 1.344 0 0 0 1.904 0c.882-.88 2.151-2.15 3.465-3.464l3.465 3.464a1.347 1.347 0 0 0 1.906 0l.159-.159a1.347 1.347 0 0 0 0-1.905l-3.464-3.464-.934-.934c1.118-.113 2.849-.414 4.11-1.223 1.475-.948 2.129-1.511 1.551-2.672-.333-.667-1.252-1.222-2.474-.26-1.651 1.301-4.303 1.301-4.303 1.301s-2.651 0-4.304-1.301c-1.222-.962-2.142-.407-2.47.26-.581 1.161.073 1.724 1.548 2.67M16.014 4a5.878 5.878 0 0 0-5.878 5.879 5.878 5.878 0 1 0 11.756 0A5.878 5.878 0 0 0 16.014 4M32 32H0V0h32v32zM16.014 12.771a2.89 2.89 0 0 1-2.89-2.892 2.892 2.892 0 1 1 2.891 2.892" id="path8"/></svg>