<?xml version="1.0" encoding="UTF-8" standalone="no"?><svg xmlns:dc="http://purl.org/dc/elements/1.1/" xmlns:cc="http://creativecommons.org/ns#" xmlns:rdf="http://www.w3.org/1999/02/22-rdf-syntax-ns#" xmlns="http://www.w3.org/2000/svg" id="svg2" version="1.1" xml:space="preserve" width="22.909" height="12" viewBox="0 0 22.90909 12"><metadata id="metadata8"><rdf:RDF><cc:Work><dc:format>image/svg+xml</dc:format><dc:type rdf:resource="http://purl.org/dc/dcmitype/StillImage"/><dc:title/></cc:Work></rdf:RDF></metadata><defs id="defs6"><clipPath clipPathUnits="userSpaceOnUse" id="clipPath16"><path d="M0 11h21V0H0v11z" id="path18"/></clipPath></defs><g id="g10" transform="matrix(1.25 0 0 -1.25 0 12)"><g id="g12" transform="scale(.87273)"><g id="g14" clip-path="url(#clipPath16)"><path id="path36" d="M11 4h-1v6h1V4zm5 7H5a1 1 0 0 1-1-1V4a1 1 0 0 1 1-1h11a1 1 0 0 1 1 1v6a1 1 0 0 1-1 1m0-7H5v6h11V4zm0 0H5a1 1 0 0 1-1-1V1a1 1 0 0 1 1-1h11a1 1 0 0 1 1 1v2a1 1 0 0 1-1 1m0-3H5v2h11V1zm4 6h-3a1 1 0 0 1-1-1V1a1 1 0 0 1 1-1h3a1 1 0 0 1 1 1v5a1 1 0 0 1-1 1m0-6h-3v5h3V1zM4 7H1a1 1 0 0 1-1-1V1a1 1 0 0 1 1-1h3a1 1 0 0 1 1 1v5a1 1 0 0 1-1 1m0-6H1v5h3V1z" fill="#000" fill-opacity="1" fill-rule="nonzero" stroke="none"/></g></g></g></svg>