<?xml version ="1.0" encoding ="utf-8" ?><svg version="1.1" xmlns="http://www.w3.org/2000/svg" baseProfile="full"><symbol id="health" viewBox="0 0 7.386741 6.7615458"><title>Сердце</title><path d="M3.703 6.12l2.36-2.366.43-.43a1.68 1.68 0 0 0 0-2.366 1.667 1.667 0 0 0-2.362 0l-.427.43-.428-.43a1.665 1.665 0 0 0-2.36 0 1.671 1.671 0 0 0-.002 2.367L3.702 6.12z"/></symbol><symbol id="loupe" viewBox="0 0 13.066881 13.16616"><title>Лупа</title><path d="M5.299.5A4.798 4.798 0 0 0 .5 5.299a4.798 4.798 0 0 0 4.799 4.797 4.798 4.798 0 0 0 4.797-4.797A4.798 4.798 0 0 0 5.299.5zM8.74 8.84l3.973 3.973L8.74 8.84z"/></symbol><symbol id="star" viewBox="0 0 17 16"><title>Звездочка</title><path d="M8.5 0l2.04 5.8 6.45.04-4.98 3.91L13.97 16 8.5 12.28 3.03 16l1.84-6.33L.01 5.84l6.45-.04L8.5 0z"/></symbol><symbol id="nautilus" viewBox="0 0 230.3125 223.43726"><title>Кораблик</title><path d="M0 0a5.25 5.25 0 1 0-10.501.001A5.25 5.25 0 0 0 0 0m-2.75-106.5H-8V-1h5.25v-105.5zm0 85h-26.5l5 7.125-5 7.125h26.5V-21.5zm-54.5 48.25a5.25 5.25 0 1 0-10.501.001 5.25 5.25 0 0 0 10.501-.001M-60-102.75h-5.25v128.5H-60v-128.5zm0 108h-26.5l5 7.125-5 7.125H-60V5.25zm-45.5-1.5a5.25 5.25 0 1 0-10.501.001A5.25 5.25 0 0 0-105.5 3.75m-2.75-106.5h-5.25V2.75h5.25v-105.5zm0 85h-26.5l5 7.125-5 7.125h26.5v-14.25zm132.5-65.5h-50.5s-6 5.75-6 20.25 6 26.25 6 26.25h50.5s-6-12.75-6-26.25 6-20.25 6-20.25m-56.5 16h-50.5s-6 5.75-6 20.25 6 26.25 6 26.25h50.5s-6-12.75-6-26.25 6-20.25 6-20.25m-56.5-10.25h-50.5s-6 5.75-6 20.25 6 26.25 6 26.25h50.5s-6-12.75-6-26.25 6-20.25 6-20.25m-71.25-6l52-63.25H-2.5l22.5 44h-150.5L-153-77.5l-7-6z" transform="matrix(1.25 0 0 -1.25 200 40)"/></symbol><symbol id="city" viewBox="0 0 12.14286 12.27678"><title>Город</title><path d="M163.036 531.335l12.143-5.49-5.447 12.276-.268-6.473z" transform="translate(-163.036 -525.844)"/></symbol><symbol id="x" viewBox="0 0 21.001022 21.000994"><title>Крестик</title><path d="M347.643 479.004v1.001h-1.001v-1.001zm1-1.004v1.001h-1.001v-1zm1-1v1.001h-1.001v-1zm1-1.004v1.001h-1.001v-1zm.997-.988v1h-1v-1zm1.005-.994v1.001h-1v-1zm1-1.004v1.001h-1v-1zm1-1v1.001h-1v-1zm1-1.004v1.001h-1v-1zm.998-.988v1h-1.001v-1zm1-1.004v1.001h-1.001v-1.001zm1-1v1.001h-1.001v-1.001zm1-1.004v1.001h-1.001v-1.001zm1.002-1v1.001h-1v-1zm1-1.004v1.001h-1v-1zm1-1v1.001h-1v-1zm1-1.004v1.002h-1v-1.002zm.998-.988v1.001h-1.001v-1.001zm1-1.004v1.001h-1.001v-1.001zm1-1v1.001h-1.001v-1.001zm1-1.004v1.001h-1.001v-1zm-1.002 19.999h1v1.001h-1zm-1.004-1h1v1.001h-1zm-1-1h1v1.001h-1zm-1.004-1h1.001v1.001h-1.001zm-.989-.997h1.001v1h-1zm-.993-1.006h1.001v1.002h-1.001zm-1.004-1h1.001v1.002h-1.001zm-1-1h1.001v1.002h-1.001zm-1.004-1h1.001v1.002h-1zm-.988-.997h1v1.001h-1zm-1.004-1h1v1.001h-1zm-1-1h1v1.001h-1zm-1.004-1h1v1.001h-1zm-1-1.003h1.001v1.002h-1.001zm-1.004-1h1.001v1.002h-1zm-1-1h1.001v1.002h-1zm-1.004-1h1.001v1.002h-1zm-.988-.997h1v1.001h-1zm-1.004-1h1v1.001h-1zm-1-1h1v1.001h-1zm-1.004-1h1v1.001h-1z" transform="translate(-346.642 -459.005)"/></symbol><symbol id="envelope" viewBox="0 0 15 12"><title>Конверт</title><path d="M7.6 8L6.2 6.28 14.6 1l.4 2-7.4 5zm-.4-.05L0 2.67l1.54-1.62 7.2 5.28L7.2 7.95zM13 10V2H2v8h11m2 2H0V0h15v12z"/></symbol><symbol id="envelope2" viewBox="0 0 20 15"><title>Конверт2</title><path d="M0 0h-14c-.55 0-1-.45-1-1v-.758l8-4.205 8 4.205V-1C1-.45.55 0 0 0m-7-8c-.266 0-.5.094-1 .336L-15-4v-7c0-.55.45-1 1-1H0c.55 0 1 .45 1 1v7l-7-3.664C-6.5-7.906-6.734-8-7-8" transform="matrix(1.25 0 0 -1.25 18.75 0)"/></symbol><symbol id="vk" viewBox="0 0 32 32"><title>В контакте</title><path d="M15.437 13.873a2.877 2.877 0 0 0 1.068-.283c.403-.187.68-.446.834-.78.152-.33.227-.714.227-1.154 0-.322-.082-.653-.248-.994a1.504 1.504 0 0 0-.772-.74c-.333-.142-.724-.22-1.177-.234a76.165 76.165 0 0 0-2.021-.02h-.349V13.9h.631c.859 0 1.462-.008 1.807-.027m1.888 3.667c-.304-.116-.723-.182-1.256-.195a91.982 91.982 0 0 0-2.143-.02h-.927v5.011h.268c1.308 0 2.213-.01 2.715-.026a4.25 4.25 0 0 0 1.53-.362c.459-.198.79-.488 1-.867.212-.381.318-.814.318-1.299 0-.616-.125-1.1-.377-1.449-.251-.351-.626-.614-1.128-.793m6.112 4.958a5.349 5.349 0 0 1-1.519 1.868 7.017 7.017 0 0 1-2.478 1.262c-.899.251-2.043.376-3.431.376H8V6h7.068c1.469 0 2.581.056 3.34.168a6.455 6.455 0 0 1 2.128.705c.715.385 1.25.9 1.605 1.545.355.645.53 1.389.53 2.23 0 .976-.244 1.845-.731 2.606a4.297 4.297 0 0 1-2.024 1.68v.108c1.238.259 2.227.789 2.97 1.591.745.801 1.116 1.885 1.116 3.245 0 .993-.189 1.867-.565 2.62M0 32h32V0H0v32z"/></symbol><symbol id="vk-simple" viewBox="0 0 20.002501 25.004875"><title>В контакте</title><path d="M0 0c-.211-.379-.543-.669-1.001-.867a4.256 4.256 0 0 0-1.531-.362 98.338 98.338 0 0 0-2.714-.026h-.268v5.011h.926c.896 0 1.61-.007 2.143-.02.534-.013.953-.079 1.257-.195.501-.179.876-.442 1.127-.793.252-.349.377-.833.377-1.449C.316.814.211.381 0 0m-5.514 11.414h.349c.895 0 1.569-.007 2.021-.02a3.24 3.24 0 0 0 1.177-.235c.349-.154.606-.399.772-.74.166-.34.248-.671.248-.994 0-.439-.075-.824-.227-1.155-.154-.332-.431-.591-.834-.779a2.877 2.877 0 0 0-1.068-.283 40.928 40.928 0 0 0-1.807-.026h-.632v4.232h.001zm9.887-6.966c-.743.802-1.732 1.332-2.97 1.591v.108a4.297 4.297 0 0 1 2.024 1.68c.487.761.731 1.63.731 2.606 0 .841-.176 1.585-.53 2.23-.356.645-.89 1.16-1.606 1.545a6.457 6.457 0 0 1-2.127.705c-.759.112-1.871.168-3.34.168h-7.068V-4.923h8.009c1.388 0 2.531.125 3.431.376a7.017 7.017 0 0 1 2.478 1.262 5.349 5.349 0 0 1 1.519 1.868c.376.753.565 1.627.565 2.62 0 1.36-.371 2.444-1.116 3.245" transform="matrix(1.25 0 0 -1.25 13.14 18.851)"/></symbol><symbol id="fb" viewBox="0 0 32 32"><title>Facebook</title><path d="M0 0v32h12.704V17.889H9v-4.63h3.704v-2.778C12.704 6.667 14.856 4 18.259 4h3.704v4.63h-1.852c-1.849 0-2.778.926-2.778 2.777v1.852h4.63l-.927 4.63h-3.703V32H32V0H0z"/></symbol><symbol id="fb-simple" viewBox="0 0 16.203625 35"><title>Facebook</title><path d="M0 0v14.111h3.703l.927 4.63H0v1.852c0 1.851.929 2.777 2.778 2.777H4.63V28H.926c-3.403 0-5.555-2.667-5.555-6.481v-2.778h-3.704v-4.63h3.704V0H0z" transform="matrix(1.25 0 0 -1.25 10.416 35)"/></symbol><symbol id="tw" viewBox="0 0 32 32"><title>Twitter</title><path d="M24.624 12.578c.008.194.013.39.013.585C24.637 19.125 20.099 26 11.8 26c-2.548 0-4.921-.747-6.916-2.026.352.043.712.063 1.076.063 2.115 0 4.06-.722 5.602-1.931a4.519 4.519 0 0 1-4.213-3.134 4.541 4.541 0 0 0 2.037-.077 4.514 4.514 0 0 1-3.619-4.425v-.057c.608.338 1.305.54 2.043.564a4.51 4.51 0 0 1-2.006-3.755c0-.828.222-1.602.61-2.269a12.813 12.813 0 0 0 9.3 4.714 4.575 4.575 0 0 1-.116-1.028 4.51 4.51 0 0 1 4.51-4.512c1.299 0 2.472.548 3.295 1.425a9.055 9.055 0 0 0 2.866-1.095 4.524 4.524 0 0 1-1.985 2.495 8.948 8.948 0 0 0 2.592-.709 9.174 9.174 0 0 1-2.252 2.335M0 32h32V0H0v32z"/></symbol><symbol id="tw-simple" viewBox="0 0 27.49025 22.341249"><path d="M0 0a8.948 8.948 0 0 0-2.592-.709A4.518 4.518 0 0 1-.607 1.785 9.044 9.044 0 0 0-3.473.691a4.51 4.51 0 0 1-3.295 1.424 4.51 4.51 0 0 1-4.51-4.511c0-.354.04-.699.116-1.028a12.81 12.81 0 0 0-9.3 4.714 4.498 4.498 0 0 1-.61-2.269c0-1.566.796-2.946 2.006-3.756a4.505 4.505 0 0 0-2.043.564v-.057a4.514 4.514 0 0 1 3.619-4.424 4.519 4.519 0 0 0-2.037-.077 4.518 4.518 0 0 1 4.214-3.134 9.054 9.054 0 0 0-6.679-1.868 12.766 12.766 0 0 1 6.916-2.027c8.299 0 12.837 6.875 12.837 12.838 0 .195-.005.39-.013.585A9.142 9.142 0 0 1 0 0" transform="matrix(1.25 0 0 -1.25 27.49 2.644)"/></symbol><symbol id="ok" viewBox="0 0 32 32"><title>Одноклассники</title><path d="M10.788 19.145c1.25.802 2.963 1.106 4.082 1.222l-.936.936-3.464 3.465a1.345 1.345 0 0 0 0 1.905l.159.159a1.344 1.344 0 0 0 1.904 0c.882-.88 2.151-2.15 3.465-3.464l3.465 3.464a1.347 1.347 0 0 0 1.906 0l.159-.159a1.347 1.347 0 0 0 0-1.905l-3.464-3.464-.934-.934c1.118-.113 2.849-.414 4.11-1.223 1.475-.948 2.129-1.511 1.551-2.672-.333-.667-1.252-1.222-2.474-.26-1.651 1.301-4.303 1.301-4.303 1.301s-2.651 0-4.304-1.301c-1.222-.962-2.142-.407-2.47.26-.581 1.161.073 1.724 1.548 2.67M16.014 4a5.878 5.878 0 0 0-5.878 5.879 5.878 5.878 0 1 0 11.756 0A5.878 5.878 0 0 0 16.014 4M32 32H0V0h32v32zM16.014 12.771a2.89 2.89 0 0 1-2.89-2.892 2.892 2.892 0 1 1 2.891 2.892"/></symbol><symbol id="ok-simple" viewBox="0 0 17.463375 29.033251"><path d="M8.732 0a7.348 7.348 0 0 0-7.347 7.35 7.347 7.347 0 1 0 14.695 0A7.348 7.348 0 0 0 8.732 0zm0 3.732a3.613 3.613 0 0 1 3.614 3.618 3.614 3.614 0 1 1-7.229 0 3.616 3.616 0 0 1 3.615-3.618zm-6.92 10.891c-.745-.017-1.29.45-1.55.97-.723 1.452.093 2.156 1.937 3.34 1.575 1.012 3.74 1.387 5.139 1.528L6.17 21.629l-4.33 4.33a1.683 1.683 0 0 0 0 2.38l.2.2a1.684 1.684 0 0 0 2.382 0l4.33-4.33c1.641 1.642 3.23 3.23 4.332 4.33a1.679 1.679 0 0 0 2.379 0l.2-.2a1.681 1.681 0 0 0 0-2.38l-4.331-4.33-1.17-1.172c1.399-.144 3.541-.525 5.104-1.527 1.842-1.183 2.66-1.885 1.933-3.336-.41-.834-1.558-1.529-3.086-.326-2.066 1.626-5.38 1.627-5.38 1.627s-3.316-.001-5.38-1.627c-.573-.451-1.093-.635-1.54-.645z"/></symbol><symbol id="g" viewBox="0 0 40 40"><title>Google+</title><path d="M0 0v40h40V0H0zm18.184 6.25h6.966l-2.3 1.445h-2.192c.811.673 2.51 2.09 2.51 4.785 0 2.623-1.484 3.867-2.969 5.036-.46.46-.992.955-.992 1.736 0 .777.531 1.203.92 1.525l1.275.989c1.558 1.31 2.973 2.517 2.973 4.964 0 3.333-3.222 6.698-9.307 6.698-5.128 0-7.603-2.445-7.603-5.069 0-1.275.635-3.08 2.723-4.32 2.19-1.349 5.165-1.525 6.757-1.635-.497-.637-1.06-1.311-1.06-2.41 0-.601.176-.953.351-1.38-.388.037-.777.07-1.132.07-3.748 0-5.87-2.802-5.87-5.567 0-1.629.74-3.437 2.262-4.75 2.018-1.665 4.775-2.117 6.688-2.117zm-2.582 1.338c-.923 0-1.911.462-2.479 1.172-.602.745-.775 1.7-.775 2.623 0 2.374 1.379 6.308 4.422 6.308.883 0 1.833-.424 2.402-.99.815-.819.885-1.95.885-2.59 0-2.552-1.522-6.523-4.455-6.523zm12.98 6.504h1.752v3.545h3.555v1.771h-3.555v3.563h-1.752v-3.563h-3.537v-1.771h3.537v-3.545zm-11.248 9.306c-.319 0-2.23.069-3.715.569-.777.282-3.04 1.133-3.04 3.65 0 2.516 2.44 4.328 6.224 4.328 3.396 0 5.2-1.635 5.2-3.832 0-1.811-1.165-2.765-3.857-4.677a5.563 5.563 0 0 0-.812-.038z"/></symbol><symbol id="g-simple" viewBox="0 0 26.424 27.179001"><title>Google+</title><path d="M0 0v2.851h2.844v1.417H0v2.835h-1.401V4.268h-2.83V2.851h2.83V0H0zm-10.825-7.179c-3.027 0-4.98 1.448-4.98 3.462 0 2.014 1.81 2.693 2.434 2.92 1.187.4 2.716.455 2.97.455.284 0 .425 0 .65-.029 2.153-1.53 3.087-2.294 3.087-3.744 0-1.756-1.444-3.064-4.161-3.064m-.027 11.403c-2.435 0-3.538 3.148-3.538 5.047 0 .74.14 1.502.622 2.098.453.568 1.244.937 1.982.937 2.347 0 3.564-3.176 3.564-5.218 0-.51-.056-1.417-.707-2.072a2.898 2.898 0 0 0-1.923-.792m3.706-3.26l-1.02.791c-.31.257-.735.598-.735 1.22 0 .624.425 1.022.793 1.39 1.188.935 2.375 1.93 2.375 4.027 0 2.156-1.358 3.29-2.007 3.83h1.753l1.84 1.155h-5.574c-1.53 0-3.735-.362-5.35-1.695-1.216-1.049-1.81-2.496-1.81-3.799 0-2.212 1.699-4.454 4.697-4.454.284 0 .594.028.905.058-.14-.342-.281-.625-.281-1.106 0-.879.45-1.417.849-1.927-1.274-.088-3.653-.23-5.406-1.308-1.67-.992-2.178-2.437-2.178-3.457 0-2.099 1.979-4.055 6.082-4.055 4.868 0 7.445 2.692 7.445 5.358C-4.768-1.05-5.9-.085-7.146.964" transform="matrix(1.25 0 0 -1.25 22.87 16.721)"/></symbol><symbol id="inst" viewBox="0 0 40 40"><title>Instagramm</title><path d="M0 0v-9.805a4.634 4.634 0 0 0-4.628-4.628h-14.694a4.633 4.633 0 0 0-4.628 4.628V4.888a4.633 4.633 0 0 0 4.628 4.628h14.693A4.634 4.634 0 0 0 0 4.888V0zm-27.95-18.484h32v32h-32v-32zM-5.427-2.458c0-3.61-2.938-6.55-6.548-6.55a6.557 6.557 0 0 0-6.549 6.55c0 .868.173 1.698.482 2.458h-3.575v-9.806a2.297 2.297 0 0 1 2.295-2.294h14.693a2.297 2.297 0 0 1 2.295 2.294V0H-5.91c.31-.76.483-1.59.483-2.458m-6.55-4.214A4.222 4.222 0 0 1-7.76-2.457c0 .918-.3 1.764-.798 2.457a4.215 4.215 0 0 1-3.418 1.757A4.215 4.215 0 0 1-15.394 0a4.189 4.189 0 0 1-.797-2.457 4.218 4.218 0 0 1 4.214-4.215m9.204 9.37V6.76l-.529-.002-3.53-.012.013-4.06 4.046.014z" transform="matrix(1.25 0 0 -1.25 34.938 16.895)"/></symbol><symbol id="inst-simple" viewBox="0 0 29.93775 29.93650"><title>Instagramm</title><path d="M5.785 0A5.792 5.792 0 0 0 0 5.785v18.367a5.792 5.792 0 0 0 5.785 5.785h18.367a5.792 5.792 0 0 0 5.785-5.785V5.785A5.792 5.792 0 0 0 24.152 0H5.785zm20.688 3.447V8.521l-5.057.016-.018-5.072 4.413-.016.662-.002zM14.969 9.7c1.757 0 3.314.87 4.271 2.196.621.866.998 1.924.998 3.072a5.277 5.277 0 0 1-5.271 5.27 5.272 5.272 0 0 1-5.266-5.27c0-1.148.37-2.206.994-3.072a5.268 5.268 0 0 1 4.274-2.196zM2.916 11.895h4.469a8.14 8.14 0 0 0-.602 3.072c0 4.514 3.67 8.187 8.186 8.187 4.512 0 8.185-3.673 8.185-8.187a8.142 8.142 0 0 0-.603-3.072h4.469v12.257a2.87 2.87 0 0 1-2.868 2.868H5.785a2.87 2.87 0 0 1-2.869-2.868V11.895z"/></symbol><symbol id="yt" viewBox="0 0 40 40"><title>Youtube</title><path d="M0 0c0-1.898-.22-3.797-.22-3.797s-.215-1.618-.875-2.328c-.836-.933-1.774-.937-2.204-.994-3.077-.235-7.697-.244-7.697-.244s-5.72.055-7.478.237c-.49.096-1.588.068-2.425 1.001-.661.712-.875 2.328-.875 2.328s-.219 1.899-.219 3.798V1.78c0 1.899.219 3.796.219 3.796s.216 1.618.875 2.33c.837.933 1.773.94 2.203.992 3.078.239 7.693.239 7.693.239h.01s4.617 0 7.694-.239c.43-.052 1.368-.059 2.204-.992.66-.712.875-2.33.875-2.33S0 3.679 0 1.78V0zm-27-15.863H5v32h-32v-32zm13.257 12.625L-6.867.887l-6.876 4.125v-8.25z" transform="matrix(1.25 0 0 -1.25 33.75 20.172)"/></symbol><symbol id="yt-simple" viewBox="0 0 27.491501 20.625"><title>Youtube</title><path d="M0 0v8.25l6.876-4.125L0 0zm13.523 8.813s-.214 1.619-.875 2.331c-.835.933-1.774.939-2.204.992-3.077.239-7.694.239-7.694.239h-.01s-4.615 0-7.693-.239c-.43-.053-1.366-.059-2.203-.992-.658-.712-.875-2.331-.875-2.331s-.219-1.896-.219-3.795V3.239c0-1.899.219-3.799.219-3.799s.215-1.615.875-2.327c.837-.933 1.935-.905 2.425-1.002 1.758-.181 7.478-.236 7.478-.236s4.62.009 7.697.244c.43.057 1.369.061 2.204.993.661.711.875 2.328.875 2.328s.22 1.9.22 3.798v1.78c0 1.899-.22 3.795-.22 3.795" transform="matrix(1.25 0 0 -1.25 10.313 15.469)"/></symbol><symbol id="jj" viewBox="0 0 40 40"><path d="M0 0c-.615-.002-1.193.195-1.753.562.501-1.466.208-2.831-1.282-4.406l4.324-1.944 1.836 1.502-.589 5.303C1.636.347.808.002 0 0m-3.833-4.582L-13.05 7.639l-.024.057c-1.84 4.339 4.232 8.523 7.461 6.119l.058-.043 9.03-12.134 1.11-10.006-8.418 3.786zm-16.582-7.899h32v32h-32v-32zM-4.25 10.342l-1.211 1.628c-2.809-.37-4.96-1.957-5.968-4.823l.948-1.258c1.162 2.556 3.419 4.024 6.231 4.453m2.049-8.774C-1.445.845-.738.498-.001.5c.688.003 1.446.306 2.336.991l-5.9 7.93c-1.381-.139-2.603-.528-3.615-1.17 2.083-2.867 4.008-4.906 4.979-6.683m-3.933 11.307l-.122.166-.438.253c-2.38 1.039-6.24-1.65-5.654-4.579l.183-.589.028-.04c1.152 2.687 3.302 4.28 6.003 4.789m3.527-11.607c-.002.002-.007.007-.007.01a.559.559 0 0 0-.084.075l.028.027c-.954 1.718-2.81 3.679-4.92 6.585-.954-.715-1.688-1.683-2.155-2.908l-.15.056 6.498-8.61c1.66 1.75 1.666 3.122.79 4.765" transform="matrix(1.25 0 0 -1.25 25.518 24.398)"/></symbol><symbol id="jj-simple" viewBox="0 0 22.499374 28.608376"><path d="M7.195.004C3.216-.158-1.444 4.12.425 8.527l.03.073 11.522 15.275L22.5 28.607l-1.389-12.505L9.824.934 9.752.879C8.995.315 8.114.04 7.195.004zm.016 1.25c.415.025.816.115 1.187.277l.55.317.152.207C5.723 2.69 3.036 4.682 1.596 8.04l-.035-.05-.229-.737c-.64-3.204 2.973-6.177 5.879-6zm2.728 1.932l1.516 2.035c-3.515.536-6.336 2.371-7.789 5.566L2.48 9.215c1.26-3.584 3.95-5.567 7.46-6.03zm2.373 3.185l7.374 9.914c-1.113.855-2.06 1.235-2.918 1.238-.923.003-1.807-.433-2.752-1.335-1.214-2.223-3.62-4.77-6.225-8.352 1.265-.804 2.794-1.292 4.521-1.465zm-5.035 1.82c2.64 3.634 4.96 6.087 6.153 8.233l-.035.033a.66.66 0 0 0 .105.094c0 .005.005.009.008.011 1.096 2.054 1.088 3.769-.987 5.958L4.398 11.758l.188.068c.582-1.53 1.501-2.74 2.691-3.635zm12.66 8.686l.737 6.629-2.297 1.877-5.404-2.43c1.862-1.969 2.23-3.675 1.603-5.508.7.46 1.423.706 2.192.703 1.01-.002 2.044-.434 3.17-1.271z"/></symbol><symbol id="mail" viewBox="0 0 40 40"><path d="M0 0h-.074c-2.289 0-3.559-1.8-3.559-3.845 0-2.29 1.535-3.735 3.55-3.735 2.244 0 3.722 1.644 3.828 3.59l-.004.448C3.626-1.331 1.983 0 0 0m7.691-10.043c-1.515-1.185-3.766-.033-3.752 1.692l-.015.567A5.628 5.628 0 0 0-.064-9.444c-3.022 0-5.68 2.658-5.68 5.681 0 3.051 2.658 5.741 5.68 5.741 1.53 0 2.968-.675 4.025-1.734V.241c0 .51.34.892.816.892h.12c.742 0 .895-.702.895-.924l.003-7.903c-.052-.517.535-.785.86-.452 1.268 1.304 2.786 6.704-.789 9.831-3.332 2.917-7.803 2.437-10.18.797C-6.845.74-8.462-3.12-6.89-6.744c1.713-3.953 6.614-5.13 9.527-3.956 1.476.595 2.156-1.399.625-2.05-2.315-.986-8.758-.887-11.767 4.327C-10.539-4.902-10.43 1.29-5.038 4.5-.912 6.955 4.528 6.275 7.807 2.85c3.428-3.58 3.23-10.286-.116-12.893m-23.415-9.99h32v32h-32v-32z" transform="matrix(1.25 0 0 -1.25 19.654 14.958)"/></symbol><symbol id="mail-simple" viewBox="0 0 25.01825 24.00325"><path d="M0 0c1.529 0 2.968-.675 4.024-1.734v-.004c0 .509.341.891.817.891h.119c.743 0 .895-.702.895-.924l.004-7.903c-.052-.516.535-.784.86-.451C7.987-8.821 9.505-3.422 5.93-.294 2.598 2.622-1.874 2.142-4.251.502-6.78-1.241-8.397-5.1-6.826-8.724c1.713-3.953 6.614-5.13 9.527-3.956 1.476.596 2.155-1.398.625-2.049-2.315-.987-8.758-.887-11.767 4.327-2.034 3.52-1.926 9.713 3.467 12.922C-.848 4.976 4.592 4.296 7.871.87c3.428-3.58 3.229-10.286-.116-12.893-1.515-1.184-3.766-.033-3.752 1.693l-.015.565A5.628 5.628 0 0 0 0-11.423c-3.022 0-5.681 2.658-5.681 5.681C-5.681-2.691-3.022 0 0 0m3.805-5.522C3.689-3.311 2.047-1.98.063-1.98h-.074c-2.289 0-3.559-1.8-3.559-3.845 0-2.29 1.536-3.735 3.55-3.735 2.245 0 3.722 1.644 3.829 3.59l-.004.448z" transform="matrix(1.25 0 0 -1.25 12.075 4.984)"/></symbol><symbol id="age0" viewBox="0 0 125.61875 125.42875"><title>0+</title><path d="M117.353 55.688c0 1.424-.667 2.187-1.997 2.187h-6.366V53.4c0-3.325-.475-5.037-3.325-5.037h-2.85c-2.851 0-3.326 1.712-3.326 5.037v4.475h-4.467c-3.326 0-5.036.475-5.036 3.325v3.038c0 2.85 1.71 3.324 5.036 3.324h4.467v4.463c0 3.325.475 5.037 3.326 5.037h2.85c2.85 0 3.325-1.712 3.325-5.037v-4.463h6.366c1.237 0 1.902.663 1.997 1.9v14.45c0 3.513-1.047 6.176-3.517 8.55l-21.19 21.188c-2.47 2.462-5.226 3.612-8.646 3.612H41.62c-3.421 0-6.176-1.15-8.648-3.612l-21.19-21.188c-2.468-2.474-3.61-5.037-3.515-8.55V42c0-3.513 1.14-6.55 3.706-9.125l21.57-21.85c2.186-2.188 4.94-2.85 8.077-2.85H84c3.135 0 5.891.662 8.076 2.85l21.569 21.85c2.473 2.575 3.708 5.612 3.708 9.125v13.688zM97.873 5.513C94.165 1.9 89.51 0 83.904 0h-42.19c-5.606 0-10.358 1.9-13.968 5.513L5.417 27.75C1.9 31.262 0 35.925 0 41.05v42.862C0 89.8 1.996 94.362 5.986 98.25l21.192 21.2c4.18 4.175 8.836 6.075 14.822 5.975h41.62c5.795 0 10.546-1.7 14.822-5.975l21.19-21.2c3.897-3.888 5.987-8.55 5.987-14.338V41.05c0-5.125-1.9-9.787-5.416-13.3L97.873 5.512m-26.824 64.05c0 9.788-.38 13.876-9.123 13.876-8.742 0-9.122-4-9.122-13.688V56.637c0-9.787.38-13.874 9.122-13.874 8.743 0 9.123 3.987 9.123 13.687v13.113zm-9.123-36.774c-18.529 0-19.1 8.925-19.1 33.162 0 18.913 2.091 27.462 19.1 27.462 17.864 0 19.1-9.5 19.1-30.6 0-21-1.236-30.025-19.1-30.025"/></symbol><symbol id="age6" viewBox="0 0 125.62 125.44039"><title>6+</title><path d="M62.711 83.713c-6.746 0-8.741-1.9-8.741-7.5v-9.025c2.376-.576 4.941-1.15 7.696-1.15 7.318 0 8.933 1.9 8.933 8.55 0 6.087-.855 9.124-7.888 9.124zm.192-26.225c-2.377 0-4.752.187-7.223.662-.95.2-1.71-.187-1.71-1.325v-1.9c0-8.937.665-12.162 8.171-12.162 6.461 0 7.888.375 7.888 5.037 0 1.9 1.33 2.475 3.516 2.475h2.28c2.661 0 3.706-.675 3.706-3.237 0-11.213-4.845-14.063-15.964-14.063-17.388 0-19.385 7.038-19.385 29.263.095 21.475-1.14 30.975 18.34 30.975 12.354 0 17.864-4.075 17.864-19.763 0-12.925-5.986-15.963-17.484-15.963m54.45-1.8c0 1.426-.665 2.188-1.995 2.188h-6.366V53.4c0-3.325-.476-5.037-3.326-5.037h-2.851c-2.85 0-3.325 1.712-3.325 5.037v4.475h-4.467c-3.326 0-5.036.475-5.036 3.325v3.038c0 2.85 1.71 3.325 5.036 3.325h4.467v4.462c0 3.325.475 5.038 3.325 5.038h2.851c2.85 0 3.326-1.713 3.326-5.038v-4.462h6.366c1.235 0 1.9.662 1.995 1.9V83.9c0 3.525-1.045 6.188-3.515 8.563l-21.19 21.187c-2.47 2.463-5.226 3.613-8.647 3.613H41.62c-3.42 0-6.175-1.15-8.646-3.613l-21.19-21.187c-2.472-2.475-3.61-5.038-3.517-8.563V42c0-3.512 1.142-6.55 3.707-9.125l21.568-21.85c2.187-2.188 4.943-2.85 8.078-2.85H84c3.136 0 5.893.662 8.078 2.85l21.568 21.85c2.472 2.575 3.707 5.612 3.707 9.125v13.688zM97.872 5.514C94.166 1.9 89.513 0 83.906 0H41.716C36.11 0 31.358 1.9 27.747 5.513L5.418 27.75C1.9 31.262 0 35.925 0 41.05V83.9c0 5.9 1.996 10.463 5.989 14.35l21.188 21.2c4.18 4.175 8.837 6.075 14.823 5.987h41.62c5.796 0 10.546-1.712 14.822-5.987l21.192-21.2c3.896-3.888 5.986-8.55 5.986-14.35V41.05c0-5.125-1.901-9.787-5.416-13.3L97.873 5.512"/></symbol><symbol id="age12" viewBox="0 0 125.62 125.44039"><title>12+</title><path d="M85.705 51.875c0-13.012-1.235-19.188-17.199-19.188-11.117 0-15.962 2.563-15.962 14.063 0 2.563 1.045 3.225 3.705 3.225h2.281c2.185 0 3.515-.375 3.515-2.275 0-4.75 1.805-5.225 6.461-5.225 4.848 0 7.221.475 7.221 7.225 0 10.35-7.6 10.637-14.632 13.588-8.076 3.412-9.313 9.587-9.313 18.525v5.7c0 4.174 1.807 4.85 5.322 4.85h23.091c3.515 0 5.321-.576 5.321-3.713V85.8c0-2.938-1.806-3.513-5.321-3.513H63.376c-1.331 0-1.712-.662-1.712-2.187v-3.138c0-10.162 24.041-3.8 24.041-25.087m31.646 3.812c0 1.425-.665 2.188-1.995 2.188h-6.366V53.4c0-3.325-.476-5.038-3.326-5.038h-2.852c-2.85 0-3.326 1.713-3.326 5.038v4.475h-4.465c-3.325 0-5.036.475-5.036 3.325v3.037c0 2.85 1.711 3.326 5.036 3.326h4.465v4.462c0 3.325.476 5.037 3.326 5.037h2.852c2.85 0 3.326-1.712 3.326-5.037v-4.463h6.366c1.235 0 1.9.663 1.995 1.9V83.9c0 3.525-1.046 6.188-3.516 8.563L92.646 113.65c-2.471 2.462-5.227 3.612-8.646 3.612H41.619c-3.42 0-6.177-1.15-8.647-3.612l-21.19-21.188c-2.47-2.475-3.61-5.037-3.516-8.562V42c0-3.512 1.141-6.55 3.706-9.125l21.57-21.85c2.186-2.187 4.942-2.85 8.077-2.85H84c3.135 0 5.89.662 8.076 2.85l21.569 21.85c2.47 2.575 3.706 5.612 3.706 9.125v13.688zM97.87 5.513C94.166 1.9 89.511 0 83.902 0H41.715c-5.606 0-10.358 1.9-13.968 5.513L5.415 27.75C1.9 31.262 0 35.925 0 41.05V83.9c0 5.9 1.996 10.463 5.985 14.35l21.191 21.2c4.18 4.175 8.837 6.075 14.824 5.987h41.62c5.796 0 10.546-1.712 14.821-5.987l21.191-21.2c3.895-3.888 5.988-8.55 5.988-14.35V41.05c0-5.125-1.903-9.787-5.418-13.3L97.87 5.512M39.94 34.026h-8.647c-3.325 0-5.037.563-5.037 3.325v3.138c0 2.75 1.712 3.325 5.037 3.325h1.996c1.235 0 1.805.662 1.805 2.562v41.05c0 3.325.57 5.038 3.326 5.038h3.23c2.756 0 3.326-1.713 3.326-5.038V37.35c0-2.762-1.711-3.325-5.036-3.325"/></symbol><symbol id="age16" viewBox="0 0 125.62 125.42874"><title>16+</title><path d="M117.353 55.687c0 1.413-.667 2.175-1.997 2.175h-6.366V53.4c0-3.325-.476-5.038-3.326-5.038h-2.85c-2.851 0-3.326 1.713-3.326 5.038v4.462H95.02c-3.325 0-5.036.475-5.036 3.325v3.05c0 2.85 1.711 3.325 5.036 3.325h4.467v4.463c0 3.325.475 5.037 3.326 5.037h2.85c2.85 0 3.326-1.712 3.326-5.037v-4.463h6.366c1.235 0 1.9.663 1.997 1.9V83.9c0 3.512-1.047 6.175-3.518 8.55l-21.189 21.2c-2.471 2.462-5.227 3.6-8.646 3.6H41.619c-3.422 0-6.177-1.137-8.645-3.6l-21.191-21.2c-2.47-2.463-3.612-5.038-3.517-8.55V42c0-3.513 1.141-6.563 3.706-9.125l21.57-21.85c2.187-2.188 4.942-2.85 8.077-2.85H84c3.136 0 5.89.662 8.076 2.85l21.57 21.85c2.469 2.562 3.707 5.612 3.707 9.125v13.687zM97.87 5.512C94.168 1.9 89.511 0 83.904 0h-42.19c-5.606 0-10.356 1.9-13.968 5.512L5.415 27.75C1.901 31.262 0 35.912 0 41.05V83.9c0 5.887 1.996 10.45 5.986 14.35l21.191 21.188c4.18 4.187 8.835 6.087 14.822 5.987H83.62c5.796 0 10.547-1.712 14.822-5.987l21.192-21.188c3.894-3.9 5.986-8.55 5.986-14.35V41.05c0-5.138-1.903-9.788-5.418-13.3L97.873 5.512m-59.728 28.5h-8.648c-3.325 0-5.036.575-5.036 3.325v3.138c0 2.762 1.711 3.325 5.036 3.325h1.995c1.235 0 1.805.662 1.805 2.575v41.037c0 3.338.57 5.038 3.328 5.038h3.23c2.756 0 3.327-1.7 3.327-5.038V37.337c0-2.75-1.711-3.325-5.037-3.325m30.48 49.7c-6.746 0-8.741-1.9-8.741-7.5v-9.037c2.374-.563 4.94-1.138 7.696-1.138 7.317 0 8.932 1.9 8.932 8.55 0 6.088-.855 9.125-7.887 9.125zm.19-26.225c-2.375 0-4.75.188-7.221.663-.952.187-1.71-.188-1.71-1.325v-1.9c0-8.938.663-12.163 8.17-12.163 6.462 0 7.888.375 7.888 5.038 0 1.9 1.33 2.462 3.517 2.462h2.278c2.662 0 3.707-.662 3.707-3.225 0-11.212-4.845-14.062-15.963-14.062-17.389 0-19.385 7.025-19.385 29.262.095 21.475-1.14 30.975 18.34 30.975 12.354 0 17.864-4.087 17.864-19.762 0-12.925-5.987-15.963-17.485-15.963"/></symbol><symbol id="age18" viewBox="0 0 125.61875 125.44039"><title>18+</title><path d="M68.7 84.188c-6.08 0-8.266-2.376-8.266-8.363s2.186-8.738 8.266-8.738c6.082 0 8.269 2.75 8.269 8.738 0 5.987-2.186 8.363-8.269 8.363zm0-42.476c5.228 0 7.319 1.9 7.319 8.275 0 6.175-2.092 8.263-7.319 8.263-5.224 0-7.315-2.087-7.315-8.262 0-6.376 2.091-8.276 7.315-8.276zM79.912 62.15c5.322-3.9 5.417-7.888 5.417-11.125V47.8c-.57-10.737-4.18-14.825-16.629-14.825-12.446 0-16.056 4.087-16.628 14.825v3.225c0 3.237.095 7.225 5.417 11.125-6.367 2.462-6.842 7.888-6.842 15.012 0 10.55 3.705 15.775 18.053 16.05 14.349-.275 18.056-5.5 18.056-16.05 0-7.125-.475-12.55-6.844-15.012m37.44-6.463c0 1.425-.666 2.188-1.996 2.188h-6.365V53.4c0-3.325-.476-5.038-3.326-5.038h-2.853c-2.848 0-3.325 1.713-3.325 5.038v4.475h-4.465c-3.325 0-5.036.475-5.036 3.325v3.037c0 2.85 1.711 3.326 5.036 3.326h4.465v4.462c0 3.325.477 5.037 3.325 5.037h2.853c2.85 0 3.326-1.712 3.326-5.037v-4.463h6.365c1.236 0 1.901.663 1.996 1.9V83.9c0 3.525-1.046 6.188-3.516 8.563l-21.19 21.187c-2.471 2.462-5.226 3.612-8.645 3.612H41.62c-3.42 0-6.175-1.15-8.647-3.612L11.784 92.462c-2.47-2.475-3.614-5.037-3.517-8.562V42c0-3.512 1.142-6.55 3.707-9.125l21.568-21.85c2.187-2.188 4.942-2.85 8.077-2.85H84c3.134 0 5.889.662 8.075 2.85l21.57 21.85c2.47 2.575 3.707 5.612 3.707 9.125v13.688zM97.872 5.513C94.165 1.9 89.511 0 83.903 0h-42.19c-5.606 0-10.358 1.9-13.966 5.513L5.415 27.75C1.901 31.262 0 35.925 0 41.05V83.9c0 5.9 1.996 10.463 5.986 14.35l21.192 21.2c4.178 4.175 8.835 6.075 14.822 5.987h41.62c5.796 0 10.546-1.712 14.822-5.987l21.19-21.2c3.897-3.888 5.987-8.55 5.987-14.35V41.05c0-5.125-1.9-9.787-5.416-13.3L97.87 5.512M38.594 34.026h-8.648c-3.324 0-5.035.563-5.035 3.325v3.138c0 2.75 1.711 3.325 5.035 3.325h1.996c1.235 0 1.804.662 1.804 2.562v41.05c0 3.325.571 5.038 3.328 5.038h3.228c2.758 0 3.33-1.713 3.33-5.038V37.35c0-2.762-1.713-3.325-5.038-3.325"/></symbol><symbol id="handUp" viewBox="0 0 49.881626 51.564377"><title>Рука вверх</title><path d="M0 0c9.688 3.438 11.688 19.625 13.313 19.062 10.401-3.6-.415-14.839 2.437-15.187 5.754-.703 12.564 1.126 12.702-1.003.813-12.562-.39-23.625-12.015-24.312-4.938-.292-13.791 2.352-14.937 2.937-3.187 1.625-3.875 9.063-5.125 12.625-1.562-9.812 2.919-16.267 2.188-16.25-1.337.03-6.475-.259-6.938.313-3.405 4.207-4.125 18.312-.313 22C-7.671 1.168-2.688-.06 0 0" transform="matrix(1.25 0 0 -1.25 14.065 23.846)"/></symbol><symbol id="handBottom" viewBox="0 0 52.818626 52.237499"><title>Рука вниз</title><path d="M0 0c1.037 1.377 4.625.001 13.625.5 4.369.242 9.249 2.542 14.187 2.25 11.626-.687 12.813-12.375 12.001-24.937-.138-2.129-6.875.437-12.501-1.625-2.697-.99 7.964-11.587-2.437-15.188-1.625-.563-3.625 15.625-13.312 19.063C9-14.688 8.375-10.375 7.625-6.75c-2.313-4.5 1.688-14.937.625-15.187-1.539-.363-6.343-1.189-7.125-.313C-2.563-18.119-3.625-4.812 0 0" transform="matrix(1.25 0 0 -1.25 2.8 3.47)"/></symbol><symbol id="avatar" viewBox="0 0 565.65002 593.34003"><title>Аватар</title><path d="M0 0l89.652-48.884c26.128-10.456 59.127-35.373 59.127-66.817v-18.292c0-10.316-8.446-18.922-18.76-18.922h-395c-10.314 0-18.76 8.274-18.76 18.592v18.291c0 31.447 32.999 56.36 59.127 66.818l88.652 46.882m-48.811 153.37c-2.067 50.233 13.736 120.791 65.582 135.809 70.636 42.427 168.269-8.998 168.03-112.313.163-1.578.263-15.422.377-22.772 10.005-17.629 10.493-42.468 5.188-62.55-4.224-16.017-13.152-31.943-26.579-39.637C.488-51.417-135.922-49.984-162.912 49.563c-2.913 1.656-5.608 3.768-8.097 6.156-14.112 13.51-21.004 35.043-21.652 55.676-.414 13.106 1.564 28.192 7.888 39.643z" stroke-width="20" transform="matrix(1.25 0 0 -1.25 367.176 389.696)"/></symbol><symbol id="pointer" viewBox="0 0 96 96"><title>Указатель</title><path d="M677.967 913.801l95.747-43.725-42.967 95.495v-51.517z" transform="translate(-677.714 -870.076)"/></symbol><symbol id="check" viewBox="0 0 16.5625 14.0625"><title>Галочка в инпуте</title><path d="M1.847 6.852s1.022 1.31 3.473 3.94c1.368 1.44 1.338 1.826 2.452.295 2.506-3.442 6.976-9.24 6.976-9.24" stroke-width="3.6" stroke-linecap="round" stroke-dasharray="22,22" transform="translate(-.031 -.027)"/></symbol><symbol id="apple" viewBox="0 0 50.078125 61.497749"><title>Логотип apple</title><path d="M0 0c1.715 2.082 2.877 4.976 2.562 7.855C.086 7.755-2.91 6.21-4.687 4.13-6.278 2.284-7.671-.654-7.298-3.482-4.537-3.696-1.721-2.078 0 0m6.195-18.288c-.062 6.232 5.082 9.222 5.312 9.372-2.89 4.228-7.395 4.808-8.999 4.873C-1.32-3.653-4.968-6.3-6.91-6.3c-1.939 0-4.94 2.199-8.117 2.144-4.178-.063-8.029-2.431-10.179-6.171-4.339-7.526-1.11-18.682 3.118-24.791 2.067-2.985 4.532-6.346 7.765-6.223 3.118.123 4.294 2.016 8.062 2.016s4.826-2.016 8.123-1.952c3.352.06 5.477 3.043 7.527 6.04 2.372 3.469 3.35 6.828 3.408 6.999-.073.033-6.534 2.509-6.6 9.949" transform="matrix(1.25 0 0 -1.25 34.083 9.82)"/></symbol><symbol id="android" viewBox="0 0 53.314251 62.608002"><title>Логотип android</title><path d="M0 0a2.907 2.907 0 0 1-2.908-2.909v-12.44a2.907 2.907 0 0 1 5.813 0v12.441A2.906 2.906 0 0 1 0 0m-36.838 0a2.908 2.908 0 0 1-2.908-2.909v-12.44a2.908 2.908 0 0 1 5.815 0v12.441A2.907 2.907 0 0 1-36.838 0m5.057 0h-.21V-21.327a3.072 3.072 0 0 1 3.07-3.07h2.216a2.904 2.904 0 0 1-.116-.807v-6.142a2.91 2.91 0 0 1 5.817 0v6.142c0 .279-.043.551-.115.807h5.4a2.904 2.904 0 0 1-.115-.807v-6.142a2.909 2.909 0 0 1 5.816 0v6.142c0 .279-.041.551-.116.807h2.216a3.073 3.073 0 0 1 3.07 3.07V0h-26.933zm19.177 5.816a1.453 1.453 0 1 0 0 2.907 1.453 1.453 0 0 0 0-2.907m-11.631 0a1.454 1.454 0 1 0-.003 2.908 1.454 1.454 0 0 0 .003-2.908m12.489 5.823l.547.82.537.807 1.209 1.814a.487.487 0 0 1-.132.672.488.488 0 0 1-.675-.135l-1.295-1.945-.545-.817-.553-.828a15.939 15.939 0 0 1-5.767 1.06c-2.062 0-4.015-.38-5.767-1.06l-.55.828-.545.817-1.297 1.946a.485.485 0 0 1-.807-.537l1.208-1.814.539-.807.547-.82c-4.115-1.916-6.898-5.546-6.898-9.7h27.142c0 4.153-2.782 7.783-6.898 9.7" transform="matrix(1.25 0 0 -1.25 49.683 19.792)"/></symbol><symbol id="viewList" viewBox="0 0 14 9"><title>Вид списком</title><path d="M0 0v1h14V0H0zm0 4v1h14V4H0zm0 4v1h14V8H0z"/></symbol><symbol id="viewDefault" viewBox="0 0 14 9"><title>Вид по умолчанию</title><path d="M5 8h9v1H5zm0-2h9v1H5zM0 6h3v3H0zm5-4h9v1H5zm0-2h9v1H5zM0 0h3v3H0z"/></symbol><symbol id="viewAfisha" viewBox="0 0 14.444445 10"><title>Вид Афиша</title><path d="M0 0v6h6V0H0zm10 0v2h4V0h-4zm6 0v2h4V0h-4zm6 0v2h4V0h-4zM10 4v2h4V4h-4zm6 0v2h4V4h-4zM0 12v6h6v-6H0zm10 0v2h4v-2h-4zm6 0v2h4v-2h-4zm6 0v2h4v-2h-4zm-12 4v2h4v-2h-4zm6 0v2h4v-2h-4z" transform="scale(.55556)"/></symbol><symbol id="wifi" viewBox="0 0 17 12.14828"><title>wi-fi</title><path d="M8.489 12.148l-.365-.36L6.12 9.806l-.403-.399.44-.36c.585-.433 1.23-.76 2.335-.76 1.101 0 1.705.357 2.335.76l.437.36-.403.399-2.004 1.982-.368.36zM3.129 6.09a7.97 7.97 0 0 1 5.356-2.065h.338l.004.008A7.977 7.977 0 0 1 13.86 6.09l.398.36-.383.38-1.241 1.23-.346.342-.364-.32a5.21 5.21 0 0 0-3.428-1.309 5.214 5.214 0 0 0-3.436 1.31l-.364.319-.346-.342L3.11 6.83l-.384-.38.403-.36zM8.491 0c3.034 0 5.911 1.135 8.12 3.193l.388.36-.376.372-1.226 1.215-.353.35-.365-.335a9.111 9.111 0 0 0-6.18-2.41 9.104 9.104 0 0 0-6.18 2.41l-.365.334-.353-.349L.376 3.925 0 3.553l.387-.36A11.836 11.836 0 0 1 8.492 0"/></symbol><symbol id="sofa" viewBox="0 0 22.90909 12"><title>sofa</title><path d="M11 4h-1v6h1V4zm5 7H5a1 1 0 0 1-1-1V4a1 1 0 0 1 1-1h11a1 1 0 0 1 1 1v6a1 1 0 0 1-1 1m0-7H5v6h11V4zm0 0H5a1 1 0 0 1-1-1V1a1 1 0 0 1 1-1h11a1 1 0 0 1 1 1v2a1 1 0 0 1-1 1m0-3H5v2h11V1zm4 6h-3a1 1 0 0 1-1-1V1a1 1 0 0 1 1-1h3a1 1 0 0 1 1 1v5a1 1 0 0 1-1 1m0-6h-3v5h3V1zM4 7H1a1 1 0 0 1-1-1V1a1 1 0 0 1 1-1h3a1 1 0 0 1 1 1v5a1 1 0 0 1-1 1m0-6H1v5h3V1z" transform="matrix(1.1 0 0 -1.1 0 12)"/></symbol><symbol id="ticket" viewBox="0 0 19 29.165642"><title>ticket</title><path d="M1.373 0C.615 0 0 .615 0 1.373v26.42c0 .758.615 1.373 1.373 1.373h4.86a3.268 3.268 0 1 1 6.535 0h4.859c.758 0 1.373-.615 1.373-1.373V1.373C19 .615 18.385 0 17.627 0h-4.86a3.268 3.268 0 1 1-6.535 0zm.32 1.693h3.143A4.97 4.97 0 0 0 9.5 4.961a4.97 4.97 0 0 0 4.664-3.268h3.143v6.065h-2.471v1.748h2.47V27.47h-3.142A4.97 4.97 0 0 0 9.5 24.203a4.97 4.97 0 0 0-4.664 3.268H1.693V9.5H3.33V7.768l-1.637-.005zm3.215 6.065v1.748h3.78V7.758zm5.36 0v1.748h3.779V7.758z"/></symbol><symbol id="curlyArrow" viewBox="0 0 13.85402 15"><title>Фигурная стрелка</title><path d="M13.854 15v-1.293c-5.164-.9-9.09-5.345-9.09-10.706 0-.224.002-.438.003-.654l2.379 2.351c.254.251.664.251.918 0a.636.636 0 0 0 0-.907L4.127 0 .19 3.79a.636.636 0 0 0 0 .908c.254.25.665.25.919 0l2.357-2.33-.002.606c0 6.077 4.504 11.1 10.39 12.026"/></symbol><symbol id="play" viewBox="0 0 16.212175 15"><title>Плей</title><path d="M0 14.166c0 .694.514 1.02 1.142.725l14.6-6.855c.627-.295.627-.777 0-1.072L1.141.109C.514-.186 0 .14 0 .834v13.332z"/></symbol><symbol id="selectArrow" viewBox="0 0 9.9999972 5.9267167"><title>Стрелочка селекта</title><path d="M1.053 1.052l4.079 3.486 3.815-3.465" fill-rule="evenodd" stroke-width="2.084" stroke-linecap="round" stroke-linejoin="miter" stroke-opacity="1"/></symbol><symbol id="next" viewBox="0 0 17 14.565359"><title>next</title><path d="M16.83 6.294L9.32.107a.47.47 0 0 0-.766.362V3.73c-3.644.133-6.15 1.418-7.452 3.826C-.02 9.632-.008 12.092.002 13.719v.376a.473.473 0 0 0 .47.47.464.464 0 0 0 .408-.237c2.543-4.483 4.637-4.7 7.672-4.71v3.25c0 .182.104.35.271.426a.477.477 0 0 0 .502-.063l7.504-6.208a.473.473 0 0 0 0-.728zM9.495 11.87z"/></symbol><symbol id="uber" viewBox="0 0 13 13.013207"><title>uber</title><path d="M6.493 0A6.507 6.507 0 0 0 .002 6.072H4.69V4.934c0-.106.086-.192.192-.192h3.12c.106 0 .192.086.192.192v3.12a.191.191 0 0 1-.191.192H4.882a.191.191 0 0 1-.192-.191V6.916H0A6.507 6.507 0 1 0 6.493 0z"/></symbol><symbol id="handset" viewBox="0 0 18 17.962424"><title>handset</title><path d="M13.443 0c-2.9-.003-5.892 2.199-8.209 4.58C2.62 6.965-.003 10.24 0 13.406c.07 3.098 1.26 3.742 2.406 4.483 0 0 .628.264 1.174-.211.546-.476 2.941-2.87 2.941-2.87s.852-.71.264-1.495c-.438-.587-1.414-1.64-1.65-1.893-.001 0 .938-1.76 1.795-2.8 1.269-1.544 2.835-2.576 3.726-3.118l.762-.404c.152.141 1.306 1.22 1.932 1.687.786.587 1.496-.264 1.496-.264s2.394-2.395 2.869-2.94c.475-.547.213-1.175.213-1.175C17.187 1.26 16.542.071 13.443 0z"/></symbol><symbol id="camera" viewBox="0 0 19.5 15"><title>Camera</title><path d="M256 202.9c-38.6 0-69.8 31.3-69.8 70 0 38.6 31.2 70 69.8 70 38.5 0 69.8-31.3 69.8-70s-31.3-70-69.8-70zM430.4 147h-67.5l-40.4-40.8s-.2-.2-.3-.2l-.2-.2c-6-6-14.1-9.8-23.3-9.8h-84c-9.8 0-18.5 4.2-24.6 10.9v.1l-39.5 40h-69C63 147 48 161.6 48 180.2v202.1c0 18.6 15 33.7 33.6 33.7h348.8c18.5 0 33.6-15.1 33.6-33.7V180.2c0-18.6-15.1-33.2-33.6-33.2zM256 365.5c-50.9 0-92.4-41.6-92.4-92.6 0-51.1 41.5-92.6 92.4-92.6 51 0 92.4 41.5 92.4 92.6 0 51-41.4 92.6-92.4 92.6zm168.1-165c-7.7 0-14-6.3-14-14.1s6.3-14.1 14-14.1 14 6.3 14 14.1-6.3 14.1-14 14.1z" transform="matrix(.04688 0 0 .04688 -2.25 -4.5)"/></symbol></svg>