<?xml version="1.0" encoding="UTF-8" standalone="no"?><svg xmlns:dc="http://purl.org/dc/elements/1.1/" xmlns:cc="http://creativecommons.org/ns#" xmlns:rdf="http://www.w3.org/1999/02/22-rdf-syntax-ns#" xmlns="http://www.w3.org/2000/svg" id="svg2" version="1.1" xml:space="preserve" width="19" height="29.166" viewBox="0 0 19 29.165642"><metadata id="metadata8"><rdf:RDF><cc:Work><dc:format>image/svg+xml</dc:format><dc:type rdf:resource="http://purl.org/dc/dcmitype/StillImage"/><dc:title/></cc:Work></rdf:RDF></metadata><defs id="defs6"><clipPath clipPathUnits="userSpaceOnUse" id="clipPath16"><path d="M0 120.5h78.5V0H0v120.5z" id="path18"/></clipPath></defs><path d="M1.373 0C.615 0 0 .615 0 1.373v26.42c0 .758.615 1.373 1.373 1.373h4.86a3.268 3.268 0 1 1 6.535 0h4.859c.758 0 1.373-.615 1.373-1.373V1.373C19 .615 18.385 0 17.627 0h-4.86a3.268 3.268 0 1 1-6.535 0zm.32 1.693h3.143A4.97 4.97 0 0 0 9.5 4.961a4.97 4.97 0 0 0 4.664-3.268h3.143v6.065h-2.471v1.748h2.47V27.47h-3.142A4.97 4.97 0 0 0 9.5 24.203a4.97 4.97 0 0 0-4.664 3.268H1.693V9.5H3.33V7.768l-1.637-.005zm3.215 6.065v1.748h3.78V7.758zm5.36 0v1.748h3.779V7.758z" fill="#000" fill-opacity="1" fill-rule="nonzero" stroke="none"/></svg>