<?xml version="1.0" encoding="UTF-8" standalone="no"?><svg xmlns:dc="http://purl.org/dc/elements/1.1/" xmlns:cc="http://creativecommons.org/ns#" xmlns:rdf="http://www.w3.org/1999/02/22-rdf-syntax-ns#" xmlns="http://www.w3.org/2000/svg" id="svg2" version="1.1" xml:space="preserve" width="27.49" height="22.341" viewBox="0 0 27.49025 22.341249"><metadata id="metadata8"><rdf:RDF><cc:Work><dc:format>image/svg+xml</dc:format><dc:type rdf:resource="http://purl.org/dc/dcmitype/StillImage"/><dc:title/></cc:Work></rdf:RDF></metadata><defs id="defs6"><clipPath clipPathUnits="userSpaceOnUse" id="clipPath16"><path d="M0 17.873h21.992V0H0v17.873z" id="path18"/></clipPath></defs><g id="g10" transform="matrix(1.25 0 0 -1.25 0 22.341)"><g id="g12"><g id="g14" clip-path="url(#clipPath16)"><g id="g20" transform="translate(21.992 15.758)"><path id="path22" d="M0 0a8.948 8.948 0 0 0-2.592-.709A4.518 4.518 0 0 1-.607 1.785 9.044 9.044 0 0 0-3.473.691a4.51 4.51 0 0 1-3.295 1.424 4.51 4.51 0 0 1-4.51-4.511c0-.354.04-.699.116-1.028a12.81 12.81 0 0 0-9.3 4.714 4.498 4.498 0 0 1-.61-2.269c0-1.566.796-2.946 2.006-3.756a4.505 4.505 0 0 0-2.043.564v-.057a4.514 4.514 0 0 1 3.619-4.424 4.519 4.519 0 0 0-2.037-.077 4.518 4.518 0 0 1 4.214-3.134 9.054 9.054 0 0 0-6.679-1.868 12.766 12.766 0 0 1 6.916-2.027c8.299 0 12.837 6.875 12.837 12.838 0 .195-.005.39-.013.585A9.142 9.142 0 0 1 0 0" fill="#373535" fill-opacity="1" fill-rule="nonzero" stroke="none"/></g></g></g></g></svg>