<?xml version="1.0" encoding="UTF-8" standalone="no"?><svg xmlns:dc="http://purl.org/dc/elements/1.1/" xmlns:cc="http://creativecommons.org/ns#" xmlns:rdf="http://www.w3.org/1999/02/22-rdf-syntax-ns#" xmlns="http://www.w3.org/2000/svg" id="svg2" version="1.1" xml:space="preserve" width="32" height="32" viewBox="0 0 32 32"><metadata id="metadata8"><rdf:RDF><cc:Work><dc:format>image/svg+xml</dc:format><dc:type rdf:resource="http://purl.org/dc/dcmitype/StillImage"/><dc:title/></cc:Work></rdf:RDF></metadata><defs id="defs6"><clipPath clipPathUnits="userSpaceOnUse" id="clipPath16"><path d="M0 32h32V0H0v32z" id="path18"/></clipPath></defs><path d="M24.624 12.578c.008.194.013.39.013.585C24.637 19.125 20.099 26 11.8 26c-2.548 0-4.921-.747-6.916-2.026.352.043.712.063 1.076.063 2.115 0 4.06-.722 5.602-1.931a4.519 4.519 0 0 1-4.213-3.134 4.541 4.541 0 0 0 2.037-.077 4.514 4.514 0 0 1-3.619-4.425v-.057c.608.338 1.305.54 2.043.564a4.51 4.51 0 0 1-2.006-3.755c0-.828.222-1.602.61-2.269a12.813 12.813 0 0 0 9.3 4.714 4.575 4.575 0 0 1-.116-1.028 4.51 4.51 0 0 1 4.51-4.512c1.299 0 2.472.548 3.295 1.425a9.055 9.055 0 0 0 2.866-1.095 4.524 4.524 0 0 1-1.985 2.495 8.948 8.948 0 0 0 2.592-.709 9.174 9.174 0 0 1-2.252 2.335M0 32h32V0H0v32z" id="path8" fill="#000" fill-opacity="1"/></svg>