<?xml version="1.0" encoding="UTF-8" standalone="no"?><svg xmlns:dc="http://purl.org/dc/elements/1.1/" xmlns:cc="http://creativecommons.org/ns#" xmlns:rdf="http://www.w3.org/1999/02/22-rdf-syntax-ns#" xmlns="http://www.w3.org/2000/svg" id="svg2" version="1.1" xml:space="preserve" width="20.003" height="25.005" viewBox="0 0 20.002501 25.004875"><metadata id="metadata8"><rdf:RDF><cc:Work><dc:format>image/svg+xml</dc:format><dc:type rdf:resource="http://purl.org/dc/dcmitype/StillImage"/><dc:title/></cc:Work></rdf:RDF></metadata><defs id="defs6"><clipPath clipPathUnits="userSpaceOnUse" id="clipPath16"><path d="M0 20.004h16.002V0H0v20.004z" id="path18"/></clipPath></defs><g id="g10" transform="matrix(1.25 0 0 -1.25 0 25.005)"><g id="g12"><g id="g14" clip-path="url(#clipPath16)"><g id="g20" transform="translate(10.513 4.923)"><path id="path22" d="M0 0c-.211-.379-.543-.669-1.001-.867a4.256 4.256 0 0 0-1.531-.362 98.338 98.338 0 0 0-2.714-.026h-.268v5.011h.926c.896 0 1.61-.007 2.143-.02.534-.013.953-.079 1.257-.195.501-.179.876-.442 1.127-.793.252-.349.377-.833.377-1.449C.316.814.211.381 0 0m-5.514 11.414h.349c.895 0 1.569-.007 2.021-.02a3.24 3.24 0 0 0 1.177-.235c.349-.154.606-.399.772-.74.166-.34.248-.671.248-.994 0-.439-.075-.824-.227-1.155-.154-.332-.431-.591-.834-.779a2.877 2.877 0 0 0-1.068-.283 40.928 40.928 0 0 0-1.807-.026h-.632v4.232h.001zm9.887-6.966c-.743.802-1.732 1.332-2.97 1.591v.108a4.297 4.297 0 0 1 2.024 1.68c.487.761.731 1.63.731 2.606 0 .841-.176 1.585-.53 2.23-.356.645-.89 1.16-1.606 1.545a6.457 6.457 0 0 1-2.127.705c-.759.112-1.871.168-3.34.168h-7.068V-4.923h8.009c1.388 0 2.531.125 3.431.376a7.017 7.017 0 0 1 2.478 1.262 5.349 5.349 0 0 1 1.519 1.868c.376.753.565 1.627.565 2.62 0 1.36-.371 2.444-1.116 3.245" fill="#373536" fill-opacity="1" fill-rule="nonzero" stroke="none"/></g></g></g></g></svg>