<?xml version="1.0" encoding="UTF-8" standalone="no"?><svg xmlns:dc="http://purl.org/dc/elements/1.1/" xmlns:cc="http://creativecommons.org/ns#" xmlns:rdf="http://www.w3.org/1999/02/22-rdf-syntax-ns#" xmlns="http://www.w3.org/2000/svg" id="svg2" version="1.1" xml:space="preserve" width="32" height="32" viewBox="0 0 32 32"><metadata id="metadata8"><rdf:RDF><cc:Work><dc:format>image/svg+xml</dc:format><dc:type rdf:resource="http://purl.org/dc/dcmitype/StillImage"/><dc:title/></cc:Work></rdf:RDF></metadata><defs id="defs6"><clipPath clipPathUnits="userSpaceOnUse" id="clipPath16"><path d="M0 32h32V0H0v32z" id="path18"/></clipPath></defs><path d="M15.437 13.873a2.877 2.877 0 0 0 1.068-.283c.403-.187.68-.446.834-.78.152-.33.227-.714.227-1.154 0-.322-.082-.653-.248-.994a1.504 1.504 0 0 0-.772-.74c-.333-.142-.724-.22-1.177-.234a76.165 76.165 0 0 0-2.021-.02h-.349V13.9h.631c.859 0 1.462-.008 1.807-.027m1.888 3.667c-.304-.116-.723-.182-1.256-.195a91.982 91.982 0 0 0-2.143-.02h-.927v5.011h.268c1.308 0 2.213-.01 2.715-.026a4.25 4.25 0 0 0 1.53-.362c.459-.198.79-.488 1-.867.212-.381.318-.814.318-1.299 0-.616-.125-1.1-.377-1.449-.251-.351-.626-.614-1.128-.793m6.112 4.958a5.349 5.349 0 0 1-1.519 1.868 7.017 7.017 0 0 1-2.478 1.262c-.899.251-2.043.376-3.431.376H8V6h7.068c1.469 0 2.581.056 3.34.168a6.455 6.455 0 0 1 2.128.705c.715.385 1.25.9 1.605 1.545.355.645.53 1.389.53 2.23 0 .976-.244 1.845-.731 2.606a4.297 4.297 0 0 1-2.024 1.68v.108c1.238.259 2.227.789 2.97 1.591.745.801 1.116 1.885 1.116 3.245 0 .993-.189 1.867-.565 2.62M0 32h32V0H0v32z" id="path8" fill="#000" fill-opacity="1"/></svg>