<?xml version="1.0" encoding="UTF-8" standalone="no"?><svg xmlns:dc="http://purl.org/dc/elements/1.1/" xmlns:cc="http://creativecommons.org/ns#" xmlns:rdf="http://www.w3.org/1999/02/22-rdf-syntax-ns#" xmlns="http://www.w3.org/2000/svg" id="svg2" version="1.1" xml:space="preserve" width="17" height="12.148" viewBox="0 0 17 12.14828"><metadata id="metadata8"><rdf:RDF><cc:Work><dc:format>image/svg+xml</dc:format><dc:type rdf:resource="http://purl.org/dc/dcmitype/StillImage"/><dc:title/></cc:Work></rdf:RDF></metadata><defs id="defs6"><clipPath clipPathUnits="userSpaceOnUse" id="clipPath16"><path d="M0 320h447.8V0H0v320z" id="path18"/></clipPath></defs><path id="path30" d="M8.489 12.148l-.365-.36L6.12 9.806l-.403-.399.44-.36c.585-.433 1.23-.76 2.335-.76 1.101 0 1.705.357 2.335.76l.437.36-.403.399-2.004 1.982-.368.36zM3.129 6.09a7.97 7.97 0 0 1 5.356-2.065h.338l.004.008A7.977 7.977 0 0 1 13.86 6.09l.398.36-.383.38-1.241 1.23-.346.342-.364-.32a5.21 5.21 0 0 0-3.428-1.309 5.214 5.214 0 0 0-3.436 1.31l-.364.319-.346-.342L3.11 6.83l-.384-.38.403-.36zM8.491 0c3.034 0 5.911 1.135 8.12 3.193l.388.36-.376.372-1.226 1.215-.353.35-.365-.335a9.111 9.111 0 0 0-6.18-2.41 9.104 9.104 0 0 0-6.18 2.41l-.365.334-.353-.349L.376 3.925 0 3.553l.387-.36A11.836 11.836 0 0 1 8.492 0" fill="#000" fill-opacity="1" fill-rule="nonzero" stroke="none"/></svg>