<?xml version="1.0" encoding="UTF-8" standalone="no"?><svg xmlns:dc="http://purl.org/dc/elements/1.1/" xmlns:cc="http://creativecommons.org/ns#" xmlns:rdf="http://www.w3.org/1999/02/22-rdf-syntax-ns#" xmlns="http://www.w3.org/2000/svg" xmlns:xlink="http://www.w3.org/1999/xlink" width="22.401" height="22.401" viewBox="0 0 21.001022 21.000994" id="svg2" version="1.1"><metadata id="metadata7"><rdf:RDF><cc:Work><dc:format>image/svg+xml</dc:format><dc:type rdf:resource="http://purl.org/dc/dcmitype/StillImage"/><dc:title/></cc:Work></rdf:RDF></metadata><g id="layer1" transform="translate(-346.642 -459.005)"><image y="459.005" x="346.643" id="image4144" xlink:href="file:///C:/Users/Asus/Desktop/Layer-49.gif" preserveAspectRatio="none" height="21" width="21" opacity=".5" image-rendering="optimizeSpeed"/><path id="path4213" d="M347.643 479.004v1.001h-1.001v-1.001zm1-1.004v1.001h-1.001v-1zm1-1v1.001h-1.001v-1zm1-1.004v1.001h-1.001v-1zm.997-.988v1h-1v-1zm1.005-.994v1.001h-1v-1zm1-1.004v1.001h-1v-1zm1-1v1.001h-1v-1zm1-1.004v1.001h-1v-1zm.998-.988v1h-1.001v-1zm1-1.004v1.001h-1.001v-1.001zm1-1v1.001h-1.001v-1.001zm1-1.004v1.001h-1.001v-1.001zm1.002-1v1.001h-1v-1zm1-1.004v1.001h-1v-1zm1-1v1.001h-1v-1zm1-1.004v1.002h-1v-1.002zm.998-.988v1.001h-1.001v-1.001zm1-1.004v1.001h-1.001v-1.001zm1-1v1.001h-1.001v-1.001zm1-1.004v1.001h-1.001v-1zm-1.002 19.999h1v1.001h-1zm-1.004-1h1v1.001h-1zm-1-1h1v1.001h-1zm-1.004-1h1.001v1.001h-1.001zm-.989-.997h1.001v1h-1zm-.993-1.006h1.001v1.002h-1.001zm-1.004-1h1.001v1.002h-1.001zm-1-1h1.001v1.002h-1.001zm-1.004-1h1.001v1.002h-1zm-.988-.997h1v1.001h-1zm-1.004-1h1v1.001h-1zm-1-1h1v1.001h-1zm-1.004-1h1v1.001h-1zm-1-1.003h1.001v1.002h-1.001zm-1.004-1h1.001v1.002h-1zm-1-1h1.001v1.002h-1zm-1.004-1h1.001v1.002h-1zm-.988-.997h1v1.001h-1zm-1.004-1h1v1.001h-1zm-1-1h1v1.001h-1zm-1.004-1h1v1.001h-1z" opacity=".864" fill="#000" fill-opacity="1" fill-rule="nonzero" stroke="none" stroke-width="1" stroke-linecap="square" stroke-linejoin="bevel" stroke-miterlimit="4" stroke-dasharray="none" stroke-opacity="1"/></g></svg>