<?xml version="1.0" encoding="UTF-8" standalone="no"?><svg xmlns:dc="http://purl.org/dc/elements/1.1/" xmlns:cc="http://creativecommons.org/ns#" xmlns:rdf="http://www.w3.org/1999/02/22-rdf-syntax-ns#" xmlns="http://www.w3.org/2000/svg" id="svg2" version="1.1" xml:space="preserve" width="27.492" height="20.625" viewBox="0 0 27.491501 20.625"><metadata id="metadata8"><rdf:RDF><cc:Work><dc:format>image/svg+xml</dc:format><dc:type rdf:resource="http://purl.org/dc/dcmitype/StillImage"/><dc:title/></cc:Work></rdf:RDF></metadata><defs id="defs6"><clipPath clipPathUnits="userSpaceOnUse" id="clipPath16"><path d="M0 16.5h21.993V0H0v16.5z" id="path18"/></clipPath></defs><g id="g10" transform="matrix(1.25 0 0 -1.25 0 20.625)"><g id="g12"><g id="g14" clip-path="url(#clipPath16)"><g id="g20" transform="translate(8.25 4.125)"><path id="path22" d="M0 0v8.25l6.876-4.125L0 0zm13.523 8.813s-.214 1.619-.875 2.331c-.835.933-1.774.939-2.204.992-3.077.239-7.694.239-7.694.239h-.01s-4.615 0-7.693-.239c-.43-.053-1.366-.059-2.203-.992-.658-.712-.875-2.331-.875-2.331s-.219-1.896-.219-3.795V3.239c0-1.899.219-3.799.219-3.799s.215-1.615.875-2.327c.837-.933 1.935-.905 2.425-1.002 1.758-.181 7.478-.236 7.478-.236s4.62.009 7.697.244c.43.057 1.369.061 2.204.993.661.711.875 2.328.875 2.328s.22 1.9.22 3.798v1.78c0 1.899-.22 3.795-.22 3.795" fill="#373535" fill-opacity="1" fill-rule="nonzero" stroke="none"/></g></g></g></g></svg>