<?xml version="1.0" encoding="UTF-8" standalone="no"?><svg xmlns:dc="http://purl.org/dc/elements/1.1/" xmlns:cc="http://creativecommons.org/ns#" xmlns:rdf="http://www.w3.org/1999/02/22-rdf-syntax-ns#" xmlns="http://www.w3.org/2000/svg" id="svg2" version="1.1" xml:space="preserve" width="40" height="40" viewBox="0 0 40 40"><metadata id="metadata8"><rdf:RDF><cc:Work><dc:format>image/svg+xml</dc:format><dc:type rdf:resource="http://purl.org/dc/dcmitype/StillImage"/><dc:title/></cc:Work></rdf:RDF></metadata><defs id="defs6"><clipPath clipPathUnits="userSpaceOnUse" id="clipPath20"><path d="M0 32h32V0H0v32z" id="path22"/></clipPath></defs><g id="g10" transform="matrix(1.25 0 0 -1.25 0 40)" fill="#ff7f2a"><g id="g16"><g id="g18" clip-path="url(#clipPath20)" fill="#ff7f2a"><g id="g24" transform="translate(27 15.863)" fill="#ff7f2a"><path id="path26" d="M0 0c0-1.898-.22-3.797-.22-3.797s-.215-1.618-.875-2.328c-.836-.933-1.774-.937-2.204-.994-3.077-.235-7.697-.244-7.697-.244s-5.72.055-7.478.237c-.49.096-1.588.068-2.425 1.001-.661.712-.875 2.328-.875 2.328s-.219 1.899-.219 3.798V1.78c0 1.899.219 3.796.219 3.796s.216 1.618.875 2.33c.837.933 1.773.94 2.203.992 3.078.239 7.693.239 7.693.239h.01s4.617 0 7.694-.239c.43-.052 1.368-.059 2.204-.992.66-.712.875-2.33.875-2.33S0 3.679 0 1.78V0zm-27-15.863H5v32h-32v-32zm13.257 12.625L-6.867.887l-6.876 4.125v-8.25z" fill="#ff7f2a" fill-opacity="1" fill-rule="nonzero" stroke="none"/></g></g></g></g></svg>